<?xml version="1.0" encoding="utf-8" standalone="no"?>
<!DOCTYPE svg PUBLIC "-//W3C//DTD SVG 1.1//EN"
  "http://www.w3.org/Graphics/SVG/1.1/DTD/svg11.dtd">
<svg xmlns:xlink="http://www.w3.org/1999/xlink" width="288pt" height="288pt" viewBox="0 0 288 288" xmlns="http://www.w3.org/2000/svg" version="1.1">
 <metadata>
  <rdf:RDF xmlns:dc="http://purl.org/dc/elements/1.1/" xmlns:cc="http://creativecommons.org/ns#" xmlns:rdf="http://www.w3.org/1999/02/22-rdf-syntax-ns#">
   <cc:Work>
    <dc:type rdf:resource="http://purl.org/dc/dcmitype/StillImage"/>
    <dc:date>2023-01-31T11:44:40.398918</dc:date>
    <dc:format>image/svg+xml</dc:format>
    <dc:creator>
     <cc:Agent>
      <dc:title>Matplotlib v3.6.3, https://matplotlib.org/</dc:title>
     </cc:Agent>
    </dc:creator>
   </cc:Work>
  </rdf:RDF>
 </metadata>
 <defs>
  <style type="text/css">*{stroke-linejoin: round; stroke-linecap: butt}</style>
 </defs>
 <g id="figure_1">
  <g id="patch_1">
   <path d="M 0 288 
L 288 288 
L 288 0 
L 0 0 
z
" style="fill: #ffffff"/>
  </g>
  <g id="axes_1">
   <g id="patch_2">
    <path d="M 36 256.32 
L 259.2 256.32 
L 259.2 34.56 
L 36 34.56 
z
" style="fill: #ffffff"/>
   </g>
   <g id="PolyCollection_1"/>
   <g id="PolyCollection_2"/>
   <g id="PolyCollection_3"/>
   <g id="PolyCollection_4"/>
   <g id="PolyCollection_5"/>
   <g id="PolyCollection_6"/>
   <g id="PolyCollection_7"/>
   <g id="PolyCollection_8"/>
   <g id="PolyCollection_9"/>
   <g id="PolyCollection_10"/>
   <g id="PolyCollection_11"/>
   <g id="PolyCollection_12"/>
   <g id="PolyCollection_13"/>
   <g id="PolyCollection_14"/>
   <g id="PolyCollection_15"/>
   <g id="matplotlib.axis_1">
    <g id="xtick_1">
     <g id="line2d_1">
      <defs>
       <path id="m5a80631a4b" d="M 0 0 
L 0 3.5 
" style="stroke: #000000; stroke-width: 0.8"/>
      </defs>
      <g>
       <use xlink:href="#m5a80631a4b" x="46.094715" y="256.32" style="stroke: #000000; stroke-width: 0.8"/>
      </g>
     </g>
     <g id="text_1">
      <!-- 0 -->
      <g transform="translate(42.913465 270.918437) scale(0.1 -0.1)">
       <defs>
        <path id="DejaVuSans-30" d="M 2034 4250 
Q 1547 4250 1301 3770 
Q 1056 3291 1056 2328 
Q 1056 1369 1301 889 
Q 1547 409 2034 409 
Q 2525 409 2770 889 
Q 3016 1369 3016 2328 
Q 3016 3291 2770 3770 
Q 2525 4250 2034 4250 
z
M 2034 4750 
Q 2819 4750 3233 4129 
Q 3647 3509 3647 2328 
Q 3647 1150 3233 529 
Q 2819 -91 2034 -91 
Q 1250 -91 836 529 
Q 422 1150 422 2328 
Q 422 3509 836 4129 
Q 1250 4750 2034 4750 
z
" transform="scale(0.015625)"/>
       </defs>
       <use xlink:href="#DejaVuSans-30"/>
      </g>
     </g>
    </g>
    <g id="xtick_2">
     <g id="line2d_2">
      <g>
       <use xlink:href="#m5a80631a4b" x="96.834672" y="256.32" style="stroke: #000000; stroke-width: 0.8"/>
      </g>
     </g>
     <g id="text_2">
      <!-- 1 -->
      <g transform="translate(93.653422 270.918437) scale(0.1 -0.1)">
       <defs>
        <path id="DejaVuSans-31" d="M 794 531 
L 1825 531 
L 1825 4091 
L 703 3866 
L 703 4441 
L 1819 4666 
L 2450 4666 
L 2450 531 
L 3481 531 
L 3481 0 
L 794 0 
L 794 531 
z
" transform="scale(0.015625)"/>
       </defs>
       <use xlink:href="#DejaVuSans-31"/>
      </g>
     </g>
    </g>
    <g id="xtick_3">
     <g id="line2d_3">
      <g>
       <use xlink:href="#m5a80631a4b" x="147.57463" y="256.32" style="stroke: #000000; stroke-width: 0.8"/>
      </g>
     </g>
     <g id="text_3">
      <!-- 2 -->
      <g transform="translate(144.39338 270.918437) scale(0.1 -0.1)">
       <defs>
        <path id="DejaVuSans-32" d="M 1228 531 
L 3431 531 
L 3431 0 
L 469 0 
L 469 531 
Q 828 903 1448 1529 
Q 2069 2156 2228 2338 
Q 2531 2678 2651 2914 
Q 2772 3150 2772 3378 
Q 2772 3750 2511 3984 
Q 2250 4219 1831 4219 
Q 1534 4219 1204 4116 
Q 875 4013 500 3803 
L 500 4441 
Q 881 4594 1212 4672 
Q 1544 4750 1819 4750 
Q 2544 4750 2975 4387 
Q 3406 4025 3406 3419 
Q 3406 3131 3298 2873 
Q 3191 2616 2906 2266 
Q 2828 2175 2409 1742 
Q 1991 1309 1228 531 
z
" transform="scale(0.015625)"/>
       </defs>
       <use xlink:href="#DejaVuSans-32"/>
      </g>
     </g>
    </g>
    <g id="xtick_4">
     <g id="line2d_4">
      <g>
       <use xlink:href="#m5a80631a4b" x="198.314588" y="256.32" style="stroke: #000000; stroke-width: 0.8"/>
      </g>
     </g>
     <g id="text_4">
      <!-- 3 -->
      <g transform="translate(195.133338 270.918437) scale(0.1 -0.1)">
       <defs>
        <path id="DejaVuSans-33" d="M 2597 2516 
Q 3050 2419 3304 2112 
Q 3559 1806 3559 1356 
Q 3559 666 3084 287 
Q 2609 -91 1734 -91 
Q 1441 -91 1130 -33 
Q 819 25 488 141 
L 488 750 
Q 750 597 1062 519 
Q 1375 441 1716 441 
Q 2309 441 2620 675 
Q 2931 909 2931 1356 
Q 2931 1769 2642 2001 
Q 2353 2234 1838 2234 
L 1294 2234 
L 1294 2753 
L 1863 2753 
Q 2328 2753 2575 2939 
Q 2822 3125 2822 3475 
Q 2822 3834 2567 4026 
Q 2313 4219 1838 4219 
Q 1578 4219 1281 4162 
Q 984 4106 628 3988 
L 628 4550 
Q 988 4650 1302 4700 
Q 1616 4750 1894 4750 
Q 2613 4750 3031 4423 
Q 3450 4097 3450 3541 
Q 3450 3153 3228 2886 
Q 3006 2619 2597 2516 
z
" transform="scale(0.015625)"/>
       </defs>
       <use xlink:href="#DejaVuSans-33"/>
      </g>
     </g>
    </g>
    <g id="xtick_5">
     <g id="line2d_5">
      <g>
       <use xlink:href="#m5a80631a4b" x="249.054545" y="256.32" style="stroke: #000000; stroke-width: 0.8"/>
      </g>
     </g>
     <g id="text_5">
      <!-- 4 -->
      <g transform="translate(245.873295 270.918437) scale(0.1 -0.1)">
       <defs>
        <path id="DejaVuSans-34" d="M 2419 4116 
L 825 1625 
L 2419 1625 
L 2419 4116 
z
M 2253 4666 
L 3047 4666 
L 3047 1625 
L 3713 1625 
L 3713 1100 
L 3047 1100 
L 3047 0 
L 2419 0 
L 2419 1100 
L 313 1100 
L 313 1709 
L 2253 4666 
z
" transform="scale(0.015625)"/>
       </defs>
       <use xlink:href="#DejaVuSans-34"/>
      </g>
     </g>
    </g>
    <g id="text_6">
     <!-- ν -->
     <g transform="translate(143.689844 287.635938) scale(0.14 -0.14)">
      <defs>
       <path id="DejaVuSans-3bd" d="M 1300 0 
L 231 3500 
L 850 3500 
L 1753 563 
Q 2128 950 2441 1488 
Q 2678 1891 2691 2241 
Q 2697 2406 2622 2719 
Q 2534 3091 2203 3500 
L 2784 3500 
L 2784 3500 
Q 3000 3222 3144 2834 
Q 3275 2478 3275 2234 
Q 3275 1622 2850 1075 
Q 2297 363 1913 0 
L 1300 0 
z
" transform="scale(0.015625)"/>
      </defs>
      <use xlink:href="#DejaVuSans-3bd"/>
     </g>
    </g>
   </g>
   <g id="matplotlib.axis_2">
    <g id="ytick_1">
     <g id="line2d_6">
      <defs>
       <path id="mbf95ad6689" d="M 0 0 
L -3.5 0 
" style="stroke: #000000; stroke-width: 0.8"/>
      </defs>
      <g>
       <use xlink:href="#mbf95ad6689" x="36" y="256.32" style="stroke: #000000; stroke-width: 0.8"/>
      </g>
     </g>
     <g id="text_7">
      <!-- −10 -->
      <g transform="translate(7.895312 260.119219) scale(0.1 -0.1)">
       <defs>
        <path id="DejaVuSans-2212" d="M 678 2272 
L 4684 2272 
L 4684 1741 
L 678 1741 
L 678 2272 
z
" transform="scale(0.015625)"/>
       </defs>
       <use xlink:href="#DejaVuSans-2212"/>
       <use xlink:href="#DejaVuSans-31" x="83.789062"/>
       <use xlink:href="#DejaVuSans-30" x="147.412109"/>
      </g>
     </g>
    </g>
    <g id="ytick_2">
     <g id="line2d_7">
      <g>
       <use xlink:href="#mbf95ad6689" x="36" y="211.968" style="stroke: #000000; stroke-width: 0.8"/>
      </g>
     </g>
     <g id="text_8">
      <!-- −8 -->
      <g transform="translate(14.257812 215.767219) scale(0.1 -0.1)">
       <defs>
        <path id="DejaVuSans-38" d="M 2034 2216 
Q 1584 2216 1326 1975 
Q 1069 1734 1069 1313 
Q 1069 891 1326 650 
Q 1584 409 2034 409 
Q 2484 409 2743 651 
Q 3003 894 3003 1313 
Q 3003 1734 2745 1975 
Q 2488 2216 2034 2216 
z
M 1403 2484 
Q 997 2584 770 2862 
Q 544 3141 544 3541 
Q 544 4100 942 4425 
Q 1341 4750 2034 4750 
Q 2731 4750 3128 4425 
Q 3525 4100 3525 3541 
Q 3525 3141 3298 2862 
Q 3072 2584 2669 2484 
Q 3125 2378 3379 2068 
Q 3634 1759 3634 1313 
Q 3634 634 3220 271 
Q 2806 -91 2034 -91 
Q 1263 -91 848 271 
Q 434 634 434 1313 
Q 434 1759 690 2068 
Q 947 2378 1403 2484 
z
M 1172 3481 
Q 1172 3119 1398 2916 
Q 1625 2713 2034 2713 
Q 2441 2713 2670 2916 
Q 2900 3119 2900 3481 
Q 2900 3844 2670 4047 
Q 2441 4250 2034 4250 
Q 1625 4250 1398 4047 
Q 1172 3844 1172 3481 
z
" transform="scale(0.015625)"/>
       </defs>
       <use xlink:href="#DejaVuSans-2212"/>
       <use xlink:href="#DejaVuSans-38" x="83.789062"/>
      </g>
     </g>
    </g>
    <g id="ytick_3">
     <g id="line2d_8">
      <g>
       <use xlink:href="#mbf95ad6689" x="36" y="167.616" style="stroke: #000000; stroke-width: 0.8"/>
      </g>
     </g>
     <g id="text_9">
      <!-- −6 -->
      <g transform="translate(14.257812 171.415219) scale(0.1 -0.1)">
       <defs>
        <path id="DejaVuSans-36" d="M 2113 2584 
Q 1688 2584 1439 2293 
Q 1191 2003 1191 1497 
Q 1191 994 1439 701 
Q 1688 409 2113 409 
Q 2538 409 2786 701 
Q 3034 994 3034 1497 
Q 3034 2003 2786 2293 
Q 2538 2584 2113 2584 
z
M 3366 4563 
L 3366 3988 
Q 3128 4100 2886 4159 
Q 2644 4219 2406 4219 
Q 1781 4219 1451 3797 
Q 1122 3375 1075 2522 
Q 1259 2794 1537 2939 
Q 1816 3084 2150 3084 
Q 2853 3084 3261 2657 
Q 3669 2231 3669 1497 
Q 3669 778 3244 343 
Q 2819 -91 2113 -91 
Q 1303 -91 875 529 
Q 447 1150 447 2328 
Q 447 3434 972 4092 
Q 1497 4750 2381 4750 
Q 2619 4750 2861 4703 
Q 3103 4656 3366 4563 
z
" transform="scale(0.015625)"/>
       </defs>
       <use xlink:href="#DejaVuSans-2212"/>
       <use xlink:href="#DejaVuSans-36" x="83.789062"/>
      </g>
     </g>
    </g>
    <g id="ytick_4">
     <g id="line2d_9">
      <g>
       <use xlink:href="#mbf95ad6689" x="36" y="123.264" style="stroke: #000000; stroke-width: 0.8"/>
      </g>
     </g>
     <g id="text_10">
      <!-- −4 -->
      <g transform="translate(14.257812 127.063219) scale(0.1 -0.1)">
       <use xlink:href="#DejaVuSans-2212"/>
       <use xlink:href="#DejaVuSans-34" x="83.789062"/>
      </g>
     </g>
    </g>
    <g id="ytick_5">
     <g id="line2d_10">
      <g>
       <use xlink:href="#mbf95ad6689" x="36" y="78.912" style="stroke: #000000; stroke-width: 0.8"/>
      </g>
     </g>
     <g id="text_11">
      <!-- −2 -->
      <g transform="translate(14.257812 82.711219) scale(0.1 -0.1)">
       <use xlink:href="#DejaVuSans-2212"/>
       <use xlink:href="#DejaVuSans-32" x="83.789062"/>
      </g>
     </g>
    </g>
    <g id="ytick_6">
     <g id="line2d_11">
      <g>
       <use xlink:href="#mbf95ad6689" x="36" y="34.56" style="stroke: #000000; stroke-width: 0.8"/>
      </g>
     </g>
     <g id="text_12">
      <!-- 0 -->
      <g transform="translate(22.6375 38.359219) scale(0.1 -0.1)">
       <use xlink:href="#DejaVuSans-30"/>
      </g>
     </g>
    </g>
    <g id="text_13">
     <!-- Regularization Value -->
     <g transform="translate(1.399687 206.822812) rotate(-90) scale(0.12 -0.12)">
      <defs>
       <path id="DejaVuSans-52" d="M 2841 2188 
Q 3044 2119 3236 1894 
Q 3428 1669 3622 1275 
L 4263 0 
L 3584 0 
L 2988 1197 
Q 2756 1666 2539 1819 
Q 2322 1972 1947 1972 
L 1259 1972 
L 1259 0 
L 628 0 
L 628 4666 
L 2053 4666 
Q 2853 4666 3247 4331 
Q 3641 3997 3641 3322 
Q 3641 2881 3436 2590 
Q 3231 2300 2841 2188 
z
M 1259 4147 
L 1259 2491 
L 2053 2491 
Q 2509 2491 2742 2702 
Q 2975 2913 2975 3322 
Q 2975 3731 2742 3939 
Q 2509 4147 2053 4147 
L 1259 4147 
z
" transform="scale(0.015625)"/>
       <path id="DejaVuSans-65" d="M 3597 1894 
L 3597 1613 
L 953 1613 
Q 991 1019 1311 708 
Q 1631 397 2203 397 
Q 2534 397 2845 478 
Q 3156 559 3463 722 
L 3463 178 
Q 3153 47 2828 -22 
Q 2503 -91 2169 -91 
Q 1331 -91 842 396 
Q 353 884 353 1716 
Q 353 2575 817 3079 
Q 1281 3584 2069 3584 
Q 2775 3584 3186 3129 
Q 3597 2675 3597 1894 
z
M 3022 2063 
Q 3016 2534 2758 2815 
Q 2500 3097 2075 3097 
Q 1594 3097 1305 2825 
Q 1016 2553 972 2059 
L 3022 2063 
z
" transform="scale(0.015625)"/>
       <path id="DejaVuSans-67" d="M 2906 1791 
Q 2906 2416 2648 2759 
Q 2391 3103 1925 3103 
Q 1463 3103 1205 2759 
Q 947 2416 947 1791 
Q 947 1169 1205 825 
Q 1463 481 1925 481 
Q 2391 481 2648 825 
Q 2906 1169 2906 1791 
z
M 3481 434 
Q 3481 -459 3084 -895 
Q 2688 -1331 1869 -1331 
Q 1566 -1331 1297 -1286 
Q 1028 -1241 775 -1147 
L 775 -588 
Q 1028 -725 1275 -790 
Q 1522 -856 1778 -856 
Q 2344 -856 2625 -561 
Q 2906 -266 2906 331 
L 2906 616 
Q 2728 306 2450 153 
Q 2172 0 1784 0 
Q 1141 0 747 490 
Q 353 981 353 1791 
Q 353 2603 747 3093 
Q 1141 3584 1784 3584 
Q 2172 3584 2450 3431 
Q 2728 3278 2906 2969 
L 2906 3500 
L 3481 3500 
L 3481 434 
z
" transform="scale(0.015625)"/>
       <path id="DejaVuSans-75" d="M 544 1381 
L 544 3500 
L 1119 3500 
L 1119 1403 
Q 1119 906 1312 657 
Q 1506 409 1894 409 
Q 2359 409 2629 706 
Q 2900 1003 2900 1516 
L 2900 3500 
L 3475 3500 
L 3475 0 
L 2900 0 
L 2900 538 
Q 2691 219 2414 64 
Q 2138 -91 1772 -91 
Q 1169 -91 856 284 
Q 544 659 544 1381 
z
M 1991 3584 
L 1991 3584 
z
" transform="scale(0.015625)"/>
       <path id="DejaVuSans-6c" d="M 603 4863 
L 1178 4863 
L 1178 0 
L 603 0 
L 603 4863 
z
" transform="scale(0.015625)"/>
       <path id="DejaVuSans-61" d="M 2194 1759 
Q 1497 1759 1228 1600 
Q 959 1441 959 1056 
Q 959 750 1161 570 
Q 1363 391 1709 391 
Q 2188 391 2477 730 
Q 2766 1069 2766 1631 
L 2766 1759 
L 2194 1759 
z
M 3341 1997 
L 3341 0 
L 2766 0 
L 2766 531 
Q 2569 213 2275 61 
Q 1981 -91 1556 -91 
Q 1019 -91 701 211 
Q 384 513 384 1019 
Q 384 1609 779 1909 
Q 1175 2209 1959 2209 
L 2766 2209 
L 2766 2266 
Q 2766 2663 2505 2880 
Q 2244 3097 1772 3097 
Q 1472 3097 1187 3025 
Q 903 2953 641 2809 
L 641 3341 
Q 956 3463 1253 3523 
Q 1550 3584 1831 3584 
Q 2591 3584 2966 3190 
Q 3341 2797 3341 1997 
z
" transform="scale(0.015625)"/>
       <path id="DejaVuSans-72" d="M 2631 2963 
Q 2534 3019 2420 3045 
Q 2306 3072 2169 3072 
Q 1681 3072 1420 2755 
Q 1159 2438 1159 1844 
L 1159 0 
L 581 0 
L 581 3500 
L 1159 3500 
L 1159 2956 
Q 1341 3275 1631 3429 
Q 1922 3584 2338 3584 
Q 2397 3584 2469 3576 
Q 2541 3569 2628 3553 
L 2631 2963 
z
" transform="scale(0.015625)"/>
       <path id="DejaVuSans-69" d="M 603 3500 
L 1178 3500 
L 1178 0 
L 603 0 
L 603 3500 
z
M 603 4863 
L 1178 4863 
L 1178 4134 
L 603 4134 
L 603 4863 
z
" transform="scale(0.015625)"/>
       <path id="DejaVuSans-7a" d="M 353 3500 
L 3084 3500 
L 3084 2975 
L 922 459 
L 3084 459 
L 3084 0 
L 275 0 
L 275 525 
L 2438 3041 
L 353 3041 
L 353 3500 
z
" transform="scale(0.015625)"/>
       <path id="DejaVuSans-74" d="M 1172 4494 
L 1172 3500 
L 2356 3500 
L 2356 3053 
L 1172 3053 
L 1172 1153 
Q 1172 725 1289 603 
Q 1406 481 1766 481 
L 2356 481 
L 2356 0 
L 1766 0 
Q 1100 0 847 248 
Q 594 497 594 1153 
L 594 3053 
L 172 3053 
L 172 3500 
L 594 3500 
L 594 4494 
L 1172 4494 
z
" transform="scale(0.015625)"/>
       <path id="DejaVuSans-6f" d="M 1959 3097 
Q 1497 3097 1228 2736 
Q 959 2375 959 1747 
Q 959 1119 1226 758 
Q 1494 397 1959 397 
Q 2419 397 2687 759 
Q 2956 1122 2956 1747 
Q 2956 2369 2687 2733 
Q 2419 3097 1959 3097 
z
M 1959 3584 
Q 2709 3584 3137 3096 
Q 3566 2609 3566 1747 
Q 3566 888 3137 398 
Q 2709 -91 1959 -91 
Q 1206 -91 779 398 
Q 353 888 353 1747 
Q 353 2609 779 3096 
Q 1206 3584 1959 3584 
z
" transform="scale(0.015625)"/>
       <path id="DejaVuSans-6e" d="M 3513 2113 
L 3513 0 
L 2938 0 
L 2938 2094 
Q 2938 2591 2744 2837 
Q 2550 3084 2163 3084 
Q 1697 3084 1428 2787 
Q 1159 2491 1159 1978 
L 1159 0 
L 581 0 
L 581 3500 
L 1159 3500 
L 1159 2956 
Q 1366 3272 1645 3428 
Q 1925 3584 2291 3584 
Q 2894 3584 3203 3211 
Q 3513 2838 3513 2113 
z
" transform="scale(0.015625)"/>
       <path id="DejaVuSans-20" transform="scale(0.015625)"/>
       <path id="DejaVuSans-56" d="M 1831 0 
L 50 4666 
L 709 4666 
L 2188 738 
L 3669 4666 
L 4325 4666 
L 2547 0 
L 1831 0 
z
" transform="scale(0.015625)"/>
      </defs>
      <use xlink:href="#DejaVuSans-52"/>
      <use xlink:href="#DejaVuSans-65" x="64.982422"/>
      <use xlink:href="#DejaVuSans-67" x="126.505859"/>
      <use xlink:href="#DejaVuSans-75" x="189.982422"/>
      <use xlink:href="#DejaVuSans-6c" x="253.361328"/>
      <use xlink:href="#DejaVuSans-61" x="281.144531"/>
      <use xlink:href="#DejaVuSans-72" x="342.423828"/>
      <use xlink:href="#DejaVuSans-69" x="383.537109"/>
      <use xlink:href="#DejaVuSans-7a" x="411.320312"/>
      <use xlink:href="#DejaVuSans-61" x="463.810547"/>
      <use xlink:href="#DejaVuSans-74" x="525.089844"/>
      <use xlink:href="#DejaVuSans-69" x="564.298828"/>
      <use xlink:href="#DejaVuSans-6f" x="592.082031"/>
      <use xlink:href="#DejaVuSans-6e" x="653.263672"/>
      <use xlink:href="#DejaVuSans-20" x="716.642578"/>
      <use xlink:href="#DejaVuSans-56" x="748.429688"/>
      <use xlink:href="#DejaVuSans-61" x="809.087891"/>
      <use xlink:href="#DejaVuSans-6c" x="870.367188"/>
      <use xlink:href="#DejaVuSans-75" x="898.150391"/>
      <use xlink:href="#DejaVuSans-65" x="961.529297"/>
     </g>
    </g>
   </g>
   <g id="line2d_12">
    <path clip-path="url(#pf6324e54f8)" style="fill: none; stroke: #1c101c; stroke-width: 1.5; stroke-linecap: square"/>
   </g>
   <g id="line2d_13">
    <path d="M 50.715177 289 
L 50.994292 287.822265 
L 51.897949 284.818307 
L 52.968271 282.116389 
L 54.235999 279.838201 
L 55.737542 278.154459 
L 57.516022 277.304657 
L 59.622517 277.624778 
L 62.117524 279.586171 
L 65.072699 283.850084 
L 67.478037 289 
" clip-path="url(#pf6324e54f8)" style="fill: none; stroke: #2b1c35; stroke-width: 1.5; stroke-linecap: square"/>
   </g>
   <g id="line2d_14">
    <path d="M 46.145455 268.118059 
L 46.154813 264.364442 
L 46.165897 260.610837 
L 46.179026 256.857251 
L 46.194576 253.10369 
L 46.212993 249.350166 
L 46.234808 245.596692 
L 46.260647 241.843289 
L 46.29125 238.089985 
L 46.327498 234.336821 
L 46.370432 230.583853 
L 46.421284 226.831159 
L 46.481515 223.078851 
L 46.552855 219.327082 
L 46.637352 215.576072 
L 46.737434 211.826126 
L 46.855974 208.077672 
L 46.996378 204.33131 
L 47.162677 200.587886 
L 47.359647 196.848581 
L 47.592945 193.115055 
L 47.869272 189.389638 
L 48.196564 185.675594 
L 48.584219 181.977508 
L 49.043372 178.301807 
L 49.58721 174.657511 
L 50.23135 171.057273 
L 50.994292 167.518842 
L 51.897949 164.06712 
L 52.968271 160.737042 
L 54.235999 157.577614 
L 55.737542 154.657592 
L 57.516022 152.073428 
L 59.622517 149.960436 
L 62.117524 148.508443 
L 65.072699 147.98376 
L 68.572914 148.759987 
L 72.718693 151.361245 
L 77.629101 156.522817 
L 83.445162 165.27622 
L 90.333912 179.068559 
L 98.493192 199.929958 
L 108.157333 230.708454 
L 119.603885 275.39952 
L 122.475628 289 
" clip-path="url(#pf6324e54f8)" style="fill: none; stroke: #37284f; stroke-width: 1.5; stroke-linecap: square"/>
   </g>
   <g id="line2d_15">
    <path d="M 46.145455 230.85787 
L 46.154813 227.104238 
L 46.165897 223.350612 
L 46.179026 219.596997 
L 46.194576 215.843395 
L 46.212993 212.089812 
L 46.234808 208.336256 
L 46.260647 204.582739 
L 46.29125 200.829275 
L 46.327498 197.075886 
L 46.370432 193.322601 
L 46.421284 189.569464 
L 46.481515 185.816534 
L 46.552855 182.063893 
L 46.637352 178.311659 
L 46.737434 174.559996 
L 46.855974 170.809133 
L 46.996378 167.059393 
L 47.162677 163.311228 
L 47.359647 159.565273 
L 47.592945 155.822417 
L 47.869272 152.083911 
L 48.196564 148.351506 
L 48.584219 144.627661 
L 49.043372 140.915823 
L 49.58721 137.220831 
L 50.23135 133.549471 
L 50.994292 129.911265 
L 51.897949 126.31957 
L 52.968271 122.793124 
L 54.235999 119.358216 
L 55.737542 116.051725 
L 57.516022 112.92539 
L 59.622517 110.051791 
L 62.117524 107.532753 
L 65.072699 105.511126 
L 68.572914 104.187309 
L 72.718693 103.842441 
L 77.629101 104.87093 
L 83.445162 107.826082 
L 90.333912 113.484127 
L 98.493192 122.934026 
L 108.157333 137.703471 
L 119.603885 159.935641 
L 133.161588 192.637172 
L 149.219814 240.026042 
L 162.919368 289 
" clip-path="url(#pf6324e54f8)" style="fill: none; stroke: #3e356b; stroke-width: 1.5; stroke-linecap: square"/>
   </g>
   <g id="line2d_16">
    <path d="M 46.145455 214.57663 
L 46.154813 210.822991 
L 46.165897 207.069356 
L 46.179026 203.315728 
L 46.194576 199.562108 
L 46.212993 195.8085 
L 46.234808 192.054908 
L 46.260647 188.301341 
L 46.29125 184.547807 
L 46.327498 180.794319 
L 46.370432 177.040897 
L 46.421284 173.287566 
L 46.481515 169.534364 
L 46.552855 165.781342 
L 46.637352 162.028573 
L 46.737434 158.27616 
L 46.855974 154.524244 
L 46.996378 150.773028 
L 47.162677 147.022791 
L 47.359647 143.27393 
L 47.592945 139.526998 
L 47.869272 135.782773 
L 48.196564 132.042345 
L 48.584219 128.307243 
L 49.043372 124.579615 
L 49.58721 120.862471 
L 50.23135 117.160034 
L 50.994292 113.47823 
L 51.897949 109.825372 
L 52.968271 106.213121 
L 54.235999 102.657839 
L 55.737542 99.182477 
L 57.516022 95.819233 
L 59.622517 92.613279 
L 62.117524 89.627985 
L 65.072699 86.952252 
L 68.572914 84.710798 
L 72.718693 83.078589 
L 77.629101 82.301082 
L 83.445162 82.722626 
L 90.333912 84.826304 
L 98.493192 89.289826 
L 108.157333 97.063944 
L 119.603885 109.482456 
L 133.161588 128.416531 
L 149.219814 156.491208 
L 168.239746 197.38912 
L 190.767631 256.27659 
L 201.14689 289 
" clip-path="url(#pf6324e54f8)" style="fill: none; stroke: #414387; stroke-width: 1.5; stroke-linecap: square"/>
   </g>
   <g id="line2d_17">
    <path d="M 46.145455 206.038193 
L 46.154813 202.28455 
L 46.165897 198.530911 
L 46.179026 194.777276 
L 46.194576 191.023646 
L 46.212993 187.270025 
L 46.234808 183.516415 
L 46.260647 179.762821 
L 46.29125 176.00925 
L 46.327498 172.255711 
L 46.370432 168.502216 
L 46.421284 164.748784 
L 46.481515 160.995439 
L 46.552855 157.242217 
L 46.637352 153.489168 
L 46.737434 149.736361 
L 46.855974 145.983894 
L 46.996378 142.231903 
L 47.162677 138.48058 
L 47.359647 134.730195 
L 47.592945 130.981125 
L 47.869272 127.233901 
L 48.196564 123.489265 
L 48.584219 119.74826 
L 49.043372 116.012351 
L 49.58721 112.283589 
L 50.23135 108.564854 
L 50.994292 104.860186 
L 51.897949 101.175252 
L 52.968271 97.518003 
L 54.235999 93.899592 
L 55.737542 90.335668 
L 57.516022 86.848182 
L 59.622517 83.467929 
L 62.117524 80.238114 
L 65.072699 77.219346 
L 68.572914 74.496652 
L 72.718693 72.189317 
L 77.629101 70.464685 
L 83.445162 69.557519 
L 90.333912 69.797165 
L 98.493192 71.645661 
L 108.157333 75.751191 
L 119.603885 83.023088 
L 133.161588 94.737039 
L 149.219814 112.682694 
L 168.239746 139.370729 
L 190.767631 178.323338 
L 217.450457 234.481768 
L 238.908481 289 
" clip-path="url(#pf6324e54f8)" style="fill: none; stroke: #3b5698; stroke-width: 1.5; stroke-linecap: square"/>
   </g>
   <g id="line2d_18">
    <path d="M 46.145455 201.010847 
L 46.154813 197.257203 
L 46.165897 193.503561 
L 46.179026 189.749921 
L 46.194576 185.996286 
L 46.212993 182.242657 
L 46.234808 178.489036 
L 46.260647 174.735427 
L 46.29125 170.981834 
L 46.327498 167.228264 
L 46.370432 163.474727 
L 46.421284 159.721235 
L 46.481515 155.967806 
L 46.552855 152.214467 
L 46.637352 148.461253 
L 46.737434 144.708214 
L 46.855974 140.955422 
L 46.996378 137.202975 
L 47.162677 133.451012 
L 47.359647 129.69973 
L 47.592945 125.949401 
L 47.869272 122.200411 
L 48.196564 118.453298 
L 48.584219 114.708818 
L 49.043372 110.968033 
L 49.58721 107.23243 
L 50.23135 103.504099 
L 50.994292 99.785969 
L 51.897949 96.082149 
L 52.968271 92.398405 
L 54.235999 88.742825 
L 55.737542 85.126756 
L 57.516022 81.566117 
L 59.622517 78.08324 
L 62.117524 74.709453 
L 65.072699 71.488709 
L 68.572914 68.482666 
L 72.718693 65.777824 
L 77.629101 63.495534 
L 83.445162 61.806036 
L 90.333912 60.94816 
L 98.493192 61.256955 
L 108.157333 63.202458 
L 119.603885 67.444079 
L 133.161588 74.906894 
L 149.219814 86.888684 
L 168.239746 105.210086 
L 190.767631 132.425252 
L 217.450457 172.117367 
L 249.054545 229.313239 
" clip-path="url(#pf6324e54f8)" style="fill: none; stroke: #36699f; stroke-width: 1.5; stroke-linecap: square"/>
   </g>
   <g id="line2d_19">
    <path d="M 46.145455 197.803534 
L 46.154813 194.049888 
L 46.165897 190.296244 
L 46.179026 186.542602 
L 46.194576 182.788963 
L 46.212993 179.035329 
L 46.234808 175.281701 
L 46.260647 171.528082 
L 46.29125 167.774476 
L 46.327498 164.020887 
L 46.370432 160.267322 
L 46.421284 156.513792 
L 46.481515 152.76031 
L 46.552855 149.006895 
L 46.637352 145.253576 
L 46.737434 141.500389 
L 46.855974 137.747389 
L 46.996378 133.994652 
L 47.162677 130.242281 
L 47.359647 126.490426 
L 47.592945 122.739295 
L 47.869272 118.989178 
L 48.196564 115.240484 
L 48.584219 111.493787 
L 49.043372 107.749891 
L 49.58721 104.009925 
L 50.23135 100.275472 
L 50.994292 96.548753 
L 51.897949 92.832884 
L 52.968271 89.132237 
L 54.235999 85.452944 
L 55.737542 81.803608 
L 57.516022 78.1963 
L 59.622517 74.64795 
L 62.117524 71.182314 
L 65.072699 67.832714 
L 68.572914 64.645902 
L 72.718693 61.687461 
L 77.629101 59.0494 
L 83.445162 56.860796 
L 90.333912 55.302729 
L 98.493192 54.629235 
L 108.157333 55.196698 
L 119.603885 57.505083 
L 133.161588 62.255786 
L 149.219814 70.432787 
L 168.239746 83.416499 
L 190.767631 103.143486 
L 217.450457 132.330528 
L 249.054545 174.788965 
" clip-path="url(#pf6324e54f8)" style="fill: none; stroke: #357ba3; stroke-width: 1.5; stroke-linecap: square"/>
   </g>
   <g id="line2d_20">
    <path d="M 46.145455 195.633049 
L 46.154813 191.879402 
L 46.165897 188.125757 
L 46.179026 184.372113 
L 46.194576 180.618472 
L 46.212993 176.864834 
L 46.234808 173.111202 
L 46.260647 169.357576 
L 46.29125 165.60396 
L 46.327498 161.850358 
L 46.370432 158.096775 
L 46.421284 154.343219 
L 46.481515 150.589701 
L 46.552855 146.836235 
L 46.637352 143.082844 
L 46.737434 139.329558 
L 46.855974 135.576418 
L 46.996378 131.823483 
L 47.162677 128.070837 
L 47.359647 124.318594 
L 47.592945 120.566919 
L 47.869272 116.81604 
L 48.196564 113.066276 
L 48.584219 109.318079 
L 49.043372 105.572078 
L 49.58721 101.829159 
L 50.23135 98.090563 
L 50.994292 94.358032 
L 51.897949 90.634009 
L 52.968271 86.921923 
L 54.235999 83.226583 
L 55.737542 79.554735 
L 57.516022 75.915843 
L 59.622517 72.323187 
L 62.117524 68.795393 
L 65.072699 65.358593 
L 68.572914 62.049449 
L 72.718693 58.91939 
L 77.629101 56.040568 
L 83.445162 53.514203 
L 90.333912 51.482296 
L 98.493192 50.144058 
L 108.157333 49.77896 
L 119.603885 50.779067 
L 133.161588 53.694402 
L 149.219814 59.296589 
L 168.239746 68.668126 
L 190.767631 83.327638 
L 217.450457 105.405582 
L 249.054545 137.890754 
" clip-path="url(#pf6324e54f8)" style="fill: none; stroke: #348da7; stroke-width: 1.5; stroke-linecap: square"/>
   </g>
   <g id="line2d_21">
    <path d="M 46.145455 194.096272 
L 46.154813 190.342625 
L 46.165897 186.588978 
L 46.179026 182.835334 
L 46.194576 179.081691 
L 46.212993 175.328051 
L 46.234808 171.574415 
L 46.260647 167.820784 
L 46.29125 164.067162 
L 46.327498 160.31355 
L 46.370432 156.559954 
L 46.421284 152.80638 
L 46.481515 149.052836 
L 46.552855 145.299335 
L 46.637352 141.545893 
L 46.737434 137.792536 
L 46.855974 134.039297 
L 46.996378 130.286223 
L 47.162677 126.533381 
L 47.359647 122.780864 
L 47.592945 119.028804 
L 47.869272 115.277385 
L 48.196564 111.526864 
L 48.584219 107.777604 
L 49.043372 104.030113 
L 49.58721 100.285102 
L 50.23135 96.543573 
L 50.994292 92.806927 
L 51.897949 89.077131 
L 52.968271 85.356946 
L 54.235999 81.650244 
L 55.737542 77.962456 
L 57.516022 74.301203 
L 59.622517 70.677176 
L 62.117524 67.105372 
L 65.072699 63.606832 
L 68.572914 60.211072 
L 72.718693 56.959502 
L 77.629101 53.910213 
L 83.445162 51.144702 
L 90.333912 48.777301 
L 98.493192 46.968402 
L 108.157333 45.943018 
L 119.603885 46.01682 
L 133.161588 47.632653 
L 149.219814 51.411785 
L 168.239746 58.22578 
L 190.767631 69.297348 
L 217.450457 86.341811 
L 249.054545 111.765574 
" clip-path="url(#pf6324e54f8)" style="fill: none; stroke: #359fab; stroke-width: 1.5; stroke-linecap: square"/>
   </g>
   <g id="line2d_22">
    <path d="M 46.145455 192.968532 
L 46.154813 189.214884 
L 46.165897 185.461237 
L 46.179026 181.707591 
L 46.194576 177.953947 
L 46.212993 174.200305 
L 46.234808 170.446667 
L 46.260647 166.693033 
L 46.29125 162.939406 
L 46.327498 159.185787 
L 46.370432 155.432182 
L 46.421284 151.678594 
L 46.481515 147.925031 
L 46.552855 144.171504 
L 46.637352 140.418025 
L 46.737434 136.664616 
L 46.855974 132.911304 
L 46.996378 129.158127 
L 47.162677 125.405142 
L 47.359647 121.652424 
L 47.592945 117.900082 
L 47.869272 114.148266 
L 48.196564 110.39719 
L 48.584219 106.64715 
L 49.043372 102.898565 
L 49.58721 99.15202 
L 50.23135 95.408338 
L 50.994292 91.668672 
L 51.897949 87.93464 
L 52.968271 84.208512 
L 54.235999 80.493471 
L 55.737542 76.793987 
L 57.516022 73.116324 
L 59.622517 69.469276 
L 62.117524 65.865176 
L 65.072699 62.321328 
L 68.572914 58.862007 
L 72.718693 55.521268 
L 77.629101 52.346884 
L 83.445162 49.40588 
L 90.333912 46.792281 
L 98.493192 44.637994 
L 108.157333 43.128071 
L 119.603885 42.522117 
L 133.161588 43.18433 
L 149.219814 45.62564 
L 168.239746 50.562822 
L 190.767631 59.001432 
L 217.450457 72.352151 
L 249.054545 92.594007 
" clip-path="url(#pf6324e54f8)" style="fill: none; stroke: #3cb1ad; stroke-width: 1.5; stroke-linecap: square"/>
   </g>
   <g id="line2d_23">
    <path d="M 46.145455 192.116568 
L 46.154813 188.36292 
L 46.165897 184.609272 
L 46.179026 180.855626 
L 46.194576 177.101981 
L 46.212993 173.348338 
L 46.234808 169.594697 
L 46.260647 165.841061 
L 46.29125 162.08743 
L 46.327498 158.333806 
L 46.370432 154.580194 
L 46.421284 150.826596 
L 46.481515 147.073019 
L 46.552855 143.319471 
L 46.637352 139.565965 
L 46.737434 135.812516 
L 46.855974 132.059149 
L 46.996378 128.305895 
L 47.162677 124.552801 
L 47.359647 120.799931 
L 47.592945 117.047376 
L 47.869272 113.295261 
L 48.196564 109.543765 
L 48.584219 105.793136 
L 49.043372 102.043725 
L 49.58721 98.296021 
L 50.23135 94.550713 
L 50.994292 90.808765 
L 51.897949 87.071533 
L 52.968271 83.340914 
L 54.235999 79.619575 
L 55.737542 75.911253 
L 57.516022 72.221194 
L 59.622517 68.556754 
L 62.117524 64.928256 
L 65.072699 61.350181 
L 68.572914 57.842842 
L 72.718693 54.434738 
L 77.629101 51.165851 
L 83.445162 48.092268 
L 90.333912 45.292676 
L 98.493192 42.877463 
L 108.157333 41.001488 
L 119.603885 39.882006 
L 133.161588 39.823797 
L 149.219814 41.254434 
L 168.239746 44.773757 
L 190.767631 51.22327 
L 217.450457 61.783509 
L 249.054545 78.110637 
" clip-path="url(#pf6324e54f8)" style="fill: none; stroke: #4bc2ad; stroke-width: 1.5; stroke-linecap: square"/>
   </g>
   <g id="line2d_24">
    <path d="M 46.145455 191.457279 
L 46.154813 187.70363 
L 46.165897 183.949983 
L 46.179026 180.196336 
L 46.194576 176.44269 
L 46.212993 172.689046 
L 46.234808 168.935404 
L 46.260647 165.181766 
L 46.29125 161.428132 
L 46.327498 157.674504 
L 46.370432 153.920886 
L 46.421284 150.16728 
L 46.481515 146.413692 
L 46.552855 142.660129 
L 46.637352 138.906601 
L 46.737434 135.153122 
L 46.855974 131.399712 
L 46.996378 127.646399 
L 47.162677 123.893221 
L 47.359647 120.140233 
L 47.592945 116.387513 
L 47.869272 112.635166 
L 48.196564 108.883345 
L 48.584219 105.132261 
L 49.043372 101.38221 
L 49.58721 97.633609 
L 50.23135 93.887042 
L 50.994292 90.14333 
L 51.897949 86.40362 
L 52.968271 82.669527 
L 54.235999 78.943314 
L 55.737542 75.228154 
L 57.516022 71.528501 
L 59.622517 67.850603 
L 62.117524 64.203225 
L 65.072699 60.598662 
L 68.572914 57.054164 
L 72.718693 53.593931 
L 77.629101 50.251912 
L 83.445162 47.075734 
L 90.333912 44.132213 
L 98.493192 41.515082 
L 108.157333 39.35584 
L 119.603885 37.838966 
L 133.161588 37.22326 
L 149.219814 37.871793 
L 168.239746 40.293911 
L 190.767631 45.204168 
L 217.450457 53.605006 
L 249.054545 66.902735 
" clip-path="url(#pf6324e54f8)" style="fill: none; stroke: #6ad2ad; stroke-width: 1.5; stroke-linecap: square"/>
   </g>
   <g id="line2d_25">
    <path d="M 46.145455 190.93666 
L 46.154813 187.183012 
L 46.165897 183.429364 
L 46.179026 179.675716 
L 46.194576 175.92207 
L 46.212993 172.168425 
L 46.234808 168.414782 
L 46.260647 164.661142 
L 46.29125 160.907506 
L 46.327498 157.153875 
L 46.370432 153.400252 
L 46.421284 149.646641 
L 46.481515 145.893044 
L 46.552855 142.139469 
L 46.637352 138.385924 
L 46.737434 134.632421 
L 46.855974 130.878977 
L 46.996378 127.125616 
L 47.162677 123.372372 
L 47.359647 119.619292 
L 47.592945 115.866441 
L 47.869272 112.113912 
L 48.196564 108.361834 
L 48.584219 104.610389 
L 49.043372 100.859834 
L 49.58721 97.110525 
L 50.23135 93.362964 
L 50.994292 89.617857 
L 51.897949 85.876192 
L 52.968271 82.139355 
L 54.235999 78.409293 
L 55.737542 74.688733 
L 57.516022 70.981505 
L 59.622517 67.292979 
L 62.117524 63.630691 
L 65.072699 60.005212 
L 68.572914 56.431372 
L 72.718693 52.929974 
L 77.629101 49.530206 
L 83.445162 46.273012 
L 90.333912 43.215833 
L 98.493192 40.439255 
L 108.157333 38.056327 
L 119.603885 36.225645 
L 133.161588 35.169703 
L 149.219814 35.200634 
L 168.239746 36.756326 
L 190.767631 40.451085 
L 217.450457 47.146715 
L 249.054545 58.05223 
" clip-path="url(#pf6324e54f8)" style="fill: none; stroke: #99ddb6; stroke-width: 1.5; stroke-linecap: square"/>
   </g>
   <g id="line2d_26">
    <path d="M 46.145455 190.518384 
L 46.154813 186.764735 
L 46.165897 183.011087 
L 46.179026 179.257439 
L 46.194576 175.503792 
L 46.212993 171.750147 
L 46.234808 167.996503 
L 46.260647 164.242861 
L 46.29125 160.489224 
L 46.327498 156.73559 
L 46.370432 152.981964 
L 46.421284 149.228347 
L 46.481515 145.474743 
L 46.552855 141.721158 
L 46.637352 137.9676 
L 46.737434 134.214077 
L 46.855974 130.460607 
L 46.996378 126.707208 
L 47.162677 122.953911 
L 47.359647 119.200756 
L 47.592945 115.4478 
L 47.869272 111.695124 
L 48.196564 107.94284 
L 48.584219 104.191106 
L 49.043372 100.440145 
L 49.58721 96.690267 
L 50.23135 92.941908 
L 50.994292 89.195681 
L 51.897949 85.452444 
L 52.968271 81.713403 
L 54.235999 77.980248 
L 55.737542 74.25535 
L 57.516022 70.542035 
L 59.622517 66.844971 
L 62.117524 63.170705 
L 65.072699 59.528422 
L 68.572914 55.931006 
L 72.718693 52.396536 
L 77.629101 48.95037 
L 83.445162 45.628086 
L 90.333912 42.479594 
L 98.493192 39.574912 
L 108.157333 37.012269 
L 119.603885 34.929467 
L 133.161588 33.51983 
L 149.219814 33.054565 
L 168.239746 33.914151 
L 190.767631 36.632351 
L 217.450457 41.95798 
L 249.054545 50.941536 
" clip-path="url(#pf6324e54f8)" style="fill: none; stroke: #c0e9cc; stroke-width: 1.5; stroke-linecap: square"/>
   </g>
   <g id="patch_3">
    <path d="M 36 256.32 
L 36 34.56 
" style="fill: none; stroke: #000000; stroke-width: 0.8; stroke-linejoin: miter; stroke-linecap: square"/>
   </g>
   <g id="patch_4">
    <path d="M 36 256.32 
L 259.2 256.32 
" style="fill: none; stroke: #000000; stroke-width: 0.8; stroke-linejoin: miter; stroke-linecap: square"/>
   </g>
  </g>
 </g>
 <defs>
  <clipPath id="pf6324e54f8">
   <rect x="36" y="34.56" width="223.2" height="221.76"/>
  </clipPath>
 </defs>
</svg>
