<?xml version="1.0" encoding="utf-8" standalone="no"?>
<!DOCTYPE svg PUBLIC "-//W3C//DTD SVG 1.1//EN"
  "http://www.w3.org/Graphics/SVG/1.1/DTD/svg11.dtd">
<svg xmlns:xlink="http://www.w3.org/1999/xlink" width="349.2pt" height="102.318125pt" viewBox="0 0 349.2 102.318125" xmlns="http://www.w3.org/2000/svg" version="1.1">
 <metadata>
  <rdf:RDF xmlns:dc="http://purl.org/dc/elements/1.1/" xmlns:cc="http://creativecommons.org/ns#" xmlns:rdf="http://www.w3.org/1999/02/22-rdf-syntax-ns#">
   <cc:Work>
    <dc:type rdf:resource="http://purl.org/dc/dcmitype/StillImage"/>
    <dc:date>2023-01-31T11:22:48.354144</dc:date>
    <dc:format>image/svg+xml</dc:format>
    <dc:creator>
     <cc:Agent>
      <dc:title>Matplotlib v3.6.3, https://matplotlib.org/</dc:title>
     </cc:Agent>
    </dc:creator>
   </cc:Work>
  </rdf:RDF>
 </metadata>
 <defs>
  <style type="text/css">*{stroke-linejoin: round; stroke-linecap: butt}</style>
 </defs>
 <g id="figure_1">
  <g id="patch_1">
   <path d="M 0 102.318125 
L 349.2 102.318125 
L 349.2 0 
L 0 0 
z
" style="fill: #ffffff"/>
  </g>
  <g id="axes_1">
   <g id="patch_2">
    <path d="M 7.2 91.618125 
L 342 91.618125 
L 342 22.318125 
L 7.2 22.318125 
z
" style="fill: #ffffff"/>
   </g>
   <g id="patch_3">
    <path d="M 22.418182 91.618125 
L 25.588636 91.618125 
L 25.588636 91.124702 
L 22.418182 91.124702 
z
" clip-path="url(#p194a31af00)" style="fill: #00ffff; stroke: #ffffff; stroke-linejoin: miter"/>
   </g>
   <g id="patch_4">
    <path d="M 25.588636 91.618125 
L 28.759091 91.618125 
L 28.759091 91.121281 
L 25.588636 91.121281 
z
" clip-path="url(#p194a31af00)" style="fill: #00ffff; stroke: #ffffff; stroke-linejoin: miter"/>
   </g>
   <g id="patch_5">
    <path d="M 28.759091 91.618125 
L 31.929545 91.618125 
L 31.929545 91.530765 
L 28.759091 91.530765 
z
" clip-path="url(#p194a31af00)" style="fill: #00ffff; stroke: #ffffff; stroke-linejoin: miter"/>
   </g>
   <g id="patch_6">
    <path d="M 31.929545 91.618125 
L 35.1 91.618125 
L 35.1 91.306336 
L 31.929545 91.306336 
z
" clip-path="url(#p194a31af00)" style="fill: #00ffff; stroke: #ffffff; stroke-linejoin: miter"/>
   </g>
   <g id="patch_7">
    <path d="M 35.1 91.618125 
L 38.270455 91.618125 
L 38.270455 91.001597 
L 35.1 91.001597 
z
" clip-path="url(#p194a31af00)" style="fill: #00ffff; stroke: #ffffff; stroke-linejoin: miter"/>
   </g>
   <g id="patch_8">
    <path d="M 38.270455 91.618125 
L 41.440909 91.618125 
L 41.440909 91.139678 
L 38.270455 91.139678 
z
" clip-path="url(#p194a31af00)" style="fill: #00ffff; stroke: #ffffff; stroke-linejoin: miter"/>
   </g>
   <g id="patch_9">
    <path d="M 41.440909 91.618125 
L 44.611364 91.618125 
L 44.611364 90.788756 
L 41.440909 90.788756 
z
" clip-path="url(#p194a31af00)" style="fill: #00ffff; stroke: #ffffff; stroke-linejoin: miter"/>
   </g>
   <g id="patch_10">
    <path d="M 44.611364 91.618125 
L 47.781818 91.618125 
L 47.781818 91.068299 
L 44.611364 91.068299 
z
" clip-path="url(#p194a31af00)" style="fill: #00ffff; stroke: #ffffff; stroke-linejoin: miter"/>
   </g>
   <g id="patch_11">
    <path d="M 47.781818 91.618125 
L 50.952273 91.618125 
L 50.952273 90.776997 
L 47.781818 90.776997 
z
" clip-path="url(#p194a31af00)" style="fill: #00ffff; stroke: #ffffff; stroke-linejoin: miter"/>
   </g>
   <g id="patch_12">
    <path d="M 50.952273 91.618125 
L 54.122727 91.618125 
L 54.122727 91.035954 
L 50.952273 91.035954 
z
" clip-path="url(#p194a31af00)" style="fill: #00ffff; stroke: #ffffff; stroke-linejoin: miter"/>
   </g>
   <g id="patch_13">
    <path d="M 54.122727 91.618125 
L 57.293182 91.618125 
L 57.293182 90.617563 
L 54.122727 90.617563 
z
" clip-path="url(#p194a31af00)" style="fill: #00ffff; stroke: #ffffff; stroke-linejoin: miter"/>
   </g>
   <g id="patch_14">
    <path d="M 57.293182 91.618125 
L 60.463636 91.618125 
L 60.463636 90.761811 
L 57.293182 90.761811 
z
" clip-path="url(#p194a31af00)" style="fill: #00ffff; stroke: #ffffff; stroke-linejoin: miter"/>
   </g>
   <g id="patch_15">
    <path d="M 60.463636 91.618125 
L 63.634091 91.618125 
L 63.634091 91.106063 
L 60.463636 91.106063 
z
" clip-path="url(#p194a31af00)" style="fill: #00ffff; stroke: #ffffff; stroke-linejoin: miter"/>
   </g>
   <g id="patch_16">
    <path d="M 63.634091 91.618125 
L 66.804545 91.618125 
L 66.804545 91.255894 
L 63.634091 91.255894 
z
" clip-path="url(#p194a31af00)" style="fill: #00ffff; stroke: #ffffff; stroke-linejoin: miter"/>
   </g>
   <g id="patch_17">
    <path d="M 66.804545 91.618125 
L 69.975 91.618125 
L 69.975 90.491958 
L 66.804545 90.491958 
z
" clip-path="url(#p194a31af00)" style="fill: #00ffff; stroke: #ffffff; stroke-linejoin: miter"/>
   </g>
   <g id="patch_18">
    <path d="M 69.975 91.618125 
L 73.145455 91.618125 
L 73.145455 90.75753 
L 69.975 90.75753 
z
" clip-path="url(#p194a31af00)" style="fill: #00ffff; stroke: #ffffff; stroke-linejoin: miter"/>
   </g>
   <g id="patch_19">
    <path d="M 73.145455 91.618125 
L 76.315909 91.618125 
L 76.315909 91.497699 
L 73.145455 91.497699 
z
" clip-path="url(#p194a31af00)" style="stroke: #ffffff; stroke-linejoin: miter"/>
   </g>
   <g id="patch_20">
    <path d="M 76.315909 91.618125 
L 79.486364 91.618125 
L 79.486364 91.419915 
L 76.315909 91.419915 
z
" clip-path="url(#p194a31af00)" style="stroke: #ffffff; stroke-linejoin: miter"/>
   </g>
   <g id="patch_21">
    <path d="M 79.486364 91.618125 
L 82.656818 91.618125 
L 82.656818 91.530616 
L 79.486364 91.530616 
z
" clip-path="url(#p194a31af00)" style="stroke: #ffffff; stroke-linejoin: miter"/>
   </g>
   <g id="patch_22">
    <path d="M 82.656818 91.618125 
L 85.827273 91.618125 
L 85.827273 91.493815 
L 82.656818 91.493815 
z
" clip-path="url(#p194a31af00)" style="stroke: #ffffff; stroke-linejoin: miter"/>
   </g>
   <g id="patch_23">
    <path d="M 85.827273 91.618125 
L 88.997727 91.618125 
L 88.997727 91.528815 
L 85.827273 91.528815 
z
" clip-path="url(#p194a31af00)" style="stroke: #ffffff; stroke-linejoin: miter"/>
   </g>
   <g id="patch_24">
    <path d="M 88.997727 91.618125 
L 92.168182 91.618125 
L 92.168182 91.390668 
L 88.997727 91.390668 
z
" clip-path="url(#p194a31af00)" style="stroke: #ffffff; stroke-linejoin: miter"/>
   </g>
   <g id="patch_25">
    <path d="M 92.168182 91.618125 
L 95.338636 91.618125 
L 95.338636 91.483908 
L 92.168182 91.483908 
z
" clip-path="url(#p194a31af00)" style="stroke: #ffffff; stroke-linejoin: miter"/>
   </g>
   <g id="patch_26">
    <path d="M 95.338636 91.618125 
L 98.509091 91.618125 
L 98.509091 91.446467 
L 95.338636 91.446467 
z
" clip-path="url(#p194a31af00)" style="stroke: #ffffff; stroke-linejoin: miter"/>
   </g>
   <g id="patch_27">
    <path d="M 98.509091 91.618125 
L 101.679545 91.618125 
L 101.679545 91.572438 
L 98.509091 91.572438 
z
" clip-path="url(#p194a31af00)" style="stroke: #ffffff; stroke-linejoin: miter"/>
   </g>
   <g id="patch_28">
    <path d="M 101.679545 91.618125 
L 104.85 91.618125 
L 104.85 91.489201 
L 101.679545 91.489201 
z
" clip-path="url(#p194a31af00)" style="stroke: #ffffff; stroke-linejoin: miter"/>
   </g>
   <g id="patch_29">
    <path d="M 104.85 91.618125 
L 108.020455 91.618125 
L 108.020455 91.52921 
L 104.85 91.52921 
z
" clip-path="url(#p194a31af00)" style="stroke: #ffffff; stroke-linejoin: miter"/>
   </g>
   <g id="patch_30">
    <path d="M 108.020455 91.618125 
L 111.190909 91.618125 
L 111.190909 91.378319 
L 108.020455 91.378319 
z
" clip-path="url(#p194a31af00)" style="stroke: #ffffff; stroke-linejoin: miter"/>
   </g>
   <g id="patch_31">
    <path d="M 111.190909 91.618125 
L 114.361364 91.618125 
L 114.361364 91.500135 
L 111.190909 91.500135 
z
" clip-path="url(#p194a31af00)" style="stroke: #ffffff; stroke-linejoin: miter"/>
   </g>
   <g id="patch_32">
    <path d="M 114.361364 91.618125 
L 117.531818 91.618125 
L 117.531818 91.470343 
L 114.361364 91.470343 
z
" clip-path="url(#p194a31af00)" style="stroke: #ffffff; stroke-linejoin: miter"/>
   </g>
   <g id="patch_33">
    <path d="M 117.531818 91.618125 
L 120.702273 91.618125 
L 120.702273 91.172755 
L 117.531818 91.172755 
z
" clip-path="url(#p194a31af00)" style="stroke: #ffffff; stroke-linejoin: miter"/>
   </g>
   <g id="patch_34">
    <path d="M 120.702273 91.618125 
L 123.872727 91.618125 
L 123.872727 91.186447 
L 120.702273 91.186447 
z
" clip-path="url(#p194a31af00)" style="stroke: #ffffff; stroke-linejoin: miter"/>
   </g>
   <g id="patch_35">
    <path d="M 123.872727 91.618125 
L 127.043182 91.618125 
L 127.043182 91.122708 
L 123.872727 91.122708 
z
" clip-path="url(#p194a31af00)" style="fill: #ff0000; stroke: #ffffff; stroke-linejoin: miter"/>
   </g>
   <g id="patch_36">
    <path d="M 127.043182 91.618125 
L 130.213636 91.618125 
L 130.213636 91.263391 
L 127.043182 91.263391 
z
" clip-path="url(#p194a31af00)" style="fill: #ff0000; stroke: #ffffff; stroke-linejoin: miter"/>
   </g>
   <g id="patch_37">
    <path d="M 130.213636 91.618125 
L 133.384091 91.618125 
L 133.384091 84.430568 
L 130.213636 84.430568 
z
" clip-path="url(#p194a31af00)" style="fill: #ff0000; stroke: #ffffff; stroke-linejoin: miter"/>
   </g>
   <g id="patch_38">
    <path d="M 133.384091 91.618125 
L 136.554545 91.618125 
L 136.554545 91.443998 
L 133.384091 91.443998 
z
" clip-path="url(#p194a31af00)" style="fill: #ff0000; stroke: #ffffff; stroke-linejoin: miter"/>
   </g>
   <g id="patch_39">
    <path d="M 136.554545 91.618125 
L 139.725 91.618125 
L 139.725 91.182911 
L 136.554545 91.182911 
z
" clip-path="url(#p194a31af00)" style="fill: #ff0000; stroke: #ffffff; stroke-linejoin: miter"/>
   </g>
   <g id="patch_40">
    <path d="M 139.725 91.618125 
L 142.895455 91.618125 
L 142.895455 91.062129 
L 139.725 91.062129 
z
" clip-path="url(#p194a31af00)" style="fill: #ff0000; stroke: #ffffff; stroke-linejoin: miter"/>
   </g>
   <g id="patch_41">
    <path d="M 142.895455 91.618125 
L 146.065909 91.618125 
L 146.065909 82.75966 
L 142.895455 82.75966 
z
" clip-path="url(#p194a31af00)" style="fill: #ff0000; stroke: #ffffff; stroke-linejoin: miter"/>
   </g>
   <g id="patch_42">
    <path d="M 146.065909 91.618125 
L 149.236364 91.618125 
L 149.236364 91.257264 
L 146.065909 91.257264 
z
" clip-path="url(#p194a31af00)" style="fill: #ff0000; stroke: #ffffff; stroke-linejoin: miter"/>
   </g>
   <g id="patch_43">
    <path d="M 149.236364 91.618125 
L 152.406818 91.618125 
L 152.406818 91.246395 
L 149.236364 91.246395 
z
" clip-path="url(#p194a31af00)" style="fill: #ff0000; stroke: #ffffff; stroke-linejoin: miter"/>
   </g>
   <g id="patch_44">
    <path d="M 152.406818 91.618125 
L 155.577273 91.618125 
L 155.577273 90.947301 
L 152.406818 90.947301 
z
" clip-path="url(#p194a31af00)" style="fill: #ff0000; stroke: #ffffff; stroke-linejoin: miter"/>
   </g>
   <g id="patch_45">
    <path d="M 155.577273 91.618125 
L 158.747727 91.618125 
L 158.747727 70.743807 
L 155.577273 70.743807 
z
" clip-path="url(#p194a31af00)" style="fill: #ff0000; stroke: #ffffff; stroke-linejoin: miter"/>
   </g>
   <g id="patch_46">
    <path d="M 158.747727 91.618125 
L 161.918182 91.618125 
L 161.918182 91.314003 
L 158.747727 91.314003 
z
" clip-path="url(#p194a31af00)" style="fill: #ff0000; stroke: #ffffff; stroke-linejoin: miter"/>
   </g>
   <g id="patch_47">
    <path d="M 161.918182 91.618125 
L 165.088636 91.618125 
L 165.088636 91.012157 
L 161.918182 91.012157 
z
" clip-path="url(#p194a31af00)" style="fill: #ff0000; stroke: #ffffff; stroke-linejoin: miter"/>
   </g>
   <g id="patch_48">
    <path d="M 165.088636 91.618125 
L 168.259091 91.618125 
L 168.259091 90.726593 
L 165.088636 90.726593 
z
" clip-path="url(#p194a31af00)" style="fill: #ff0000; stroke: #ffffff; stroke-linejoin: miter"/>
   </g>
   <g id="patch_49">
    <path d="M 168.259091 91.618125 
L 171.429545 91.618125 
L 171.429545 87.94586 
L 168.259091 87.94586 
z
" clip-path="url(#p194a31af00)" style="fill: #ff0000; stroke: #ffffff; stroke-linejoin: miter"/>
   </g>
   <g id="patch_50">
    <path d="M 171.429545 91.618125 
L 174.6 91.618125 
L 174.6 90.763159 
L 171.429545 90.763159 
z
" clip-path="url(#p194a31af00)" style="fill: #ff0000; stroke: #ffffff; stroke-linejoin: miter"/>
   </g>
   <g id="patch_51">
    <path d="M 174.6 91.618125 
L 177.770455 91.618125 
L 177.770455 91.407639 
L 174.6 91.407639 
z
" clip-path="url(#p194a31af00)" style="fill: #d3d3d3; stroke: #ffffff; stroke-linejoin: miter"/>
   </g>
   <g id="patch_52">
    <path d="M 177.770455 91.618125 
L 180.940909 91.618125 
L 180.940909 91.348982 
L 177.770455 91.348982 
z
" clip-path="url(#p194a31af00)" style="fill: #d3d3d3; stroke: #ffffff; stroke-linejoin: miter"/>
   </g>
   <g id="patch_53">
    <path d="M 180.940909 91.618125 
L 184.111364 91.618125 
L 184.111364 91.531672 
L 180.940909 91.531672 
z
" clip-path="url(#p194a31af00)" style="fill: #d3d3d3; stroke: #ffffff; stroke-linejoin: miter"/>
   </g>
   <g id="patch_54">
    <path d="M 184.111364 91.618125 
L 187.281818 91.618125 
L 187.281818 90.970313 
L 184.111364 90.970313 
z
" clip-path="url(#p194a31af00)" style="fill: #d3d3d3; stroke: #ffffff; stroke-linejoin: miter"/>
   </g>
   <g id="patch_55">
    <path d="M 187.281818 91.618125 
L 190.452273 91.618125 
L 190.452273 91.179474 
L 187.281818 91.179474 
z
" clip-path="url(#p194a31af00)" style="fill: #d3d3d3; stroke: #ffffff; stroke-linejoin: miter"/>
   </g>
   <g id="patch_56">
    <path d="M 190.452273 91.618125 
L 193.622727 91.618125 
L 193.622727 88.589473 
L 190.452273 88.589473 
z
" clip-path="url(#p194a31af00)" style="fill: #d3d3d3; stroke: #ffffff; stroke-linejoin: miter"/>
   </g>
   <g id="patch_57">
    <path d="M 193.622727 91.618125 
L 196.793182 91.618125 
L 196.793182 90.679058 
L 193.622727 90.679058 
z
" clip-path="url(#p194a31af00)" style="fill: #d3d3d3; stroke: #ffffff; stroke-linejoin: miter"/>
   </g>
   <g id="patch_58">
    <path d="M 196.793182 91.618125 
L 199.963636 91.618125 
L 199.963636 85.19371 
L 196.793182 85.19371 
z
" clip-path="url(#p194a31af00)" style="fill: #d3d3d3; stroke: #ffffff; stroke-linejoin: miter"/>
   </g>
   <g id="patch_59">
    <path d="M 199.963636 91.618125 
L 203.134091 91.618125 
L 203.134091 91.548872 
L 199.963636 91.548872 
z
" clip-path="url(#p194a31af00)" style="fill: #d3d3d3; stroke: #ffffff; stroke-linejoin: miter"/>
   </g>
   <g id="patch_60">
    <path d="M 203.134091 91.618125 
L 206.304545 91.618125 
L 206.304545 90.48339 
L 203.134091 90.48339 
z
" clip-path="url(#p194a31af00)" style="fill: #d3d3d3; stroke: #ffffff; stroke-linejoin: miter"/>
   </g>
   <g id="patch_61">
    <path d="M 206.304545 91.618125 
L 209.475 91.618125 
L 209.475 91.173217 
L 206.304545 91.173217 
z
" clip-path="url(#p194a31af00)" style="fill: #d3d3d3; stroke: #ffffff; stroke-linejoin: miter"/>
   </g>
   <g id="patch_62">
    <path d="M 209.475 91.618125 
L 212.645455 91.618125 
L 212.645455 89.652474 
L 209.475 89.652474 
z
" clip-path="url(#p194a31af00)" style="fill: #d3d3d3; stroke: #ffffff; stroke-linejoin: miter"/>
   </g>
   <g id="patch_63">
    <path d="M 212.645455 91.618125 
L 215.815909 91.618125 
L 215.815909 91.196254 
L 212.645455 91.196254 
z
" clip-path="url(#p194a31af00)" style="fill: #d3d3d3; stroke: #ffffff; stroke-linejoin: miter"/>
   </g>
   <g id="patch_64">
    <path d="M 215.815909 91.618125 
L 218.986364 91.618125 
L 218.986364 91.059806 
L 215.815909 91.059806 
z
" clip-path="url(#p194a31af00)" style="fill: #d3d3d3; stroke: #ffffff; stroke-linejoin: miter"/>
   </g>
   <g id="patch_65">
    <path d="M 218.986364 91.618125 
L 222.156818 91.618125 
L 222.156818 91.342288 
L 218.986364 91.342288 
z
" clip-path="url(#p194a31af00)" style="fill: #d3d3d3; stroke: #ffffff; stroke-linejoin: miter"/>
   </g>
   <g id="patch_66">
    <path d="M 222.156818 91.618125 
L 225.327273 91.618125 
L 225.327273 90.604122 
L 222.156818 90.604122 
z
" clip-path="url(#p194a31af00)" style="fill: #d3d3d3; stroke: #ffffff; stroke-linejoin: miter"/>
   </g>
   <g id="patch_67">
    <path d="M 225.327273 91.618125 
L 228.497727 91.618125 
L 228.497727 91.09377 
L 225.327273 91.09377 
z
" clip-path="url(#p194a31af00)" style="fill: #00ff00; stroke: #ffffff; stroke-linejoin: miter"/>
   </g>
   <g id="patch_68">
    <path d="M 228.497727 91.618125 
L 231.668182 91.618125 
L 231.668182 90.805284 
L 228.497727 90.805284 
z
" clip-path="url(#p194a31af00)" style="fill: #00ff00; stroke: #ffffff; stroke-linejoin: miter"/>
   </g>
   <g id="patch_69">
    <path d="M 231.668182 91.618125 
L 234.838636 91.618125 
L 234.838636 91.12376 
L 231.668182 91.12376 
z
" clip-path="url(#p194a31af00)" style="fill: #00ff00; stroke: #ffffff; stroke-linejoin: miter"/>
   </g>
   <g id="patch_70">
    <path d="M 234.838636 91.618125 
L 238.009091 91.618125 
L 238.009091 90.972073 
L 234.838636 90.972073 
z
" clip-path="url(#p194a31af00)" style="fill: #00ff00; stroke: #ffffff; stroke-linejoin: miter"/>
   </g>
   <g id="patch_71">
    <path d="M 238.009091 91.618125 
L 241.179545 91.618125 
L 241.179545 89.511916 
L 238.009091 89.511916 
z
" clip-path="url(#p194a31af00)" style="fill: #00ff00; stroke: #ffffff; stroke-linejoin: miter"/>
   </g>
   <g id="patch_72">
    <path d="M 241.179545 91.618125 
L 244.35 91.618125 
L 244.35 82.073213 
L 241.179545 82.073213 
z
" clip-path="url(#p194a31af00)" style="fill: #00ff00; stroke: #ffffff; stroke-linejoin: miter"/>
   </g>
   <g id="patch_73">
    <path d="M 244.35 91.618125 
L 247.520455 91.618125 
L 247.520455 86.016636 
L 244.35 86.016636 
z
" clip-path="url(#p194a31af00)" style="fill: #00ff00; stroke: #ffffff; stroke-linejoin: miter"/>
   </g>
   <g id="patch_74">
    <path d="M 247.520455 91.618125 
L 250.690909 91.618125 
L 250.690909 67.359675 
L 247.520455 67.359675 
z
" clip-path="url(#p194a31af00)" style="fill: #00ff00; stroke: #ffffff; stroke-linejoin: miter"/>
   </g>
   <g id="patch_75">
    <path d="M 250.690909 91.618125 
L 253.861364 91.618125 
L 253.861364 91.005332 
L 250.690909 91.005332 
z
" clip-path="url(#p194a31af00)" style="fill: #00ff00; stroke: #ffffff; stroke-linejoin: miter"/>
   </g>
   <g id="patch_76">
    <path d="M 253.861364 91.618125 
L 257.031818 91.618125 
L 257.031818 88.072924 
L 253.861364 88.072924 
z
" clip-path="url(#p194a31af00)" style="fill: #00ff00; stroke: #ffffff; stroke-linejoin: miter"/>
   </g>
   <g id="patch_77">
    <path d="M 257.031818 91.618125 
L 260.202273 91.618125 
L 260.202273 89.807212 
L 257.031818 89.807212 
z
" clip-path="url(#p194a31af00)" style="fill: #00ff00; stroke: #ffffff; stroke-linejoin: miter"/>
   </g>
   <g id="patch_78">
    <path d="M 260.202273 91.618125 
L 263.372727 91.618125 
L 263.372727 88.502481 
L 260.202273 88.502481 
z
" clip-path="url(#p194a31af00)" style="fill: #00ff00; stroke: #ffffff; stroke-linejoin: miter"/>
   </g>
   <g id="patch_79">
    <path d="M 263.372727 91.618125 
L 266.543182 91.618125 
L 266.543182 90.563182 
L 263.372727 90.563182 
z
" clip-path="url(#p194a31af00)" style="fill: #00ff00; stroke: #ffffff; stroke-linejoin: miter"/>
   </g>
   <g id="patch_80">
    <path d="M 266.543182 91.618125 
L 269.713636 91.618125 
L 269.713636 89.838232 
L 266.543182 89.838232 
z
" clip-path="url(#p194a31af00)" style="fill: #00ff00; stroke: #ffffff; stroke-linejoin: miter"/>
   </g>
   <g id="patch_81">
    <path d="M 269.713636 91.618125 
L 272.884091 91.618125 
L 272.884091 90.45387 
L 269.713636 90.45387 
z
" clip-path="url(#p194a31af00)" style="fill: #00ff00; stroke: #ffffff; stroke-linejoin: miter"/>
   </g>
   <g id="patch_82">
    <path d="M 272.884091 91.618125 
L 276.054545 91.618125 
L 276.054545 90.1402 
L 272.884091 90.1402 
z
" clip-path="url(#p194a31af00)" style="fill: #00ff00; stroke: #ffffff; stroke-linejoin: miter"/>
   </g>
   <g id="patch_83">
    <path d="M 276.054545 91.618125 
L 279.225 91.618125 
L 279.225 91.242143 
L 276.054545 91.242143 
z
" clip-path="url(#p194a31af00)" style="fill: #ffc0cb; stroke: #ffffff; stroke-linejoin: miter"/>
   </g>
   <g id="patch_84">
    <path d="M 279.225 91.618125 
L 282.395455 91.618125 
L 282.395455 90.3704 
L 279.225 90.3704 
z
" clip-path="url(#p194a31af00)" style="fill: #ffc0cb; stroke: #ffffff; stroke-linejoin: miter"/>
   </g>
   <g id="patch_85">
    <path d="M 282.395455 91.618125 
L 285.565909 91.618125 
L 285.565909 91.265323 
L 282.395455 91.265323 
z
" clip-path="url(#p194a31af00)" style="fill: #ffc0cb; stroke: #ffffff; stroke-linejoin: miter"/>
   </g>
   <g id="patch_86">
    <path d="M 285.565909 91.618125 
L 288.736364 91.618125 
L 288.736364 84.164697 
L 285.565909 84.164697 
z
" clip-path="url(#p194a31af00)" style="fill: #ffc0cb; stroke: #ffffff; stroke-linejoin: miter"/>
   </g>
   <g id="patch_87">
    <path d="M 288.736364 91.618125 
L 291.906818 91.618125 
L 291.906818 90.922223 
L 288.736364 90.922223 
z
" clip-path="url(#p194a31af00)" style="fill: #ffc0cb; stroke: #ffffff; stroke-linejoin: miter"/>
   </g>
   <g id="patch_88">
    <path d="M 291.906818 91.618125 
L 295.077273 91.618125 
L 295.077273 86.504072 
L 291.906818 86.504072 
z
" clip-path="url(#p194a31af00)" style="fill: #ffc0cb; stroke: #ffffff; stroke-linejoin: miter"/>
   </g>
   <g id="patch_89">
    <path d="M 295.077273 91.618125 
L 298.247727 91.618125 
L 298.247727 89.602579 
L 295.077273 89.602579 
z
" clip-path="url(#p194a31af00)" style="fill: #ffc0cb; stroke: #ffffff; stroke-linejoin: miter"/>
   </g>
   <g id="patch_90">
    <path d="M 298.247727 91.618125 
L 301.418182 91.618125 
L 301.418182 26.171792 
L 298.247727 26.171792 
z
" clip-path="url(#p194a31af00)" style="fill: #ffc0cb; stroke: #ffffff; stroke-linejoin: miter"/>
   </g>
   <g id="patch_91">
    <path d="M 301.418182 91.618125 
L 304.588636 91.618125 
L 304.588636 91.321158 
L 301.418182 91.321158 
z
" clip-path="url(#p194a31af00)" style="fill: #ffc0cb; stroke: #ffffff; stroke-linejoin: miter"/>
   </g>
   <g id="patch_92">
    <path d="M 304.588636 91.618125 
L 307.759091 91.618125 
L 307.759091 89.439824 
L 304.588636 89.439824 
z
" clip-path="url(#p194a31af00)" style="fill: #ffc0cb; stroke: #ffffff; stroke-linejoin: miter"/>
   </g>
   <g id="patch_93">
    <path d="M 307.759091 91.618125 
L 310.929545 91.618125 
L 310.929545 90.896809 
L 307.759091 90.896809 
z
" clip-path="url(#p194a31af00)" style="fill: #ffc0cb; stroke: #ffffff; stroke-linejoin: miter"/>
   </g>
   <g id="patch_94">
    <path d="M 310.929545 91.618125 
L 314.1 91.618125 
L 314.1 70.894572 
L 310.929545 70.894572 
z
" clip-path="url(#p194a31af00)" style="fill: #ffc0cb; stroke: #ffffff; stroke-linejoin: miter"/>
   </g>
   <g id="patch_95">
    <path d="M 314.1 91.618125 
L 317.270455 91.618125 
L 317.270455 90.987478 
L 314.1 90.987478 
z
" clip-path="url(#p194a31af00)" style="fill: #ffc0cb; stroke: #ffffff; stroke-linejoin: miter"/>
   </g>
   <g id="patch_96">
    <path d="M 317.270455 91.618125 
L 320.440909 91.618125 
L 320.440909 90.285951 
L 317.270455 90.285951 
z
" clip-path="url(#p194a31af00)" style="fill: #ffc0cb; stroke: #ffffff; stroke-linejoin: miter"/>
   </g>
   <g id="patch_97">
    <path d="M 320.440909 91.618125 
L 323.611364 91.618125 
L 323.611364 90.782009 
L 320.440909 90.782009 
z
" clip-path="url(#p194a31af00)" style="fill: #ffc0cb; stroke: #ffffff; stroke-linejoin: miter"/>
   </g>
   <g id="patch_98">
    <path d="M 323.611364 91.618125 
L 326.781818 91.618125 
L 326.781818 82.026029 
L 323.611364 82.026029 
z
" clip-path="url(#p194a31af00)" style="fill: #ffc0cb; stroke: #ffffff; stroke-linejoin: miter"/>
   </g>
   <g id="matplotlib.axis_1"/>
   <g id="matplotlib.axis_2"/>
   <g id="LineCollection_1">
    <path d="M 24.003409 91.180323 
L 24.003409 91.06908 
" clip-path="url(#p194a31af00)" style="fill: none; stroke: #000000; stroke-opacity: 0.5; stroke-width: 0.5"/>
    <path d="M 27.173864 91.186858 
L 27.173864 91.055703 
" clip-path="url(#p194a31af00)" style="fill: none; stroke: #000000; stroke-opacity: 0.5; stroke-width: 0.5"/>
    <path d="M 30.344318 91.602715 
L 30.344318 91.458816 
" clip-path="url(#p194a31af00)" style="fill: none; stroke: #000000; stroke-opacity: 0.5; stroke-width: 0.5"/>
    <path d="M 33.514773 91.35235 
L 33.514773 91.260321 
" clip-path="url(#p194a31af00)" style="fill: none; stroke: #000000; stroke-opacity: 0.5; stroke-width: 0.5"/>
    <path d="M 36.685227 91.063407 
L 36.685227 90.939786 
" clip-path="url(#p194a31af00)" style="fill: none; stroke: #000000; stroke-opacity: 0.5; stroke-width: 0.5"/>
    <path d="M 39.855682 91.207235 
L 39.855682 91.072122 
" clip-path="url(#p194a31af00)" style="fill: none; stroke: #000000; stroke-opacity: 0.5; stroke-width: 0.5"/>
    <path d="M 43.026136 91.00931 
L 43.026136 90.568202 
" clip-path="url(#p194a31af00)" style="fill: none; stroke: #000000; stroke-opacity: 0.5; stroke-width: 0.5"/>
    <path d="M 46.196591 91.130282 
L 46.196591 91.006316 
" clip-path="url(#p194a31af00)" style="fill: none; stroke: #000000; stroke-opacity: 0.5; stroke-width: 0.5"/>
    <path d="M 49.367045 90.854224 
L 49.367045 90.69977 
" clip-path="url(#p194a31af00)" style="fill: none; stroke: #000000; stroke-opacity: 0.5; stroke-width: 0.5"/>
    <path d="M 52.5375 91.110544 
L 52.5375 90.961363 
" clip-path="url(#p194a31af00)" style="fill: none; stroke: #000000; stroke-opacity: 0.5; stroke-width: 0.5"/>
    <path d="M 55.707955 90.886896 
L 55.707955 90.34823 
" clip-path="url(#p194a31af00)" style="fill: none; stroke: #000000; stroke-opacity: 0.5; stroke-width: 0.5"/>
    <path d="M 58.878409 90.840786 
L 58.878409 90.682836 
" clip-path="url(#p194a31af00)" style="fill: none; stroke: #000000; stroke-opacity: 0.5; stroke-width: 0.5"/>
    <path d="M 62.048864 91.162549 
L 62.048864 91.049576 
" clip-path="url(#p194a31af00)" style="fill: none; stroke: #000000; stroke-opacity: 0.5; stroke-width: 0.5"/>
    <path d="M 65.219318 91.309928 
L 65.219318 91.201859 
" clip-path="url(#p194a31af00)" style="fill: none; stroke: #000000; stroke-opacity: 0.5; stroke-width: 0.5"/>
    <path d="M 68.389773 90.741867 
L 68.389773 90.242049 
" clip-path="url(#p194a31af00)" style="fill: none; stroke: #000000; stroke-opacity: 0.5; stroke-width: 0.5"/>
    <path d="M 71.560227 90.825811 
L 71.560227 90.68925 
" clip-path="url(#p194a31af00)" style="fill: none; stroke: #000000; stroke-opacity: 0.5; stroke-width: 0.5"/>
    <path d="M 74.730682 91.524246 
L 74.730682 91.471153 
" clip-path="url(#p194a31af00)" style="fill: none; stroke: #000000; stroke-opacity: 0.5; stroke-width: 0.5"/>
    <path d="M 77.901136 91.465318 
L 77.901136 91.374512 
" clip-path="url(#p194a31af00)" style="fill: none; stroke: #000000; stroke-opacity: 0.5; stroke-width: 0.5"/>
    <path d="M 81.071591 91.601787 
L 81.071591 91.459446 
" clip-path="url(#p194a31af00)" style="fill: none; stroke: #000000; stroke-opacity: 0.5; stroke-width: 0.5"/>
    <path d="M 84.242045 91.522725 
L 84.242045 91.464906 
" clip-path="url(#p194a31af00)" style="fill: none; stroke: #000000; stroke-opacity: 0.5; stroke-width: 0.5"/>
    <path d="M 87.4125 91.555285 
L 87.4125 91.502345 
" clip-path="url(#p194a31af00)" style="fill: none; stroke: #000000; stroke-opacity: 0.5; stroke-width: 0.5"/>
    <path d="M 90.582955 91.43966 
L 90.582955 91.341677 
" clip-path="url(#p194a31af00)" style="fill: none; stroke: #000000; stroke-opacity: 0.5; stroke-width: 0.5"/>
    <path d="M 93.753409 91.574854 
L 93.753409 91.392961 
" clip-path="url(#p194a31af00)" style="fill: none; stroke: #000000; stroke-opacity: 0.5; stroke-width: 0.5"/>
    <path d="M 96.923864 91.480857 
L 96.923864 91.412077 
" clip-path="url(#p194a31af00)" style="fill: none; stroke: #000000; stroke-opacity: 0.5; stroke-width: 0.5"/>
    <path d="M 100.094318 91.591882 
L 100.094318 91.552994 
" clip-path="url(#p194a31af00)" style="fill: none; stroke: #000000; stroke-opacity: 0.5; stroke-width: 0.5"/>
    <path d="M 103.264773 91.528735 
L 103.264773 91.449668 
" clip-path="url(#p194a31af00)" style="fill: none; stroke: #000000; stroke-opacity: 0.5; stroke-width: 0.5"/>
    <path d="M 106.435227 91.61347 
L 106.435227 91.44495 
" clip-path="url(#p194a31af00)" style="fill: none; stroke: #000000; stroke-opacity: 0.5; stroke-width: 0.5"/>
    <path d="M 109.605682 91.422798 
L 109.605682 91.33384 
" clip-path="url(#p194a31af00)" style="fill: none; stroke: #000000; stroke-opacity: 0.5; stroke-width: 0.5"/>
    <path d="M 112.776136 91.526398 
L 112.776136 91.473872 
" clip-path="url(#p194a31af00)" style="fill: none; stroke: #000000; stroke-opacity: 0.5; stroke-width: 0.5"/>
    <path d="M 115.946591 91.505178 
L 115.946591 91.435508 
" clip-path="url(#p194a31af00)" style="fill: none; stroke: #000000; stroke-opacity: 0.5; stroke-width: 0.5"/>
    <path d="M 119.117045 91.339372 
L 119.117045 91.006138 
" clip-path="url(#p194a31af00)" style="fill: none; stroke: #000000; stroke-opacity: 0.5; stroke-width: 0.5"/>
    <path d="M 122.2875 91.234128 
L 122.2875 91.138767 
" clip-path="url(#p194a31af00)" style="fill: none; stroke: #000000; stroke-opacity: 0.5; stroke-width: 0.5"/>
    <path d="M 125.457955 91.175521 
L 125.457955 91.069894 
" clip-path="url(#p194a31af00)" style="fill: none; stroke: #000000; stroke-opacity: 0.5; stroke-width: 0.5"/>
    <path d="M 128.628409 91.320747 
L 128.628409 91.206035 
" clip-path="url(#p194a31af00)" style="fill: none; stroke: #000000; stroke-opacity: 0.5; stroke-width: 0.5"/>
    <path d="M 131.798864 84.670485 
L 131.798864 84.19065 
" clip-path="url(#p194a31af00)" style="fill: none; stroke: #000000; stroke-opacity: 0.5; stroke-width: 0.5"/>
    <path d="M 134.969318 91.477778 
L 134.969318 91.410219 
" clip-path="url(#p194a31af00)" style="fill: none; stroke: #000000; stroke-opacity: 0.5; stroke-width: 0.5"/>
    <path d="M 138.139773 91.237515 
L 138.139773 91.128308 
" clip-path="url(#p194a31af00)" style="fill: none; stroke: #000000; stroke-opacity: 0.5; stroke-width: 0.5"/>
    <path d="M 141.310227 91.130074 
L 141.310227 90.994185 
" clip-path="url(#p194a31af00)" style="fill: none; stroke: #000000; stroke-opacity: 0.5; stroke-width: 0.5"/>
    <path d="M 144.480682 83.084629 
L 144.480682 82.434691 
" clip-path="url(#p194a31af00)" style="fill: none; stroke: #000000; stroke-opacity: 0.5; stroke-width: 0.5"/>
    <path d="M 147.651136 91.307787 
L 147.651136 91.206741 
" clip-path="url(#p194a31af00)" style="fill: none; stroke: #000000; stroke-opacity: 0.5; stroke-width: 0.5"/>
    <path d="M 150.821591 91.30076 
L 150.821591 91.192029 
" clip-path="url(#p194a31af00)" style="fill: none; stroke: #000000; stroke-opacity: 0.5; stroke-width: 0.5"/>
    <path d="M 153.992045 91.024751 
L 153.992045 90.869851 
" clip-path="url(#p194a31af00)" style="fill: none; stroke: #000000; stroke-opacity: 0.5; stroke-width: 0.5"/>
    <path d="M 157.1625 71.186978 
L 157.1625 70.300636 
" clip-path="url(#p194a31af00)" style="fill: none; stroke: #000000; stroke-opacity: 0.5; stroke-width: 0.5"/>
    <path d="M 160.332955 91.366276 
L 160.332955 91.26173 
" clip-path="url(#p194a31af00)" style="fill: none; stroke: #000000; stroke-opacity: 0.5; stroke-width: 0.5"/>
    <path d="M 163.503409 91.073164 
L 163.503409 90.95115 
" clip-path="url(#p194a31af00)" style="fill: none; stroke: #000000; stroke-opacity: 0.5; stroke-width: 0.5"/>
    <path d="M 166.673864 90.806006 
L 166.673864 90.647181 
" clip-path="url(#p194a31af00)" style="fill: none; stroke: #000000; stroke-opacity: 0.5; stroke-width: 0.5"/>
    <path d="M 169.844318 88.235016 
L 169.844318 87.656704 
" clip-path="url(#p194a31af00)" style="fill: none; stroke: #000000; stroke-opacity: 0.5; stroke-width: 0.5"/>
    <path d="M 173.014773 90.83207 
L 173.014773 90.694249 
" clip-path="url(#p194a31af00)" style="fill: none; stroke: #000000; stroke-opacity: 0.5; stroke-width: 0.5"/>
    <path d="M 176.185227 91.440261 
L 176.185227 91.375017 
" clip-path="url(#p194a31af00)" style="fill: none; stroke: #000000; stroke-opacity: 0.5; stroke-width: 0.5"/>
    <path d="M 179.355682 91.396445 
L 179.355682 91.30152 
" clip-path="url(#p194a31af00)" style="fill: none; stroke: #000000; stroke-opacity: 0.5; stroke-width: 0.5"/>
    <path d="M 182.526136 91.554017 
L 182.526136 91.509327 
" clip-path="url(#p194a31af00)" style="fill: none; stroke: #000000; stroke-opacity: 0.5; stroke-width: 0.5"/>
    <path d="M 185.696591 91.024608 
L 185.696591 90.916017 
" clip-path="url(#p194a31af00)" style="fill: none; stroke: #000000; stroke-opacity: 0.5; stroke-width: 0.5"/>
    <path d="M 188.867045 91.238845 
L 188.867045 91.120104 
" clip-path="url(#p194a31af00)" style="fill: none; stroke: #000000; stroke-opacity: 0.5; stroke-width: 0.5"/>
    <path d="M 192.0375 88.739265 
L 192.0375 88.43968 
" clip-path="url(#p194a31af00)" style="fill: none; stroke: #000000; stroke-opacity: 0.5; stroke-width: 0.5"/>
    <path d="M 195.207955 90.756038 
L 195.207955 90.602077 
" clip-path="url(#p194a31af00)" style="fill: none; stroke: #000000; stroke-opacity: 0.5; stroke-width: 0.5"/>
    <path d="M 198.378409 85.395016 
L 198.378409 84.992403 
" clip-path="url(#p194a31af00)" style="fill: none; stroke: #000000; stroke-opacity: 0.5; stroke-width: 0.5"/>
    <path d="M 201.548864 91.576084 
L 201.548864 91.52166 
" clip-path="url(#p194a31af00)" style="fill: none; stroke: #000000; stroke-opacity: 0.5; stroke-width: 0.5"/>
    <path d="M 204.719318 90.599531 
L 204.719318 90.367248 
" clip-path="url(#p194a31af00)" style="fill: none; stroke: #000000; stroke-opacity: 0.5; stroke-width: 0.5"/>
    <path d="M 207.889773 91.231579 
L 207.889773 91.114855 
" clip-path="url(#p194a31af00)" style="fill: none; stroke: #000000; stroke-opacity: 0.5; stroke-width: 0.5"/>
    <path d="M 211.060227 89.776708 
L 211.060227 89.52824 
" clip-path="url(#p194a31af00)" style="fill: none; stroke: #000000; stroke-opacity: 0.5; stroke-width: 0.5"/>
    <path d="M 214.230682 91.244399 
L 214.230682 91.148109 
" clip-path="url(#p194a31af00)" style="fill: none; stroke: #000000; stroke-opacity: 0.5; stroke-width: 0.5"/>
    <path d="M 217.401136 91.11978 
L 217.401136 90.999832 
" clip-path="url(#p194a31af00)" style="fill: none; stroke: #000000; stroke-opacity: 0.5; stroke-width: 0.5"/>
    <path d="M 220.571591 91.384018 
L 220.571591 91.300558 
" clip-path="url(#p194a31af00)" style="fill: none; stroke: #000000; stroke-opacity: 0.5; stroke-width: 0.5"/>
    <path d="M 223.742045 90.663959 
L 223.742045 90.544284 
" clip-path="url(#p194a31af00)" style="fill: none; stroke: #000000; stroke-opacity: 0.5; stroke-width: 0.5"/>
    <path d="M 226.9125 91.147738 
L 226.9125 91.039803 
" clip-path="url(#p194a31af00)" style="fill: none; stroke: #000000; stroke-opacity: 0.5; stroke-width: 0.5"/>
    <path d="M 230.082955 90.884666 
L 230.082955 90.725901 
" clip-path="url(#p194a31af00)" style="fill: none; stroke: #000000; stroke-opacity: 0.5; stroke-width: 0.5"/>
    <path d="M 233.253409 91.180028 
L 233.253409 91.067491 
" clip-path="url(#p194a31af00)" style="fill: none; stroke: #000000; stroke-opacity: 0.5; stroke-width: 0.5"/>
    <path d="M 236.423864 91.027443 
L 236.423864 90.916702 
" clip-path="url(#p194a31af00)" style="fill: none; stroke: #000000; stroke-opacity: 0.5; stroke-width: 0.5"/>
    <path d="M 239.594318 89.635785 
L 239.594318 89.388048 
" clip-path="url(#p194a31af00)" style="fill: none; stroke: #000000; stroke-opacity: 0.5; stroke-width: 0.5"/>
    <path d="M 242.764773 82.332735 
L 242.764773 81.813691 
" clip-path="url(#p194a31af00)" style="fill: none; stroke: #000000; stroke-opacity: 0.5; stroke-width: 0.5"/>
    <path d="M 245.935227 86.19455 
L 245.935227 85.838722 
" clip-path="url(#p194a31af00)" style="fill: none; stroke: #000000; stroke-opacity: 0.5; stroke-width: 0.5"/>
    <path d="M 249.105682 67.718672 
L 249.105682 67.000679 
" clip-path="url(#p194a31af00)" style="fill: none; stroke: #000000; stroke-opacity: 0.5; stroke-width: 0.5"/>
    <path d="M 252.276136 91.07434 
L 252.276136 90.936323 
" clip-path="url(#p194a31af00)" style="fill: none; stroke: #000000; stroke-opacity: 0.5; stroke-width: 0.5"/>
    <path d="M 255.446591 88.262035 
L 255.446591 87.883814 
" clip-path="url(#p194a31af00)" style="fill: none; stroke: #000000; stroke-opacity: 0.5; stroke-width: 0.5"/>
    <path d="M 258.617045 89.921507 
L 258.617045 89.692918 
" clip-path="url(#p194a31af00)" style="fill: none; stroke: #000000; stroke-opacity: 0.5; stroke-width: 0.5"/>
    <path d="M 261.7875 88.660911 
L 261.7875 88.344052 
" clip-path="url(#p194a31af00)" style="fill: none; stroke: #000000; stroke-opacity: 0.5; stroke-width: 0.5"/>
    <path d="M 264.957955 90.63977 
L 264.957955 90.486594 
" clip-path="url(#p194a31af00)" style="fill: none; stroke: #000000; stroke-opacity: 0.5; stroke-width: 0.5"/>
    <path d="M 268.128409 89.941923 
L 268.128409 89.734542 
" clip-path="url(#p194a31af00)" style="fill: none; stroke: #000000; stroke-opacity: 0.5; stroke-width: 0.5"/>
    <path d="M 271.298864 90.538711 
L 271.298864 90.36903 
" clip-path="url(#p194a31af00)" style="fill: none; stroke: #000000; stroke-opacity: 0.5; stroke-width: 0.5"/>
    <path d="M 274.469318 90.212681 
L 274.469318 90.06772 
" clip-path="url(#p194a31af00)" style="fill: none; stroke: #000000; stroke-opacity: 0.5; stroke-width: 0.5"/>
    <path d="M 277.639773 91.285966 
L 277.639773 91.198321 
" clip-path="url(#p194a31af00)" style="fill: none; stroke: #000000; stroke-opacity: 0.5; stroke-width: 0.5"/>
    <path d="M 280.810227 90.466597 
L 280.810227 90.274203 
" clip-path="url(#p194a31af00)" style="fill: none; stroke: #000000; stroke-opacity: 0.5; stroke-width: 0.5"/>
    <path d="M 283.980682 91.314123 
L 283.980682 91.216523 
" clip-path="url(#p194a31af00)" style="fill: none; stroke: #000000; stroke-opacity: 0.5; stroke-width: 0.5"/>
    <path d="M 287.151136 84.377108 
L 287.151136 83.952287 
" clip-path="url(#p194a31af00)" style="fill: none; stroke: #000000; stroke-opacity: 0.5; stroke-width: 0.5"/>
    <path d="M 290.321591 90.999366 
L 290.321591 90.84508 
" clip-path="url(#p194a31af00)" style="fill: none; stroke: #000000; stroke-opacity: 0.5; stroke-width: 0.5"/>
    <path d="M 293.492045 86.698933 
L 293.492045 86.30921 
" clip-path="url(#p194a31af00)" style="fill: none; stroke: #000000; stroke-opacity: 0.5; stroke-width: 0.5"/>
    <path d="M 296.6625 89.716432 
L 296.6625 89.488726 
" clip-path="url(#p194a31af00)" style="fill: none; stroke: #000000; stroke-opacity: 0.5; stroke-width: 0.5"/>
    <path d="M 299.832955 26.725458 
L 299.832955 25.618125 
" clip-path="url(#p194a31af00)" style="fill: none; stroke: #000000; stroke-opacity: 0.5; stroke-width: 0.5"/>
    <path d="M 303.003409 91.372728 
L 303.003409 91.269588 
" clip-path="url(#p194a31af00)" style="fill: none; stroke: #000000; stroke-opacity: 0.5; stroke-width: 0.5"/>
    <path d="M 306.173864 89.588361 
L 306.173864 89.291286 
" clip-path="url(#p194a31af00)" style="fill: none; stroke: #000000; stroke-opacity: 0.5; stroke-width: 0.5"/>
    <path d="M 309.344318 90.975615 
L 309.344318 90.818002 
" clip-path="url(#p194a31af00)" style="fill: none; stroke: #000000; stroke-opacity: 0.5; stroke-width: 0.5"/>
    <path d="M 312.514773 71.229889 
L 312.514773 70.559256 
" clip-path="url(#p194a31af00)" style="fill: none; stroke: #000000; stroke-opacity: 0.5; stroke-width: 0.5"/>
    <path d="M 315.685227 91.045453 
L 315.685227 90.929503 
" clip-path="url(#p194a31af00)" style="fill: none; stroke: #000000; stroke-opacity: 0.5; stroke-width: 0.5"/>
    <path d="M 318.855682 90.374125 
L 318.855682 90.197777 
" clip-path="url(#p194a31af00)" style="fill: none; stroke: #000000; stroke-opacity: 0.5; stroke-width: 0.5"/>
    <path d="M 322.026136 90.85502 
L 322.026136 90.708999 
" clip-path="url(#p194a31af00)" style="fill: none; stroke: #000000; stroke-opacity: 0.5; stroke-width: 0.5"/>
    <path d="M 325.196591 82.255454 
L 325.196591 81.796604 
" clip-path="url(#p194a31af00)" style="fill: none; stroke: #000000; stroke-opacity: 0.5; stroke-width: 0.5"/>
   </g>
   <g id="patch_99">
    <path d="M 7.2 91.618125 
L 342 91.618125 
" style="fill: none; stroke: #000000; stroke-width: 0.8; stroke-linejoin: miter; stroke-linecap: square"/>
   </g>
   <g id="text_1">
    <!-- Component 2 -->
    <g transform="translate(134.040937 16.318125) scale(0.12 -0.12)">
     <defs>
      <path id="DejaVuSans-43" d="M 4122 4306 
L 4122 3641 
Q 3803 3938 3442 4084 
Q 3081 4231 2675 4231 
Q 1875 4231 1450 3742 
Q 1025 3253 1025 2328 
Q 1025 1406 1450 917 
Q 1875 428 2675 428 
Q 3081 428 3442 575 
Q 3803 722 4122 1019 
L 4122 359 
Q 3791 134 3420 21 
Q 3050 -91 2638 -91 
Q 1578 -91 968 557 
Q 359 1206 359 2328 
Q 359 3453 968 4101 
Q 1578 4750 2638 4750 
Q 3056 4750 3426 4639 
Q 3797 4528 4122 4306 
z
" transform="scale(0.015625)"/>
      <path id="DejaVuSans-6f" d="M 1959 3097 
Q 1497 3097 1228 2736 
Q 959 2375 959 1747 
Q 959 1119 1226 758 
Q 1494 397 1959 397 
Q 2419 397 2687 759 
Q 2956 1122 2956 1747 
Q 2956 2369 2687 2733 
Q 2419 3097 1959 3097 
z
M 1959 3584 
Q 2709 3584 3137 3096 
Q 3566 2609 3566 1747 
Q 3566 888 3137 398 
Q 2709 -91 1959 -91 
Q 1206 -91 779 398 
Q 353 888 353 1747 
Q 353 2609 779 3096 
Q 1206 3584 1959 3584 
z
" transform="scale(0.015625)"/>
      <path id="DejaVuSans-6d" d="M 3328 2828 
Q 3544 3216 3844 3400 
Q 4144 3584 4550 3584 
Q 5097 3584 5394 3201 
Q 5691 2819 5691 2113 
L 5691 0 
L 5113 0 
L 5113 2094 
Q 5113 2597 4934 2840 
Q 4756 3084 4391 3084 
Q 3944 3084 3684 2787 
Q 3425 2491 3425 1978 
L 3425 0 
L 2847 0 
L 2847 2094 
Q 2847 2600 2669 2842 
Q 2491 3084 2119 3084 
Q 1678 3084 1418 2786 
Q 1159 2488 1159 1978 
L 1159 0 
L 581 0 
L 581 3500 
L 1159 3500 
L 1159 2956 
Q 1356 3278 1631 3431 
Q 1906 3584 2284 3584 
Q 2666 3584 2933 3390 
Q 3200 3197 3328 2828 
z
" transform="scale(0.015625)"/>
      <path id="DejaVuSans-70" d="M 1159 525 
L 1159 -1331 
L 581 -1331 
L 581 3500 
L 1159 3500 
L 1159 2969 
Q 1341 3281 1617 3432 
Q 1894 3584 2278 3584 
Q 2916 3584 3314 3078 
Q 3713 2572 3713 1747 
Q 3713 922 3314 415 
Q 2916 -91 2278 -91 
Q 1894 -91 1617 61 
Q 1341 213 1159 525 
z
M 3116 1747 
Q 3116 2381 2855 2742 
Q 2594 3103 2138 3103 
Q 1681 3103 1420 2742 
Q 1159 2381 1159 1747 
Q 1159 1113 1420 752 
Q 1681 391 2138 391 
Q 2594 391 2855 752 
Q 3116 1113 3116 1747 
z
" transform="scale(0.015625)"/>
      <path id="DejaVuSans-6e" d="M 3513 2113 
L 3513 0 
L 2938 0 
L 2938 2094 
Q 2938 2591 2744 2837 
Q 2550 3084 2163 3084 
Q 1697 3084 1428 2787 
Q 1159 2491 1159 1978 
L 1159 0 
L 581 0 
L 581 3500 
L 1159 3500 
L 1159 2956 
Q 1366 3272 1645 3428 
Q 1925 3584 2291 3584 
Q 2894 3584 3203 3211 
Q 3513 2838 3513 2113 
z
" transform="scale(0.015625)"/>
      <path id="DejaVuSans-65" d="M 3597 1894 
L 3597 1613 
L 953 1613 
Q 991 1019 1311 708 
Q 1631 397 2203 397 
Q 2534 397 2845 478 
Q 3156 559 3463 722 
L 3463 178 
Q 3153 47 2828 -22 
Q 2503 -91 2169 -91 
Q 1331 -91 842 396 
Q 353 884 353 1716 
Q 353 2575 817 3079 
Q 1281 3584 2069 3584 
Q 2775 3584 3186 3129 
Q 3597 2675 3597 1894 
z
M 3022 2063 
Q 3016 2534 2758 2815 
Q 2500 3097 2075 3097 
Q 1594 3097 1305 2825 
Q 1016 2553 972 2059 
L 3022 2063 
z
" transform="scale(0.015625)"/>
      <path id="DejaVuSans-74" d="M 1172 4494 
L 1172 3500 
L 2356 3500 
L 2356 3053 
L 1172 3053 
L 1172 1153 
Q 1172 725 1289 603 
Q 1406 481 1766 481 
L 2356 481 
L 2356 0 
L 1766 0 
Q 1100 0 847 248 
Q 594 497 594 1153 
L 594 3053 
L 172 3053 
L 172 3500 
L 594 3500 
L 594 4494 
L 1172 4494 
z
" transform="scale(0.015625)"/>
      <path id="DejaVuSans-20" transform="scale(0.015625)"/>
      <path id="DejaVuSans-32" d="M 1228 531 
L 3431 531 
L 3431 0 
L 469 0 
L 469 531 
Q 828 903 1448 1529 
Q 2069 2156 2228 2338 
Q 2531 2678 2651 2914 
Q 2772 3150 2772 3378 
Q 2772 3750 2511 3984 
Q 2250 4219 1831 4219 
Q 1534 4219 1204 4116 
Q 875 4013 500 3803 
L 500 4441 
Q 881 4594 1212 4672 
Q 1544 4750 1819 4750 
Q 2544 4750 2975 4387 
Q 3406 4025 3406 3419 
Q 3406 3131 3298 2873 
Q 3191 2616 2906 2266 
Q 2828 2175 2409 1742 
Q 1991 1309 1228 531 
z
" transform="scale(0.015625)"/>
     </defs>
     <use xlink:href="#DejaVuSans-43"/>
     <use xlink:href="#DejaVuSans-6f" x="69.824219"/>
     <use xlink:href="#DejaVuSans-6d" x="131.005859"/>
     <use xlink:href="#DejaVuSans-70" x="228.417969"/>
     <use xlink:href="#DejaVuSans-6f" x="291.894531"/>
     <use xlink:href="#DejaVuSans-6e" x="353.076172"/>
     <use xlink:href="#DejaVuSans-65" x="416.455078"/>
     <use xlink:href="#DejaVuSans-6e" x="477.978516"/>
     <use xlink:href="#DejaVuSans-74" x="541.357422"/>
     <use xlink:href="#DejaVuSans-20" x="580.566406"/>
     <use xlink:href="#DejaVuSans-32" x="612.353516"/>
    </g>
   </g>
  </g>
 </g>
 <defs>
  <clipPath id="p194a31af00">
   <rect x="7.2" y="22.318125" width="334.8" height="69.3"/>
  </clipPath>
 </defs>
</svg>
