<?xml version="1.0" encoding="utf-8" standalone="no"?>
<!DOCTYPE svg PUBLIC "-//W3C//DTD SVG 1.1//EN"
  "http://www.w3.org/Graphics/SVG/1.1/DTD/svg11.dtd">
<svg xmlns:xlink="http://www.w3.org/1999/xlink" width="349.2pt" height="102.318125pt" viewBox="0 0 349.2 102.318125" xmlns="http://www.w3.org/2000/svg" version="1.1">
 <metadata>
  <rdf:RDF xmlns:dc="http://purl.org/dc/elements/1.1/" xmlns:cc="http://creativecommons.org/ns#" xmlns:rdf="http://www.w3.org/1999/02/22-rdf-syntax-ns#">
   <cc:Work>
    <dc:type rdf:resource="http://purl.org/dc/dcmitype/StillImage"/>
    <dc:date>2023-01-30T19:11:35.885498</dc:date>
    <dc:format>image/svg+xml</dc:format>
    <dc:creator>
     <cc:Agent>
      <dc:title>Matplotlib v3.6.3, https://matplotlib.org/</dc:title>
     </cc:Agent>
    </dc:creator>
   </cc:Work>
  </rdf:RDF>
 </metadata>
 <defs>
  <style type="text/css">*{stroke-linejoin: round; stroke-linecap: butt}</style>
 </defs>
 <g id="figure_1">
  <g id="patch_1">
   <path d="M 0 102.318125 
L 349.2 102.318125 
L 349.2 0 
L 0 0 
z
" style="fill: #ffffff"/>
  </g>
  <g id="axes_1">
   <g id="patch_2">
    <path d="M 7.2 91.618125 
L 342 91.618125 
L 342 22.318125 
L 7.2 22.318125 
z
" style="fill: #ffffff"/>
   </g>
   <g id="patch_3">
    <path d="M 22.418182 88.465443 
L 25.588636 88.465443 
L 25.588636 88.458736 
L 22.418182 88.458736 
z
" clip-path="url(#p61c217dfef)" style="fill: #00ffff; stroke: #ffffff; stroke-linejoin: miter"/>
   </g>
   <g id="patch_4">
    <path d="M 25.588636 88.465443 
L 28.759091 88.465443 
L 28.759091 88.328567 
L 25.588636 88.328567 
z
" clip-path="url(#p61c217dfef)" style="fill: #00ffff; stroke: #ffffff; stroke-linejoin: miter"/>
   </g>
   <g id="patch_5">
    <path d="M 28.759091 88.465443 
L 31.929545 88.465443 
L 31.929545 88.289041 
L 28.759091 88.289041 
z
" clip-path="url(#p61c217dfef)" style="fill: #00ffff; stroke: #ffffff; stroke-linejoin: miter"/>
   </g>
   <g id="patch_6">
    <path d="M 31.929545 88.465443 
L 35.1 88.465443 
L 35.1 88.457883 
L 31.929545 88.457883 
z
" clip-path="url(#p61c217dfef)" style="fill: #00ffff; stroke: #ffffff; stroke-linejoin: miter"/>
   </g>
   <g id="patch_7">
    <path d="M 35.1 88.465443 
L 38.270455 88.465443 
L 38.270455 88.457826 
L 35.1 88.457826 
z
" clip-path="url(#p61c217dfef)" style="fill: #00ffff; stroke: #ffffff; stroke-linejoin: miter"/>
   </g>
   <g id="patch_8">
    <path d="M 38.270455 88.465443 
L 41.440909 88.465443 
L 41.440909 88.378356 
L 38.270455 88.378356 
z
" clip-path="url(#p61c217dfef)" style="fill: #00ffff; stroke: #ffffff; stroke-linejoin: miter"/>
   </g>
   <g id="patch_9">
    <path d="M 41.440909 88.465443 
L 44.611364 88.465443 
L 44.611364 87.985248 
L 41.440909 87.985248 
z
" clip-path="url(#p61c217dfef)" style="fill: #00ffff; stroke: #ffffff; stroke-linejoin: miter"/>
   </g>
   <g id="patch_10">
    <path d="M 44.611364 88.465443 
L 47.781818 88.465443 
L 47.781818 88.437918 
L 44.611364 88.437918 
z
" clip-path="url(#p61c217dfef)" style="fill: #00ffff; stroke: #ffffff; stroke-linejoin: miter"/>
   </g>
   <g id="patch_11">
    <path d="M 47.781818 88.465443 
L 50.952273 88.465443 
L 50.952273 88.45647 
L 47.781818 88.45647 
z
" clip-path="url(#p61c217dfef)" style="fill: #00ffff; stroke: #ffffff; stroke-linejoin: miter"/>
   </g>
   <g id="patch_12">
    <path d="M 50.952273 88.465443 
L 54.122727 88.465443 
L 54.122727 88.454635 
L 50.952273 88.454635 
z
" clip-path="url(#p61c217dfef)" style="fill: #00ffff; stroke: #ffffff; stroke-linejoin: miter"/>
   </g>
   <g id="patch_13">
    <path d="M 54.122727 88.465443 
L 57.293182 88.465443 
L 57.293182 88.090273 
L 54.122727 88.090273 
z
" clip-path="url(#p61c217dfef)" style="fill: #00ffff; stroke: #ffffff; stroke-linejoin: miter"/>
   </g>
   <g id="patch_14">
    <path d="M 57.293182 88.465443 
L 60.463636 88.465443 
L 60.463636 88.402867 
L 57.293182 88.402867 
z
" clip-path="url(#p61c217dfef)" style="fill: #00ffff; stroke: #ffffff; stroke-linejoin: miter"/>
   </g>
   <g id="patch_15">
    <path d="M 60.463636 88.465443 
L 63.634091 88.465443 
L 63.634091 88.388209 
L 60.463636 88.388209 
z
" clip-path="url(#p61c217dfef)" style="fill: #00ffff; stroke: #ffffff; stroke-linejoin: miter"/>
   </g>
   <g id="patch_16">
    <path d="M 63.634091 88.465443 
L 66.804545 88.465443 
L 66.804545 88.456867 
L 63.634091 88.456867 
z
" clip-path="url(#p61c217dfef)" style="fill: #00ffff; stroke: #ffffff; stroke-linejoin: miter"/>
   </g>
   <g id="patch_17">
    <path d="M 66.804545 88.465443 
L 69.975 88.465443 
L 69.975 88.403688 
L 66.804545 88.403688 
z
" clip-path="url(#p61c217dfef)" style="fill: #00ffff; stroke: #ffffff; stroke-linejoin: miter"/>
   </g>
   <g id="patch_18">
    <path d="M 69.975 88.465443 
L 73.145455 88.465443 
L 73.145455 88.295554 
L 69.975 88.295554 
z
" clip-path="url(#p61c217dfef)" style="fill: #00ffff; stroke: #ffffff; stroke-linejoin: miter"/>
   </g>
   <g id="patch_19">
    <path d="M 73.145455 88.465443 
L 76.315909 88.465443 
L 76.315909 88.458609 
L 73.145455 88.458609 
z
" clip-path="url(#p61c217dfef)" style="stroke: #ffffff; stroke-linejoin: miter"/>
   </g>
   <g id="patch_20">
    <path d="M 76.315909 88.465443 
L 79.486364 88.465443 
L 79.486364 88.285948 
L 76.315909 88.285948 
z
" clip-path="url(#p61c217dfef)" style="stroke: #ffffff; stroke-linejoin: miter"/>
   </g>
   <g id="patch_21">
    <path d="M 79.486364 88.465443 
L 82.656818 88.465443 
L 82.656818 88.266351 
L 79.486364 88.266351 
z
" clip-path="url(#p61c217dfef)" style="stroke: #ffffff; stroke-linejoin: miter"/>
   </g>
   <g id="patch_22">
    <path d="M 82.656818 88.465443 
L 85.827273 88.465443 
L 85.827273 88.457529 
L 82.656818 88.457529 
z
" clip-path="url(#p61c217dfef)" style="stroke: #ffffff; stroke-linejoin: miter"/>
   </g>
   <g id="patch_23">
    <path d="M 85.827273 88.465443 
L 88.997727 88.465443 
L 88.997727 88.457059 
L 85.827273 88.457059 
z
" clip-path="url(#p61c217dfef)" style="stroke: #ffffff; stroke-linejoin: miter"/>
   </g>
   <g id="patch_24">
    <path d="M 88.997727 88.465443 
L 92.168182 88.465443 
L 92.168182 88.399781 
L 88.997727 88.399781 
z
" clip-path="url(#p61c217dfef)" style="stroke: #ffffff; stroke-linejoin: miter"/>
   </g>
   <g id="patch_25">
    <path d="M 92.168182 88.465443 
L 95.338636 88.465443 
L 95.338636 88.242934 
L 92.168182 88.242934 
z
" clip-path="url(#p61c217dfef)" style="stroke: #ffffff; stroke-linejoin: miter"/>
   </g>
   <g id="patch_26">
    <path d="M 95.338636 88.465443 
L 98.509091 88.465443 
L 98.509091 88.441502 
L 95.338636 88.441502 
z
" clip-path="url(#p61c217dfef)" style="stroke: #ffffff; stroke-linejoin: miter"/>
   </g>
   <g id="patch_27">
    <path d="M 98.509091 88.465443 
L 101.679545 88.465443 
L 101.679545 88.45725 
L 98.509091 88.45725 
z
" clip-path="url(#p61c217dfef)" style="stroke: #ffffff; stroke-linejoin: miter"/>
   </g>
   <g id="patch_28">
    <path d="M 101.679545 88.465443 
L 104.85 88.465443 
L 104.85 88.454434 
L 101.679545 88.454434 
z
" clip-path="url(#p61c217dfef)" style="stroke: #ffffff; stroke-linejoin: miter"/>
   </g>
   <g id="patch_29">
    <path d="M 104.85 88.465443 
L 108.020455 88.465443 
L 108.020455 88.295549 
L 104.85 88.295549 
z
" clip-path="url(#p61c217dfef)" style="stroke: #ffffff; stroke-linejoin: miter"/>
   </g>
   <g id="patch_30">
    <path d="M 108.020455 88.465443 
L 111.190909 88.465443 
L 111.190909 88.410278 
L 108.020455 88.410278 
z
" clip-path="url(#p61c217dfef)" style="stroke: #ffffff; stroke-linejoin: miter"/>
   </g>
   <g id="patch_31">
    <path d="M 111.190909 88.465443 
L 114.361364 88.465443 
L 114.361364 88.448613 
L 111.190909 88.448613 
z
" clip-path="url(#p61c217dfef)" style="stroke: #ffffff; stroke-linejoin: miter"/>
   </g>
   <g id="patch_32">
    <path d="M 114.361364 88.465443 
L 117.531818 88.465443 
L 117.531818 88.456937 
L 114.361364 88.456937 
z
" clip-path="url(#p61c217dfef)" style="stroke: #ffffff; stroke-linejoin: miter"/>
   </g>
   <g id="patch_33">
    <path d="M 117.531818 88.465443 
L 120.702273 88.465443 
L 120.702273 88.408627 
L 117.531818 88.408627 
z
" clip-path="url(#p61c217dfef)" style="stroke: #ffffff; stroke-linejoin: miter"/>
   </g>
   <g id="patch_34">
    <path d="M 120.702273 88.465443 
L 123.872727 88.465443 
L 123.872727 88.411687 
L 120.702273 88.411687 
z
" clip-path="url(#p61c217dfef)" style="stroke: #ffffff; stroke-linejoin: miter"/>
   </g>
   <g id="patch_35">
    <path d="M 123.872727 88.465443 
L 127.043182 88.465443 
L 127.043182 88.458451 
L 123.872727 88.458451 
z
" clip-path="url(#p61c217dfef)" style="fill: #ff0000; stroke: #ffffff; stroke-linejoin: miter"/>
   </g>
   <g id="patch_36">
    <path d="M 127.043182 88.465443 
L 130.213636 88.465443 
L 130.213636 88.304311 
L 127.043182 88.304311 
z
" clip-path="url(#p61c217dfef)" style="fill: #ff0000; stroke: #ffffff; stroke-linejoin: miter"/>
   </g>
   <g id="patch_37">
    <path d="M 130.213636 88.465443 
L 133.384091 88.465443 
L 133.384091 75.90398 
L 130.213636 75.90398 
z
" clip-path="url(#p61c217dfef)" style="fill: #ff0000; stroke: #ffffff; stroke-linejoin: miter"/>
   </g>
   <g id="patch_38">
    <path d="M 133.384091 88.465443 
L 136.554545 88.465443 
L 136.554545 88.457336 
L 133.384091 88.457336 
z
" clip-path="url(#p61c217dfef)" style="fill: #ff0000; stroke: #ffffff; stroke-linejoin: miter"/>
   </g>
   <g id="patch_39">
    <path d="M 136.554545 88.465443 
L 139.725 88.465443 
L 139.725 88.457276 
L 136.554545 88.457276 
z
" clip-path="url(#p61c217dfef)" style="fill: #ff0000; stroke: #ffffff; stroke-linejoin: miter"/>
   </g>
   <g id="patch_40">
    <path d="M 139.725 88.465443 
L 142.895455 88.465443 
L 142.895455 88.424176 
L 139.725 88.424176 
z
" clip-path="url(#p61c217dfef)" style="fill: #ff0000; stroke: #ffffff; stroke-linejoin: miter"/>
   </g>
   <g id="patch_41">
    <path d="M 142.895455 88.465443 
L 146.065909 88.465443 
L 146.065909 86.115935 
L 142.895455 86.115935 
z
" clip-path="url(#p61c217dfef)" style="fill: #ff0000; stroke: #ffffff; stroke-linejoin: miter"/>
   </g>
   <g id="patch_42">
    <path d="M 146.065909 88.465443 
L 149.236364 88.465443 
L 149.236364 88.442444 
L 146.065909 88.442444 
z
" clip-path="url(#p61c217dfef)" style="fill: #ff0000; stroke: #ffffff; stroke-linejoin: miter"/>
   </g>
   <g id="patch_43">
    <path d="M 149.236364 88.465443 
L 152.406818 88.465443 
L 152.406818 88.456902 
L 149.236364 88.456902 
z
" clip-path="url(#p61c217dfef)" style="fill: #ff0000; stroke: #ffffff; stroke-linejoin: miter"/>
   </g>
   <g id="patch_44">
    <path d="M 152.406818 88.465443 
L 155.577273 88.465443 
L 155.577273 88.453752 
L 152.406818 88.453752 
z
" clip-path="url(#p61c217dfef)" style="fill: #ff0000; stroke: #ffffff; stroke-linejoin: miter"/>
   </g>
   <g id="patch_45">
    <path d="M 155.577273 88.465443 
L 158.747727 88.465443 
L 158.747727 76.128774 
L 155.577273 76.128774 
z
" clip-path="url(#p61c217dfef)" style="fill: #ff0000; stroke: #ffffff; stroke-linejoin: miter"/>
   </g>
   <g id="patch_46">
    <path d="M 158.747727 88.465443 
L 161.918182 88.465443 
L 161.918182 88.420382 
L 158.747727 88.420382 
z
" clip-path="url(#p61c217dfef)" style="fill: #ff0000; stroke: #ffffff; stroke-linejoin: miter"/>
   </g>
   <g id="patch_47">
    <path d="M 161.918182 88.465443 
L 165.088636 88.465443 
L 165.088636 88.439633 
L 161.918182 88.439633 
z
" clip-path="url(#p61c217dfef)" style="fill: #ff0000; stroke: #ffffff; stroke-linejoin: miter"/>
   </g>
   <g id="patch_48">
    <path d="M 165.088636 88.465443 
L 168.259091 88.465443 
L 168.259091 88.456674 
L 165.088636 88.456674 
z
" clip-path="url(#p61c217dfef)" style="fill: #ff0000; stroke: #ffffff; stroke-linejoin: miter"/>
   </g>
   <g id="patch_49">
    <path d="M 168.259091 88.465443 
L 171.429545 88.465443 
L 171.429545 88.406773 
L 168.259091 88.406773 
z
" clip-path="url(#p61c217dfef)" style="fill: #ff0000; stroke: #ffffff; stroke-linejoin: miter"/>
   </g>
   <g id="patch_50">
    <path d="M 171.429545 88.465443 
L 174.6 88.465443 
L 174.6 88.201967 
L 171.429545 88.201967 
z
" clip-path="url(#p61c217dfef)" style="fill: #ff0000; stroke: #ffffff; stroke-linejoin: miter"/>
   </g>
   <g id="patch_51">
    <path d="M 174.6 88.465443 
L 177.770455 88.465443 
L 177.770455 88.191211 
L 174.6 88.191211 
z
" clip-path="url(#p61c217dfef)" style="fill: #d3d3d3; stroke: #ffffff; stroke-linejoin: miter"/>
   </g>
   <g id="patch_52">
    <path d="M 177.770455 88.465443 
L 180.940909 88.465443 
L 180.940909 88.3301 
L 177.770455 88.3301 
z
" clip-path="url(#p61c217dfef)" style="fill: #d3d3d3; stroke: #ffffff; stroke-linejoin: miter"/>
   </g>
   <g id="patch_53">
    <path d="M 180.940909 88.465443 
L 184.111364 88.465443 
L 184.111364 88.423219 
L 180.940909 88.423219 
z
" clip-path="url(#p61c217dfef)" style="fill: #d3d3d3; stroke: #ffffff; stroke-linejoin: miter"/>
   </g>
   <g id="patch_54">
    <path d="M 184.111364 88.465443 
L 187.281818 88.465443 
L 187.281818 87.972969 
L 184.111364 87.972969 
z
" clip-path="url(#p61c217dfef)" style="fill: #d3d3d3; stroke: #ffffff; stroke-linejoin: miter"/>
   </g>
   <g id="patch_55">
    <path d="M 187.281818 88.465443 
L 190.452273 88.465443 
L 190.452273 88.023943 
L 187.281818 88.023943 
z
" clip-path="url(#p61c217dfef)" style="fill: #d3d3d3; stroke: #ffffff; stroke-linejoin: miter"/>
   </g>
   <g id="patch_56">
    <path d="M 190.452273 88.465443 
L 193.622727 88.465443 
L 193.622727 86.450041 
L 190.452273 86.450041 
z
" clip-path="url(#p61c217dfef)" style="fill: #d3d3d3; stroke: #ffffff; stroke-linejoin: miter"/>
   </g>
   <g id="patch_57">
    <path d="M 193.622727 88.465443 
L 196.793182 88.465443 
L 196.793182 88.235438 
L 193.622727 88.235438 
z
" clip-path="url(#p61c217dfef)" style="fill: #d3d3d3; stroke: #ffffff; stroke-linejoin: miter"/>
   </g>
   <g id="patch_58">
    <path d="M 196.793182 88.465443 
L 199.963636 88.465443 
L 199.963636 86.366457 
L 196.793182 86.366457 
z
" clip-path="url(#p61c217dfef)" style="fill: #d3d3d3; stroke: #ffffff; stroke-linejoin: miter"/>
   </g>
   <g id="patch_59">
    <path d="M 199.963636 88.465443 
L 203.134091 88.465443 
L 203.134091 88.400977 
L 199.963636 88.400977 
z
" clip-path="url(#p61c217dfef)" style="fill: #d3d3d3; stroke: #ffffff; stroke-linejoin: miter"/>
   </g>
   <g id="patch_60">
    <path d="M 203.134091 88.465443 
L 206.304545 88.465443 
L 206.304545 87.87946 
L 203.134091 87.87946 
z
" clip-path="url(#p61c217dfef)" style="fill: #d3d3d3; stroke: #ffffff; stroke-linejoin: miter"/>
   </g>
   <g id="patch_61">
    <path d="M 206.304545 88.465443 
L 209.475 88.465443 
L 209.475 88.296158 
L 206.304545 88.296158 
z
" clip-path="url(#p61c217dfef)" style="fill: #d3d3d3; stroke: #ffffff; stroke-linejoin: miter"/>
   </g>
   <g id="patch_62">
    <path d="M 209.475 88.465443 
L 212.645455 88.465443 
L 212.645455 87.799603 
L 209.475 87.799603 
z
" clip-path="url(#p61c217dfef)" style="fill: #d3d3d3; stroke: #ffffff; stroke-linejoin: miter"/>
   </g>
   <g id="patch_63">
    <path d="M 212.645455 88.465443 
L 215.815909 88.465443 
L 215.815909 87.484064 
L 212.645455 87.484064 
z
" clip-path="url(#p61c217dfef)" style="fill: #d3d3d3; stroke: #ffffff; stroke-linejoin: miter"/>
   </g>
   <g id="patch_64">
    <path d="M 215.815909 88.465443 
L 218.986364 88.465443 
L 218.986364 88.326555 
L 215.815909 88.326555 
z
" clip-path="url(#p61c217dfef)" style="fill: #d3d3d3; stroke: #ffffff; stroke-linejoin: miter"/>
   </g>
   <g id="patch_65">
    <path d="M 218.986364 88.465443 
L 222.156818 88.465443 
L 222.156818 88.392993 
L 218.986364 88.392993 
z
" clip-path="url(#p61c217dfef)" style="fill: #d3d3d3; stroke: #ffffff; stroke-linejoin: miter"/>
   </g>
   <g id="patch_66">
    <path d="M 222.156818 88.465443 
L 225.327273 88.465443 
L 225.327273 87.951996 
L 222.156818 87.951996 
z
" clip-path="url(#p61c217dfef)" style="fill: #d3d3d3; stroke: #ffffff; stroke-linejoin: miter"/>
   </g>
   <g id="patch_67">
    <path d="M 225.327273 88.465443 
L 228.497727 88.465443 
L 228.497727 87.501556 
L 225.327273 87.501556 
z
" clip-path="url(#p61c217dfef)" style="fill: #00ff00; stroke: #ffffff; stroke-linejoin: miter"/>
   </g>
   <g id="patch_68">
    <path d="M 228.497727 88.465443 
L 231.668182 88.465443 
L 231.668182 88.011138 
L 228.497727 88.011138 
z
" clip-path="url(#p61c217dfef)" style="fill: #00ff00; stroke: #ffffff; stroke-linejoin: miter"/>
   </g>
   <g id="patch_69">
    <path d="M 231.668182 88.465443 
L 234.838636 88.465443 
L 234.838636 87.867464 
L 231.668182 87.867464 
z
" clip-path="url(#p61c217dfef)" style="fill: #00ff00; stroke: #ffffff; stroke-linejoin: miter"/>
   </g>
   <g id="patch_70">
    <path d="M 234.838636 88.465443 
L 238.009091 88.465443 
L 238.009091 88.103114 
L 234.838636 88.103114 
z
" clip-path="url(#p61c217dfef)" style="fill: #00ff00; stroke: #ffffff; stroke-linejoin: miter"/>
   </g>
   <g id="patch_71">
    <path d="M 238.009091 88.465443 
L 241.179545 88.465443 
L 241.179545 85.938422 
L 238.009091 85.938422 
z
" clip-path="url(#p61c217dfef)" style="fill: #00ff00; stroke: #ffffff; stroke-linejoin: miter"/>
   </g>
   <g id="patch_72">
    <path d="M 241.179545 88.465443 
L 244.35 88.465443 
L 244.35 81.448182 
L 241.179545 81.448182 
z
" clip-path="url(#p61c217dfef)" style="fill: #00ff00; stroke: #ffffff; stroke-linejoin: miter"/>
   </g>
   <g id="patch_73">
    <path d="M 244.35 88.465443 
L 247.520455 88.465443 
L 247.520455 83.431982 
L 244.35 83.431982 
z
" clip-path="url(#p61c217dfef)" style="fill: #00ff00; stroke: #ffffff; stroke-linejoin: miter"/>
   </g>
   <g id="patch_74">
    <path d="M 247.520455 88.465443 
L 250.690909 88.465443 
L 250.690909 75.601565 
L 247.520455 75.601565 
z
" clip-path="url(#p61c217dfef)" style="fill: #00ff00; stroke: #ffffff; stroke-linejoin: miter"/>
   </g>
   <g id="patch_75">
    <path d="M 250.690909 88.465443 
L 253.861364 88.465443 
L 253.861364 87.649317 
L 250.690909 87.649317 
z
" clip-path="url(#p61c217dfef)" style="fill: #00ff00; stroke: #ffffff; stroke-linejoin: miter"/>
   </g>
   <g id="patch_76">
    <path d="M 253.861364 88.465443 
L 257.031818 88.465443 
L 257.031818 85.062172 
L 253.861364 85.062172 
z
" clip-path="url(#p61c217dfef)" style="fill: #00ff00; stroke: #ffffff; stroke-linejoin: miter"/>
   </g>
   <g id="patch_77">
    <path d="M 257.031818 88.465443 
L 260.202273 88.465443 
L 260.202273 86.825359 
L 257.031818 86.825359 
z
" clip-path="url(#p61c217dfef)" style="fill: #00ff00; stroke: #ffffff; stroke-linejoin: miter"/>
   </g>
   <g id="patch_78">
    <path d="M 260.202273 88.465443 
L 263.372727 88.465443 
L 263.372727 86.335526 
L 260.202273 86.335526 
z
" clip-path="url(#p61c217dfef)" style="fill: #00ff00; stroke: #ffffff; stroke-linejoin: miter"/>
   </g>
   <g id="patch_79">
    <path d="M 263.372727 88.465443 
L 266.543182 88.465443 
L 266.543182 86.383976 
L 263.372727 86.383976 
z
" clip-path="url(#p61c217dfef)" style="fill: #00ff00; stroke: #ffffff; stroke-linejoin: miter"/>
   </g>
   <g id="patch_80">
    <path d="M 266.543182 88.465443 
L 269.713636 88.465443 
L 269.713636 86.725301 
L 266.543182 86.725301 
z
" clip-path="url(#p61c217dfef)" style="fill: #00ff00; stroke: #ffffff; stroke-linejoin: miter"/>
   </g>
   <g id="patch_81">
    <path d="M 269.713636 88.465443 
L 272.884091 88.465443 
L 272.884091 87.153016 
L 269.713636 87.153016 
z
" clip-path="url(#p61c217dfef)" style="fill: #00ff00; stroke: #ffffff; stroke-linejoin: miter"/>
   </g>
   <g id="patch_82">
    <path d="M 272.884091 88.465443 
L 276.054545 88.465443 
L 276.054545 87.814032 
L 272.884091 87.814032 
z
" clip-path="url(#p61c217dfef)" style="fill: #00ff00; stroke: #ffffff; stroke-linejoin: miter"/>
   </g>
   <g id="patch_83">
    <path d="M 276.054545 88.465443 
L 279.225 88.465443 
L 279.225 87.553282 
L 276.054545 87.553282 
z
" clip-path="url(#p61c217dfef)" style="fill: #ffc0cb; stroke: #ffffff; stroke-linejoin: miter"/>
   </g>
   <g id="patch_84">
    <path d="M 279.225 88.465443 
L 282.395455 88.465443 
L 282.395455 87.185228 
L 279.225 87.185228 
z
" clip-path="url(#p61c217dfef)" style="fill: #ffc0cb; stroke: #ffffff; stroke-linejoin: miter"/>
   </g>
   <g id="patch_85">
    <path d="M 282.395455 88.465443 
L 285.565909 88.465443 
L 285.565909 87.85062 
L 282.395455 87.85062 
z
" clip-path="url(#p61c217dfef)" style="fill: #ffc0cb; stroke: #ffffff; stroke-linejoin: miter"/>
   </g>
   <g id="patch_86">
    <path d="M 285.565909 88.465443 
L 288.736364 88.465443 
L 288.736364 80.322825 
L 285.565909 80.322825 
z
" clip-path="url(#p61c217dfef)" style="fill: #ffc0cb; stroke: #ffffff; stroke-linejoin: miter"/>
   </g>
   <g id="patch_87">
    <path d="M 288.736364 88.465443 
L 291.906818 88.465443 
L 291.906818 86.931558 
L 288.736364 86.931558 
z
" clip-path="url(#p61c217dfef)" style="fill: #ffc0cb; stroke: #ffffff; stroke-linejoin: miter"/>
   </g>
   <g id="patch_88">
    <path d="M 291.906818 88.465443 
L 295.077273 88.465443 
L 295.077273 81.553547 
L 291.906818 81.553547 
z
" clip-path="url(#p61c217dfef)" style="fill: #ffc0cb; stroke: #ffffff; stroke-linejoin: miter"/>
   </g>
   <g id="patch_89">
    <path d="M 295.077273 88.465443 
L 298.247727 88.465443 
L 298.247727 85.845582 
L 295.077273 85.845582 
z
" clip-path="url(#p61c217dfef)" style="fill: #ffc0cb; stroke: #ffffff; stroke-linejoin: miter"/>
   </g>
   <g id="patch_90">
    <path d="M 298.247727 88.465443 
L 301.418182 88.465443 
L 301.418182 26.274487 
L 298.247727 26.274487 
z
" clip-path="url(#p61c217dfef)" style="fill: #ffc0cb; stroke: #ffffff; stroke-linejoin: miter"/>
   </g>
   <g id="patch_91">
    <path d="M 301.418182 88.465443 
L 304.588636 88.465443 
L 304.588636 88.10875 
L 301.418182 88.10875 
z
" clip-path="url(#p61c217dfef)" style="fill: #ffc0cb; stroke: #ffffff; stroke-linejoin: miter"/>
   </g>
   <g id="patch_92">
    <path d="M 304.588636 88.465443 
L 307.759091 88.465443 
L 307.759091 84.68432 
L 304.588636 84.68432 
z
" clip-path="url(#p61c217dfef)" style="fill: #ffc0cb; stroke: #ffffff; stroke-linejoin: miter"/>
   </g>
   <g id="patch_93">
    <path d="M 307.759091 88.465443 
L 310.929545 88.465443 
L 310.929545 87.628514 
L 307.759091 87.628514 
z
" clip-path="url(#p61c217dfef)" style="fill: #ffc0cb; stroke: #ffffff; stroke-linejoin: miter"/>
   </g>
   <g id="patch_94">
    <path d="M 310.929545 88.465443 
L 314.1 88.465443 
L 314.1 67.089907 
L 310.929545 67.089907 
z
" clip-path="url(#p61c217dfef)" style="fill: #ffc0cb; stroke: #ffffff; stroke-linejoin: miter"/>
   </g>
   <g id="patch_95">
    <path d="M 314.1 88.465443 
L 317.270455 88.465443 
L 317.270455 86.851797 
L 314.1 86.851797 
z
" clip-path="url(#p61c217dfef)" style="fill: #ffc0cb; stroke: #ffffff; stroke-linejoin: miter"/>
   </g>
   <g id="patch_96">
    <path d="M 317.270455 88.465443 
L 320.440909 88.465443 
L 320.440909 86.300394 
L 317.270455 86.300394 
z
" clip-path="url(#p61c217dfef)" style="fill: #ffc0cb; stroke: #ffffff; stroke-linejoin: miter"/>
   </g>
   <g id="patch_97">
    <path d="M 320.440909 88.465443 
L 323.611364 88.465443 
L 323.611364 86.783538 
L 320.440909 86.783538 
z
" clip-path="url(#p61c217dfef)" style="fill: #ffc0cb; stroke: #ffffff; stroke-linejoin: miter"/>
   </g>
   <g id="patch_98">
    <path d="M 323.611364 88.465443 
L 326.781818 88.465443 
L 326.781818 78.259512 
L 323.611364 78.259512 
z
" clip-path="url(#p61c217dfef)" style="fill: #ffc0cb; stroke: #ffffff; stroke-linejoin: miter"/>
   </g>
   <g id="matplotlib.axis_1"/>
   <g id="matplotlib.axis_2"/>
   <g id="LineCollection_1">
    <path d="M 24.003409 88.467671 
L 24.003409 88.4498 
" clip-path="url(#p61c217dfef)" style="fill: none; stroke: #000000; stroke-opacity: 0.5; stroke-width: 0.5"/>
    <path d="M 27.173864 88.387848 
L 27.173864 88.269286 
" clip-path="url(#p61c217dfef)" style="fill: none; stroke: #000000; stroke-opacity: 0.5; stroke-width: 0.5"/>
    <path d="M 30.344318 88.453933 
L 30.344318 88.124148 
" clip-path="url(#p61c217dfef)" style="fill: none; stroke: #000000; stroke-opacity: 0.5; stroke-width: 0.5"/>
    <path d="M 33.514773 88.467468 
L 33.514773 88.448298 
" clip-path="url(#p61c217dfef)" style="fill: none; stroke: #000000; stroke-opacity: 0.5; stroke-width: 0.5"/>
    <path d="M 36.685227 88.467371 
L 36.685227 88.448281 
" clip-path="url(#p61c217dfef)" style="fill: none; stroke: #000000; stroke-opacity: 0.5; stroke-width: 0.5"/>
    <path d="M 39.855682 88.420577 
L 39.855682 88.336134 
" clip-path="url(#p61c217dfef)" style="fill: none; stroke: #000000; stroke-opacity: 0.5; stroke-width: 0.5"/>
    <path d="M 43.026136 88.234654 
L 43.026136 87.735842 
" clip-path="url(#p61c217dfef)" style="fill: none; stroke: #000000; stroke-opacity: 0.5; stroke-width: 0.5"/>
    <path d="M 46.196591 88.458706 
L 46.196591 88.417129 
" clip-path="url(#p61c217dfef)" style="fill: none; stroke: #000000; stroke-opacity: 0.5; stroke-width: 0.5"/>
    <path d="M 49.367045 88.467736 
L 49.367045 88.445203 
" clip-path="url(#p61c217dfef)" style="fill: none; stroke: #000000; stroke-opacity: 0.5; stroke-width: 0.5"/>
    <path d="M 52.5375 88.46727 
L 52.5375 88.442001 
" clip-path="url(#p61c217dfef)" style="fill: none; stroke: #000000; stroke-opacity: 0.5; stroke-width: 0.5"/>
    <path d="M 55.707955 88.345571 
L 55.707955 87.834975 
" clip-path="url(#p61c217dfef)" style="fill: none; stroke: #000000; stroke-opacity: 0.5; stroke-width: 0.5"/>
    <path d="M 58.878409 88.437803 
L 58.878409 88.367931 
" clip-path="url(#p61c217dfef)" style="fill: none; stroke: #000000; stroke-opacity: 0.5; stroke-width: 0.5"/>
    <path d="M 62.048864 88.420741 
L 62.048864 88.355678 
" clip-path="url(#p61c217dfef)" style="fill: none; stroke: #000000; stroke-opacity: 0.5; stroke-width: 0.5"/>
    <path d="M 65.219318 88.467682 
L 65.219318 88.446051 
" clip-path="url(#p61c217dfef)" style="fill: none; stroke: #000000; stroke-opacity: 0.5; stroke-width: 0.5"/>
    <path d="M 68.389773 88.459436 
L 68.389773 88.34794 
" clip-path="url(#p61c217dfef)" style="fill: none; stroke: #000000; stroke-opacity: 0.5; stroke-width: 0.5"/>
    <path d="M 71.560227 88.345275 
L 71.560227 88.245833 
" clip-path="url(#p61c217dfef)" style="fill: none; stroke: #000000; stroke-opacity: 0.5; stroke-width: 0.5"/>
    <path d="M 74.730682 88.468125 
L 74.730682 88.449094 
" clip-path="url(#p61c217dfef)" style="fill: none; stroke: #000000; stroke-opacity: 0.5; stroke-width: 0.5"/>
    <path d="M 77.901136 88.349383 
L 77.901136 88.222513 
" clip-path="url(#p61c217dfef)" style="fill: none; stroke: #000000; stroke-opacity: 0.5; stroke-width: 0.5"/>
    <path d="M 81.071591 88.440359 
L 81.071591 88.092343 
" clip-path="url(#p61c217dfef)" style="fill: none; stroke: #000000; stroke-opacity: 0.5; stroke-width: 0.5"/>
    <path d="M 84.242045 88.467402 
L 84.242045 88.447657 
" clip-path="url(#p61c217dfef)" style="fill: none; stroke: #000000; stroke-opacity: 0.5; stroke-width: 0.5"/>
    <path d="M 87.4125 88.467708 
L 87.4125 88.446409 
" clip-path="url(#p61c217dfef)" style="fill: none; stroke: #000000; stroke-opacity: 0.5; stroke-width: 0.5"/>
    <path d="M 90.582955 88.437769 
L 90.582955 88.361792 
" clip-path="url(#p61c217dfef)" style="fill: none; stroke: #000000; stroke-opacity: 0.5; stroke-width: 0.5"/>
    <path d="M 93.753409 88.424994 
L 93.753409 88.060875 
" clip-path="url(#p61c217dfef)" style="fill: none; stroke: #000000; stroke-opacity: 0.5; stroke-width: 0.5"/>
    <path d="M 96.923864 88.460717 
L 96.923864 88.422286 
" clip-path="url(#p61c217dfef)" style="fill: none; stroke: #000000; stroke-opacity: 0.5; stroke-width: 0.5"/>
    <path d="M 100.094318 88.467673 
L 100.094318 88.446828 
" clip-path="url(#p61c217dfef)" style="fill: none; stroke: #000000; stroke-opacity: 0.5; stroke-width: 0.5"/>
    <path d="M 103.264773 88.467299 
L 103.264773 88.441569 
" clip-path="url(#p61c217dfef)" style="fill: none; stroke: #000000; stroke-opacity: 0.5; stroke-width: 0.5"/>
    <path d="M 106.435227 88.46221 
L 106.435227 88.128888 
" clip-path="url(#p61c217dfef)" style="fill: none; stroke: #000000; stroke-opacity: 0.5; stroke-width: 0.5"/>
    <path d="M 109.605682 88.442498 
L 109.605682 88.378057 
" clip-path="url(#p61c217dfef)" style="fill: none; stroke: #000000; stroke-opacity: 0.5; stroke-width: 0.5"/>
    <path d="M 112.776136 88.463879 
L 112.776136 88.433347 
" clip-path="url(#p61c217dfef)" style="fill: none; stroke: #000000; stroke-opacity: 0.5; stroke-width: 0.5"/>
    <path d="M 115.946591 88.467652 
L 115.946591 88.446222 
" clip-path="url(#p61c217dfef)" style="fill: none; stroke: #000000; stroke-opacity: 0.5; stroke-width: 0.5"/>
    <path d="M 119.117045 88.462542 
L 119.117045 88.354712 
" clip-path="url(#p61c217dfef)" style="fill: none; stroke: #000000; stroke-opacity: 0.5; stroke-width: 0.5"/>
    <path d="M 122.2875 88.440268 
L 122.2875 88.383106 
" clip-path="url(#p61c217dfef)" style="fill: none; stroke: #000000; stroke-opacity: 0.5; stroke-width: 0.5"/>
    <path d="M 125.457955 88.467734 
L 125.457955 88.449168 
" clip-path="url(#p61c217dfef)" style="fill: none; stroke: #000000; stroke-opacity: 0.5; stroke-width: 0.5"/>
    <path d="M 128.628409 88.363575 
L 128.628409 88.245047 
" clip-path="url(#p61c217dfef)" style="fill: none; stroke: #000000; stroke-opacity: 0.5; stroke-width: 0.5"/>
    <path d="M 131.798864 76.386383 
L 131.798864 75.421577 
" clip-path="url(#p61c217dfef)" style="fill: none; stroke: #000000; stroke-opacity: 0.5; stroke-width: 0.5"/>
    <path d="M 134.969318 88.467851 
L 134.969318 88.446822 
" clip-path="url(#p61c217dfef)" style="fill: none; stroke: #000000; stroke-opacity: 0.5; stroke-width: 0.5"/>
    <path d="M 138.139773 88.46762 
L 138.139773 88.446931 
" clip-path="url(#p61c217dfef)" style="fill: none; stroke: #000000; stroke-opacity: 0.5; stroke-width: 0.5"/>
    <path d="M 141.310227 88.454104 
L 141.310227 88.394249 
" clip-path="url(#p61c217dfef)" style="fill: none; stroke: #000000; stroke-opacity: 0.5; stroke-width: 0.5"/>
    <path d="M 144.480682 86.456191 
L 144.480682 85.77568 
" clip-path="url(#p61c217dfef)" style="fill: none; stroke: #000000; stroke-opacity: 0.5; stroke-width: 0.5"/>
    <path d="M 147.651136 88.461775 
L 147.651136 88.423113 
" clip-path="url(#p61c217dfef)" style="fill: none; stroke: #000000; stroke-opacity: 0.5; stroke-width: 0.5"/>
    <path d="M 150.821591 88.467377 
L 150.821591 88.446427 
" clip-path="url(#p61c217dfef)" style="fill: none; stroke: #000000; stroke-opacity: 0.5; stroke-width: 0.5"/>
    <path d="M 153.992045 88.467452 
L 153.992045 88.440051 
" clip-path="url(#p61c217dfef)" style="fill: none; stroke: #000000; stroke-opacity: 0.5; stroke-width: 0.5"/>
    <path d="M 157.1625 76.663039 
L 157.1625 75.59451 
" clip-path="url(#p61c217dfef)" style="fill: none; stroke: #000000; stroke-opacity: 0.5; stroke-width: 0.5"/>
    <path d="M 160.332955 88.451576 
L 160.332955 88.389188 
" clip-path="url(#p61c217dfef)" style="fill: none; stroke: #000000; stroke-opacity: 0.5; stroke-width: 0.5"/>
    <path d="M 163.503409 88.458314 
L 163.503409 88.420953 
" clip-path="url(#p61c217dfef)" style="fill: none; stroke: #000000; stroke-opacity: 0.5; stroke-width: 0.5"/>
    <path d="M 166.673864 88.467847 
L 166.673864 88.4455 
" clip-path="url(#p61c217dfef)" style="fill: none; stroke: #000000; stroke-opacity: 0.5; stroke-width: 0.5"/>
    <path d="M 169.844318 88.462144 
L 169.844318 88.351402 
" clip-path="url(#p61c217dfef)" style="fill: none; stroke: #000000; stroke-opacity: 0.5; stroke-width: 0.5"/>
    <path d="M 173.014773 88.265066 
L 173.014773 88.138867 
" clip-path="url(#p61c217dfef)" style="fill: none; stroke: #000000; stroke-opacity: 0.5; stroke-width: 0.5"/>
    <path d="M 176.185227 88.254546 
L 176.185227 88.127876 
" clip-path="url(#p61c217dfef)" style="fill: none; stroke: #000000; stroke-opacity: 0.5; stroke-width: 0.5"/>
    <path d="M 179.355682 88.384586 
L 179.355682 88.275613 
" clip-path="url(#p61c217dfef)" style="fill: none; stroke: #000000; stroke-opacity: 0.5; stroke-width: 0.5"/>
    <path d="M 182.526136 88.448898 
L 182.526136 88.39754 
" clip-path="url(#p61c217dfef)" style="fill: none; stroke: #000000; stroke-opacity: 0.5; stroke-width: 0.5"/>
    <path d="M 185.696591 88.050303 
L 185.696591 87.895636 
" clip-path="url(#p61c217dfef)" style="fill: none; stroke: #000000; stroke-opacity: 0.5; stroke-width: 0.5"/>
    <path d="M 188.867045 88.123907 
L 188.867045 87.923978 
" clip-path="url(#p61c217dfef)" style="fill: none; stroke: #000000; stroke-opacity: 0.5; stroke-width: 0.5"/>
    <path d="M 192.0375 86.644381 
L 192.0375 86.2557 
" clip-path="url(#p61c217dfef)" style="fill: none; stroke: #000000; stroke-opacity: 0.5; stroke-width: 0.5"/>
    <path d="M 195.207955 88.297476 
L 195.207955 88.173399 
" clip-path="url(#p61c217dfef)" style="fill: none; stroke: #000000; stroke-opacity: 0.5; stroke-width: 0.5"/>
    <path d="M 198.378409 86.54612 
L 198.378409 86.186795 
" clip-path="url(#p61c217dfef)" style="fill: none; stroke: #000000; stroke-opacity: 0.5; stroke-width: 0.5"/>
    <path d="M 201.548864 88.442498 
L 201.548864 88.359455 
" clip-path="url(#p61c217dfef)" style="fill: none; stroke: #000000; stroke-opacity: 0.5; stroke-width: 0.5"/>
    <path d="M 204.719318 88.014086 
L 204.719318 87.744834 
" clip-path="url(#p61c217dfef)" style="fill: none; stroke: #000000; stroke-opacity: 0.5; stroke-width: 0.5"/>
    <path d="M 207.889773 88.354635 
L 207.889773 88.23768 
" clip-path="url(#p61c217dfef)" style="fill: none; stroke: #000000; stroke-opacity: 0.5; stroke-width: 0.5"/>
    <path d="M 211.060227 87.918187 
L 211.060227 87.68102 
" clip-path="url(#p61c217dfef)" style="fill: none; stroke: #000000; stroke-opacity: 0.5; stroke-width: 0.5"/>
    <path d="M 214.230682 87.597656 
L 214.230682 87.370473 
" clip-path="url(#p61c217dfef)" style="fill: none; stroke: #000000; stroke-opacity: 0.5; stroke-width: 0.5"/>
    <path d="M 217.401136 88.374608 
L 217.401136 88.278502 
" clip-path="url(#p61c217dfef)" style="fill: none; stroke: #000000; stroke-opacity: 0.5; stroke-width: 0.5"/>
    <path d="M 220.571591 88.428013 
L 220.571591 88.357973 
" clip-path="url(#p61c217dfef)" style="fill: none; stroke: #000000; stroke-opacity: 0.5; stroke-width: 0.5"/>
    <path d="M 223.742045 88.017785 
L 223.742045 87.886206 
" clip-path="url(#p61c217dfef)" style="fill: none; stroke: #000000; stroke-opacity: 0.5; stroke-width: 0.5"/>
    <path d="M 226.9125 87.617521 
L 226.9125 87.385591 
" clip-path="url(#p61c217dfef)" style="fill: none; stroke: #000000; stroke-opacity: 0.5; stroke-width: 0.5"/>
    <path d="M 230.082955 88.109259 
L 230.082955 87.913017 
" clip-path="url(#p61c217dfef)" style="fill: none; stroke: #000000; stroke-opacity: 0.5; stroke-width: 0.5"/>
    <path d="M 233.253409 87.961867 
L 233.253409 87.77306 
" clip-path="url(#p61c217dfef)" style="fill: none; stroke: #000000; stroke-opacity: 0.5; stroke-width: 0.5"/>
    <path d="M 236.423864 88.169136 
L 236.423864 88.037092 
" clip-path="url(#p61c217dfef)" style="fill: none; stroke: #000000; stroke-opacity: 0.5; stroke-width: 0.5"/>
    <path d="M 239.594318 86.15669 
L 239.594318 85.720155 
" clip-path="url(#p61c217dfef)" style="fill: none; stroke: #000000; stroke-opacity: 0.5; stroke-width: 0.5"/>
    <path d="M 242.764773 81.790684 
L 242.764773 81.105681 
" clip-path="url(#p61c217dfef)" style="fill: none; stroke: #000000; stroke-opacity: 0.5; stroke-width: 0.5"/>
    <path d="M 245.935227 83.726939 
L 245.935227 83.137025 
" clip-path="url(#p61c217dfef)" style="fill: none; stroke: #000000; stroke-opacity: 0.5; stroke-width: 0.5"/>
    <path d="M 249.105682 76.047127 
L 249.105682 75.156003 
" clip-path="url(#p61c217dfef)" style="fill: none; stroke: #000000; stroke-opacity: 0.5; stroke-width: 0.5"/>
    <path d="M 252.276136 87.771805 
L 252.276136 87.52683 
" clip-path="url(#p61c217dfef)" style="fill: none; stroke: #000000; stroke-opacity: 0.5; stroke-width: 0.5"/>
    <path d="M 255.446591 85.355082 
L 255.446591 84.769262 
" clip-path="url(#p61c217dfef)" style="fill: none; stroke: #000000; stroke-opacity: 0.5; stroke-width: 0.5"/>
    <path d="M 258.617045 86.998862 
L 258.617045 86.651856 
" clip-path="url(#p61c217dfef)" style="fill: none; stroke: #000000; stroke-opacity: 0.5; stroke-width: 0.5"/>
    <path d="M 261.7875 86.548052 
L 261.7875 86.123001 
" clip-path="url(#p61c217dfef)" style="fill: none; stroke: #000000; stroke-opacity: 0.5; stroke-width: 0.5"/>
    <path d="M 264.957955 86.557363 
L 264.957955 86.210589 
" clip-path="url(#p61c217dfef)" style="fill: none; stroke: #000000; stroke-opacity: 0.5; stroke-width: 0.5"/>
    <path d="M 268.128409 86.88941 
L 268.128409 86.561193 
" clip-path="url(#p61c217dfef)" style="fill: none; stroke: #000000; stroke-opacity: 0.5; stroke-width: 0.5"/>
    <path d="M 271.298864 87.294917 
L 271.298864 87.011114 
" clip-path="url(#p61c217dfef)" style="fill: none; stroke: #000000; stroke-opacity: 0.5; stroke-width: 0.5"/>
    <path d="M 274.469318 87.888458 
L 274.469318 87.739607 
" clip-path="url(#p61c217dfef)" style="fill: none; stroke: #000000; stroke-opacity: 0.5; stroke-width: 0.5"/>
    <path d="M 277.639773 87.66825 
L 277.639773 87.438313 
" clip-path="url(#p61c217dfef)" style="fill: none; stroke: #000000; stroke-opacity: 0.5; stroke-width: 0.5"/>
    <path d="M 280.810227 87.338858 
L 280.810227 87.031599 
" clip-path="url(#p61c217dfef)" style="fill: none; stroke: #000000; stroke-opacity: 0.5; stroke-width: 0.5"/>
    <path d="M 283.980682 87.946901 
L 283.980682 87.75434 
" clip-path="url(#p61c217dfef)" style="fill: none; stroke: #000000; stroke-opacity: 0.5; stroke-width: 0.5"/>
    <path d="M 287.151136 80.670266 
L 287.151136 79.975384 
" clip-path="url(#p61c217dfef)" style="fill: none; stroke: #000000; stroke-opacity: 0.5; stroke-width: 0.5"/>
    <path d="M 290.321591 87.101617 
L 290.321591 86.761499 
" clip-path="url(#p61c217dfef)" style="fill: none; stroke: #000000; stroke-opacity: 0.5; stroke-width: 0.5"/>
    <path d="M 293.492045 81.894947 
L 293.492045 81.212146 
" clip-path="url(#p61c217dfef)" style="fill: none; stroke: #000000; stroke-opacity: 0.5; stroke-width: 0.5"/>
    <path d="M 296.6625 86.053761 
L 296.6625 85.637404 
" clip-path="url(#p61c217dfef)" style="fill: none; stroke: #000000; stroke-opacity: 0.5; stroke-width: 0.5"/>
    <path d="M 299.832955 27.080848 
L 299.832955 25.468125 
" clip-path="url(#p61c217dfef)" style="fill: none; stroke: #000000; stroke-opacity: 0.5; stroke-width: 0.5"/>
    <path d="M 303.003409 88.204593 
L 303.003409 88.012907 
" clip-path="url(#p61c217dfef)" style="fill: none; stroke: #000000; stroke-opacity: 0.5; stroke-width: 0.5"/>
    <path d="M 306.173864 85.00149 
L 306.173864 84.36715 
" clip-path="url(#p61c217dfef)" style="fill: none; stroke: #000000; stroke-opacity: 0.5; stroke-width: 0.5"/>
    <path d="M 309.344318 87.758437 
L 309.344318 87.498592 
" clip-path="url(#p61c217dfef)" style="fill: none; stroke: #000000; stroke-opacity: 0.5; stroke-width: 0.5"/>
    <path d="M 312.514773 67.63274 
L 312.514773 66.547075 
" clip-path="url(#p61c217dfef)" style="fill: none; stroke: #000000; stroke-opacity: 0.5; stroke-width: 0.5"/>
    <path d="M 315.685227 87.004411 
L 315.685227 86.699182 
" clip-path="url(#p61c217dfef)" style="fill: none; stroke: #000000; stroke-opacity: 0.5; stroke-width: 0.5"/>
    <path d="M 318.855682 86.478704 
L 318.855682 86.122085 
" clip-path="url(#p61c217dfef)" style="fill: none; stroke: #000000; stroke-opacity: 0.5; stroke-width: 0.5"/>
    <path d="M 322.026136 86.947729 
L 322.026136 86.619348 
" clip-path="url(#p61c217dfef)" style="fill: none; stroke: #000000; stroke-opacity: 0.5; stroke-width: 0.5"/>
    <path d="M 325.196591 78.647827 
L 325.196591 77.871196 
" clip-path="url(#p61c217dfef)" style="fill: none; stroke: #000000; stroke-opacity: 0.5; stroke-width: 0.5"/>
   </g>
   <g id="patch_99">
    <path d="M 7.2 91.618125 
L 342 91.618125 
" style="fill: none; stroke: #000000; stroke-width: 0.8; stroke-linejoin: miter; stroke-linecap: square"/>
   </g>
   <g id="text_1">
    <!-- Component 1 -->
    <g transform="translate(134.040937 16.318125) scale(0.12 -0.12)">
     <defs>
      <path id="DejaVuSans-43" d="M 4122 4306 
L 4122 3641 
Q 3803 3938 3442 4084 
Q 3081 4231 2675 4231 
Q 1875 4231 1450 3742 
Q 1025 3253 1025 2328 
Q 1025 1406 1450 917 
Q 1875 428 2675 428 
Q 3081 428 3442 575 
Q 3803 722 4122 1019 
L 4122 359 
Q 3791 134 3420 21 
Q 3050 -91 2638 -91 
Q 1578 -91 968 557 
Q 359 1206 359 2328 
Q 359 3453 968 4101 
Q 1578 4750 2638 4750 
Q 3056 4750 3426 4639 
Q 3797 4528 4122 4306 
z
" transform="scale(0.015625)"/>
      <path id="DejaVuSans-6f" d="M 1959 3097 
Q 1497 3097 1228 2736 
Q 959 2375 959 1747 
Q 959 1119 1226 758 
Q 1494 397 1959 397 
Q 2419 397 2687 759 
Q 2956 1122 2956 1747 
Q 2956 2369 2687 2733 
Q 2419 3097 1959 3097 
z
M 1959 3584 
Q 2709 3584 3137 3096 
Q 3566 2609 3566 1747 
Q 3566 888 3137 398 
Q 2709 -91 1959 -91 
Q 1206 -91 779 398 
Q 353 888 353 1747 
Q 353 2609 779 3096 
Q 1206 3584 1959 3584 
z
" transform="scale(0.015625)"/>
      <path id="DejaVuSans-6d" d="M 3328 2828 
Q 3544 3216 3844 3400 
Q 4144 3584 4550 3584 
Q 5097 3584 5394 3201 
Q 5691 2819 5691 2113 
L 5691 0 
L 5113 0 
L 5113 2094 
Q 5113 2597 4934 2840 
Q 4756 3084 4391 3084 
Q 3944 3084 3684 2787 
Q 3425 2491 3425 1978 
L 3425 0 
L 2847 0 
L 2847 2094 
Q 2847 2600 2669 2842 
Q 2491 3084 2119 3084 
Q 1678 3084 1418 2786 
Q 1159 2488 1159 1978 
L 1159 0 
L 581 0 
L 581 3500 
L 1159 3500 
L 1159 2956 
Q 1356 3278 1631 3431 
Q 1906 3584 2284 3584 
Q 2666 3584 2933 3390 
Q 3200 3197 3328 2828 
z
" transform="scale(0.015625)"/>
      <path id="DejaVuSans-70" d="M 1159 525 
L 1159 -1331 
L 581 -1331 
L 581 3500 
L 1159 3500 
L 1159 2969 
Q 1341 3281 1617 3432 
Q 1894 3584 2278 3584 
Q 2916 3584 3314 3078 
Q 3713 2572 3713 1747 
Q 3713 922 3314 415 
Q 2916 -91 2278 -91 
Q 1894 -91 1617 61 
Q 1341 213 1159 525 
z
M 3116 1747 
Q 3116 2381 2855 2742 
Q 2594 3103 2138 3103 
Q 1681 3103 1420 2742 
Q 1159 2381 1159 1747 
Q 1159 1113 1420 752 
Q 1681 391 2138 391 
Q 2594 391 2855 752 
Q 3116 1113 3116 1747 
z
" transform="scale(0.015625)"/>
      <path id="DejaVuSans-6e" d="M 3513 2113 
L 3513 0 
L 2938 0 
L 2938 2094 
Q 2938 2591 2744 2837 
Q 2550 3084 2163 3084 
Q 1697 3084 1428 2787 
Q 1159 2491 1159 1978 
L 1159 0 
L 581 0 
L 581 3500 
L 1159 3500 
L 1159 2956 
Q 1366 3272 1645 3428 
Q 1925 3584 2291 3584 
Q 2894 3584 3203 3211 
Q 3513 2838 3513 2113 
z
" transform="scale(0.015625)"/>
      <path id="DejaVuSans-65" d="M 3597 1894 
L 3597 1613 
L 953 1613 
Q 991 1019 1311 708 
Q 1631 397 2203 397 
Q 2534 397 2845 478 
Q 3156 559 3463 722 
L 3463 178 
Q 3153 47 2828 -22 
Q 2503 -91 2169 -91 
Q 1331 -91 842 396 
Q 353 884 353 1716 
Q 353 2575 817 3079 
Q 1281 3584 2069 3584 
Q 2775 3584 3186 3129 
Q 3597 2675 3597 1894 
z
M 3022 2063 
Q 3016 2534 2758 2815 
Q 2500 3097 2075 3097 
Q 1594 3097 1305 2825 
Q 1016 2553 972 2059 
L 3022 2063 
z
" transform="scale(0.015625)"/>
      <path id="DejaVuSans-74" d="M 1172 4494 
L 1172 3500 
L 2356 3500 
L 2356 3053 
L 1172 3053 
L 1172 1153 
Q 1172 725 1289 603 
Q 1406 481 1766 481 
L 2356 481 
L 2356 0 
L 1766 0 
Q 1100 0 847 248 
Q 594 497 594 1153 
L 594 3053 
L 172 3053 
L 172 3500 
L 594 3500 
L 594 4494 
L 1172 4494 
z
" transform="scale(0.015625)"/>
      <path id="DejaVuSans-20" transform="scale(0.015625)"/>
      <path id="DejaVuSans-31" d="M 794 531 
L 1825 531 
L 1825 4091 
L 703 3866 
L 703 4441 
L 1819 4666 
L 2450 4666 
L 2450 531 
L 3481 531 
L 3481 0 
L 794 0 
L 794 531 
z
" transform="scale(0.015625)"/>
     </defs>
     <use xlink:href="#DejaVuSans-43"/>
     <use xlink:href="#DejaVuSans-6f" x="69.824219"/>
     <use xlink:href="#DejaVuSans-6d" x="131.005859"/>
     <use xlink:href="#DejaVuSans-70" x="228.417969"/>
     <use xlink:href="#DejaVuSans-6f" x="291.894531"/>
     <use xlink:href="#DejaVuSans-6e" x="353.076172"/>
     <use xlink:href="#DejaVuSans-65" x="416.455078"/>
     <use xlink:href="#DejaVuSans-6e" x="477.978516"/>
     <use xlink:href="#DejaVuSans-74" x="541.357422"/>
     <use xlink:href="#DejaVuSans-20" x="580.566406"/>
     <use xlink:href="#DejaVuSans-31" x="612.353516"/>
    </g>
   </g>
  </g>
 </g>
 <defs>
  <clipPath id="p61c217dfef">
   <rect x="7.2" y="22.318125" width="334.8" height="69.3"/>
  </clipPath>
 </defs>
</svg>
