<?xml version="1.0" encoding="utf-8" standalone="no"?>
<!DOCTYPE svg PUBLIC "-//W3C//DTD SVG 1.1//EN"
  "http://www.w3.org/Graphics/SVG/1.1/DTD/svg11.dtd">
<svg xmlns:xlink="http://www.w3.org/1999/xlink" width="349.2pt" height="102.318125pt" viewBox="0 0 349.2 102.318125" xmlns="http://www.w3.org/2000/svg" version="1.1">
 <metadata>
  <rdf:RDF xmlns:dc="http://purl.org/dc/elements/1.1/" xmlns:cc="http://creativecommons.org/ns#" xmlns:rdf="http://www.w3.org/1999/02/22-rdf-syntax-ns#">
   <cc:Work>
    <dc:type rdf:resource="http://purl.org/dc/dcmitype/StillImage"/>
    <dc:date>2023-01-30T19:08:27.610555</dc:date>
    <dc:format>image/svg+xml</dc:format>
    <dc:creator>
     <cc:Agent>
      <dc:title>Matplotlib v3.6.3, https://matplotlib.org/</dc:title>
     </cc:Agent>
    </dc:creator>
   </cc:Work>
  </rdf:RDF>
 </metadata>
 <defs>
  <style type="text/css">*{stroke-linejoin: round; stroke-linecap: butt}</style>
 </defs>
 <g id="figure_1">
  <g id="patch_1">
   <path d="M 0 102.318125 
L 349.2 102.318125 
L 349.2 0 
L 0 0 
z
" style="fill: #ffffff"/>
  </g>
  <g id="axes_1">
   <g id="patch_2">
    <path d="M 7.2 91.618125 
L 342 91.618125 
L 342 22.318125 
L 7.2 22.318125 
z
" style="fill: #ffffff"/>
   </g>
   <g id="patch_3">
    <path d="M 22.418182 88.460765 
L 25.588636 88.460765 
L 25.588636 88.45375 
L 22.418182 88.45375 
z
" clip-path="url(#p330997a9d7)" style="fill: #00ffff; stroke: #ffffff; stroke-linejoin: miter"/>
   </g>
   <g id="patch_4">
    <path d="M 25.588636 88.460765 
L 28.759091 88.460765 
L 28.759091 88.323193 
L 25.588636 88.323193 
z
" clip-path="url(#p330997a9d7)" style="fill: #00ffff; stroke: #ffffff; stroke-linejoin: miter"/>
   </g>
   <g id="patch_5">
    <path d="M 28.759091 88.460765 
L 31.929545 88.460765 
L 31.929545 88.288181 
L 28.759091 88.288181 
z
" clip-path="url(#p330997a9d7)" style="fill: #00ffff; stroke: #ffffff; stroke-linejoin: miter"/>
   </g>
   <g id="patch_6">
    <path d="M 31.929545 88.460765 
L 35.1 88.460765 
L 35.1 88.453123 
L 31.929545 88.453123 
z
" clip-path="url(#p330997a9d7)" style="fill: #00ffff; stroke: #ffffff; stroke-linejoin: miter"/>
   </g>
   <g id="patch_7">
    <path d="M 35.1 88.460765 
L 38.270455 88.460765 
L 38.270455 88.452939 
L 35.1 88.452939 
z
" clip-path="url(#p330997a9d7)" style="fill: #00ffff; stroke: #ffffff; stroke-linejoin: miter"/>
   </g>
   <g id="patch_8">
    <path d="M 38.270455 88.460765 
L 41.440909 88.460765 
L 41.440909 88.375283 
L 38.270455 88.375283 
z
" clip-path="url(#p330997a9d7)" style="fill: #00ffff; stroke: #ffffff; stroke-linejoin: miter"/>
   </g>
   <g id="patch_9">
    <path d="M 41.440909 88.460765 
L 44.611364 88.460765 
L 44.611364 87.988782 
L 41.440909 87.988782 
z
" clip-path="url(#p330997a9d7)" style="fill: #00ffff; stroke: #ffffff; stroke-linejoin: miter"/>
   </g>
   <g id="patch_10">
    <path d="M 44.611364 88.460765 
L 47.781818 88.460765 
L 47.781818 88.432835 
L 44.611364 88.432835 
z
" clip-path="url(#p330997a9d7)" style="fill: #00ffff; stroke: #ffffff; stroke-linejoin: miter"/>
   </g>
   <g id="patch_11">
    <path d="M 47.781818 88.460765 
L 50.952273 88.460765 
L 50.952273 88.451946 
L 47.781818 88.451946 
z
" clip-path="url(#p330997a9d7)" style="fill: #00ffff; stroke: #ffffff; stroke-linejoin: miter"/>
   </g>
   <g id="patch_12">
    <path d="M 50.952273 88.460765 
L 54.122727 88.460765 
L 54.122727 88.449513 
L 50.952273 88.449513 
z
" clip-path="url(#p330997a9d7)" style="fill: #00ffff; stroke: #ffffff; stroke-linejoin: miter"/>
   </g>
   <g id="patch_13">
    <path d="M 54.122727 88.460765 
L 57.293182 88.460765 
L 57.293182 88.090821 
L 54.122727 88.090821 
z
" clip-path="url(#p330997a9d7)" style="fill: #00ffff; stroke: #ffffff; stroke-linejoin: miter"/>
   </g>
   <g id="patch_14">
    <path d="M 57.293182 88.460765 
L 60.463636 88.460765 
L 60.463636 88.398502 
L 57.293182 88.398502 
z
" clip-path="url(#p330997a9d7)" style="fill: #00ffff; stroke: #ffffff; stroke-linejoin: miter"/>
   </g>
   <g id="patch_15">
    <path d="M 60.463636 88.460765 
L 63.634091 88.460765 
L 63.634091 88.383015 
L 60.463636 88.383015 
z
" clip-path="url(#p330997a9d7)" style="fill: #00ffff; stroke: #ffffff; stroke-linejoin: miter"/>
   </g>
   <g id="patch_16">
    <path d="M 63.634091 88.460765 
L 66.804545 88.460765 
L 66.804545 88.451547 
L 63.634091 88.451547 
z
" clip-path="url(#p330997a9d7)" style="fill: #00ffff; stroke: #ffffff; stroke-linejoin: miter"/>
   </g>
   <g id="patch_17">
    <path d="M 66.804545 88.460765 
L 69.975 88.460765 
L 69.975 88.397928 
L 66.804545 88.397928 
z
" clip-path="url(#p330997a9d7)" style="fill: #00ffff; stroke: #ffffff; stroke-linejoin: miter"/>
   </g>
   <g id="patch_18">
    <path d="M 69.975 88.460765 
L 73.145455 88.460765 
L 73.145455 88.289765 
L 69.975 88.289765 
z
" clip-path="url(#p330997a9d7)" style="fill: #00ffff; stroke: #ffffff; stroke-linejoin: miter"/>
   </g>
   <g id="patch_19">
    <path d="M 73.145455 88.460765 
L 76.315909 88.460765 
L 76.315909 88.453739 
L 73.145455 88.453739 
z
" clip-path="url(#p330997a9d7)" style="stroke: #ffffff; stroke-linejoin: miter"/>
   </g>
   <g id="patch_20">
    <path d="M 76.315909 88.460765 
L 79.486364 88.460765 
L 79.486364 88.282094 
L 76.315909 88.282094 
z
" clip-path="url(#p330997a9d7)" style="stroke: #ffffff; stroke-linejoin: miter"/>
   </g>
   <g id="patch_21">
    <path d="M 79.486364 88.460765 
L 82.656818 88.460765 
L 82.656818 88.265359 
L 79.486364 88.265359 
z
" clip-path="url(#p330997a9d7)" style="stroke: #ffffff; stroke-linejoin: miter"/>
   </g>
   <g id="patch_22">
    <path d="M 82.656818 88.460765 
L 85.827273 88.460765 
L 85.827273 88.452808 
L 82.656818 88.452808 
z
" clip-path="url(#p330997a9d7)" style="stroke: #ffffff; stroke-linejoin: miter"/>
   </g>
   <g id="patch_23">
    <path d="M 85.827273 88.460765 
L 88.997727 88.460765 
L 88.997727 88.451927 
L 85.827273 88.451927 
z
" clip-path="url(#p330997a9d7)" style="stroke: #ffffff; stroke-linejoin: miter"/>
   </g>
   <g id="patch_24">
    <path d="M 88.997727 88.460765 
L 92.168182 88.460765 
L 92.168182 88.394473 
L 88.997727 88.394473 
z
" clip-path="url(#p330997a9d7)" style="stroke: #ffffff; stroke-linejoin: miter"/>
   </g>
   <g id="patch_25">
    <path d="M 92.168182 88.460765 
L 95.338636 88.460765 
L 95.338636 88.238369 
L 92.168182 88.238369 
z
" clip-path="url(#p330997a9d7)" style="stroke: #ffffff; stroke-linejoin: miter"/>
   </g>
   <g id="patch_26">
    <path d="M 95.338636 88.460765 
L 98.509091 88.460765 
L 98.509091 88.436701 
L 95.338636 88.436701 
z
" clip-path="url(#p330997a9d7)" style="stroke: #ffffff; stroke-linejoin: miter"/>
   </g>
   <g id="patch_27">
    <path d="M 98.509091 88.460765 
L 101.679545 88.460765 
L 101.679545 88.452833 
L 98.509091 88.452833 
z
" clip-path="url(#p330997a9d7)" style="stroke: #ffffff; stroke-linejoin: miter"/>
   </g>
   <g id="patch_28">
    <path d="M 101.679545 88.460765 
L 104.85 88.460765 
L 104.85 88.449064 
L 101.679545 88.449064 
z
" clip-path="url(#p330997a9d7)" style="stroke: #ffffff; stroke-linejoin: miter"/>
   </g>
   <g id="patch_29">
    <path d="M 104.85 88.460765 
L 108.020455 88.460765 
L 108.020455 88.288866 
L 104.85 88.288866 
z
" clip-path="url(#p330997a9d7)" style="stroke: #ffffff; stroke-linejoin: miter"/>
   </g>
   <g id="patch_30">
    <path d="M 108.020455 88.460765 
L 111.190909 88.460765 
L 111.190909 88.404767 
L 108.020455 88.404767 
z
" clip-path="url(#p330997a9d7)" style="stroke: #ffffff; stroke-linejoin: miter"/>
   </g>
   <g id="patch_31">
    <path d="M 111.190909 88.460765 
L 114.361364 88.460765 
L 114.361364 88.443602 
L 111.190909 88.443602 
z
" clip-path="url(#p330997a9d7)" style="stroke: #ffffff; stroke-linejoin: miter"/>
   </g>
   <g id="patch_32">
    <path d="M 114.361364 88.460765 
L 117.531818 88.460765 
L 117.531818 88.45182 
L 114.361364 88.45182 
z
" clip-path="url(#p330997a9d7)" style="stroke: #ffffff; stroke-linejoin: miter"/>
   </g>
   <g id="patch_33">
    <path d="M 117.531818 88.460765 
L 120.702273 88.460765 
L 120.702273 88.403052 
L 117.531818 88.403052 
z
" clip-path="url(#p330997a9d7)" style="stroke: #ffffff; stroke-linejoin: miter"/>
   </g>
   <g id="patch_34">
    <path d="M 120.702273 88.460765 
L 123.872727 88.460765 
L 123.872727 88.40525 
L 120.702273 88.40525 
z
" clip-path="url(#p330997a9d7)" style="stroke: #ffffff; stroke-linejoin: miter"/>
   </g>
   <g id="patch_35">
    <path d="M 123.872727 88.460765 
L 127.043182 88.460765 
L 127.043182 88.453673 
L 123.872727 88.453673 
z
" clip-path="url(#p330997a9d7)" style="fill: #ff0000; stroke: #ffffff; stroke-linejoin: miter"/>
   </g>
   <g id="patch_36">
    <path d="M 127.043182 88.460765 
L 130.213636 88.460765 
L 130.213636 88.300509 
L 127.043182 88.300509 
z
" clip-path="url(#p330997a9d7)" style="fill: #ff0000; stroke: #ffffff; stroke-linejoin: miter"/>
   </g>
   <g id="patch_37">
    <path d="M 130.213636 88.460765 
L 133.384091 88.460765 
L 133.384091 75.903375 
L 130.213636 75.903375 
z
" clip-path="url(#p330997a9d7)" style="fill: #ff0000; stroke: #ffffff; stroke-linejoin: miter"/>
   </g>
   <g id="patch_38">
    <path d="M 133.384091 88.460765 
L 136.554545 88.460765 
L 136.554545 88.453003 
L 133.384091 88.453003 
z
" clip-path="url(#p330997a9d7)" style="fill: #ff0000; stroke: #ffffff; stroke-linejoin: miter"/>
   </g>
   <g id="patch_39">
    <path d="M 136.554545 88.460765 
L 139.725 88.460765 
L 139.725 88.452537 
L 136.554545 88.452537 
z
" clip-path="url(#p330997a9d7)" style="fill: #ff0000; stroke: #ffffff; stroke-linejoin: miter"/>
   </g>
   <g id="patch_40">
    <path d="M 139.725 88.460765 
L 142.895455 88.460765 
L 142.895455 88.419205 
L 139.725 88.419205 
z
" clip-path="url(#p330997a9d7)" style="fill: #ff0000; stroke: #ffffff; stroke-linejoin: miter"/>
   </g>
   <g id="patch_41">
    <path d="M 142.895455 88.460765 
L 146.065909 88.460765 
L 146.065909 86.09707 
L 142.895455 86.09707 
z
" clip-path="url(#p330997a9d7)" style="fill: #ff0000; stroke: #ffffff; stroke-linejoin: miter"/>
   </g>
   <g id="patch_42">
    <path d="M 146.065909 88.460765 
L 149.236364 88.460765 
L 149.236364 88.438772 
L 146.065909 88.438772 
z
" clip-path="url(#p330997a9d7)" style="fill: #ff0000; stroke: #ffffff; stroke-linejoin: miter"/>
   </g>
   <g id="patch_43">
    <path d="M 149.236364 88.460765 
L 152.406818 88.460765 
L 152.406818 88.452173 
L 149.236364 88.452173 
z
" clip-path="url(#p330997a9d7)" style="fill: #ff0000; stroke: #ffffff; stroke-linejoin: miter"/>
   </g>
   <g id="patch_44">
    <path d="M 152.406818 88.460765 
L 155.577273 88.460765 
L 155.577273 88.448362 
L 152.406818 88.448362 
z
" clip-path="url(#p330997a9d7)" style="fill: #ff0000; stroke: #ffffff; stroke-linejoin: miter"/>
   </g>
   <g id="patch_45">
    <path d="M 155.577273 88.460765 
L 158.747727 88.460765 
L 158.747727 76.101616 
L 155.577273 76.101616 
z
" clip-path="url(#p330997a9d7)" style="fill: #ff0000; stroke: #ffffff; stroke-linejoin: miter"/>
   </g>
   <g id="patch_46">
    <path d="M 158.747727 88.460765 
L 161.918182 88.460765 
L 161.918182 88.415017 
L 158.747727 88.415017 
z
" clip-path="url(#p330997a9d7)" style="fill: #ff0000; stroke: #ffffff; stroke-linejoin: miter"/>
   </g>
   <g id="patch_47">
    <path d="M 161.918182 88.460765 
L 165.088636 88.460765 
L 165.088636 88.434605 
L 161.918182 88.434605 
z
" clip-path="url(#p330997a9d7)" style="fill: #ff0000; stroke: #ffffff; stroke-linejoin: miter"/>
   </g>
   <g id="patch_48">
    <path d="M 165.088636 88.460765 
L 168.259091 88.460765 
L 168.259091 88.451503 
L 165.088636 88.451503 
z
" clip-path="url(#p330997a9d7)" style="fill: #ff0000; stroke: #ffffff; stroke-linejoin: miter"/>
   </g>
   <g id="patch_49">
    <path d="M 168.259091 88.460765 
L 171.429545 88.460765 
L 171.429545 88.40107 
L 168.259091 88.40107 
z
" clip-path="url(#p330997a9d7)" style="fill: #ff0000; stroke: #ffffff; stroke-linejoin: miter"/>
   </g>
   <g id="patch_50">
    <path d="M 171.429545 88.460765 
L 174.6 88.460765 
L 174.6 88.195484 
L 171.429545 88.195484 
z
" clip-path="url(#p330997a9d7)" style="fill: #ff0000; stroke: #ffffff; stroke-linejoin: miter"/>
   </g>
   <g id="patch_51">
    <path d="M 174.6 88.460765 
L 177.770455 88.460765 
L 177.770455 88.182873 
L 174.6 88.182873 
z
" clip-path="url(#p330997a9d7)" style="fill: #d3d3d3; stroke: #ffffff; stroke-linejoin: miter"/>
   </g>
   <g id="patch_52">
    <path d="M 177.770455 88.460765 
L 180.940909 88.460765 
L 180.940909 88.325941 
L 177.770455 88.325941 
z
" clip-path="url(#p330997a9d7)" style="fill: #d3d3d3; stroke: #ffffff; stroke-linejoin: miter"/>
   </g>
   <g id="patch_53">
    <path d="M 180.940909 88.460765 
L 184.111364 88.460765 
L 184.111364 88.418521 
L 180.940909 88.418521 
z
" clip-path="url(#p330997a9d7)" style="fill: #d3d3d3; stroke: #ffffff; stroke-linejoin: miter"/>
   </g>
   <g id="patch_54">
    <path d="M 184.111364 88.460765 
L 187.281818 88.460765 
L 187.281818 87.970049 
L 184.111364 87.970049 
z
" clip-path="url(#p330997a9d7)" style="fill: #d3d3d3; stroke: #ffffff; stroke-linejoin: miter"/>
   </g>
   <g id="patch_55">
    <path d="M 187.281818 88.460765 
L 190.452273 88.460765 
L 190.452273 88.020047 
L 187.281818 88.020047 
z
" clip-path="url(#p330997a9d7)" style="fill: #d3d3d3; stroke: #ffffff; stroke-linejoin: miter"/>
   </g>
   <g id="patch_56">
    <path d="M 190.452273 88.460765 
L 193.622727 88.460765 
L 193.622727 86.447152 
L 190.452273 86.447152 
z
" clip-path="url(#p330997a9d7)" style="fill: #d3d3d3; stroke: #ffffff; stroke-linejoin: miter"/>
   </g>
   <g id="patch_57">
    <path d="M 193.622727 88.460765 
L 196.793182 88.460765 
L 196.793182 88.2268 
L 193.622727 88.2268 
z
" clip-path="url(#p330997a9d7)" style="fill: #d3d3d3; stroke: #ffffff; stroke-linejoin: miter"/>
   </g>
   <g id="patch_58">
    <path d="M 196.793182 88.460765 
L 199.963636 88.460765 
L 199.963636 86.353504 
L 196.793182 86.353504 
z
" clip-path="url(#p330997a9d7)" style="fill: #d3d3d3; stroke: #ffffff; stroke-linejoin: miter"/>
   </g>
   <g id="patch_59">
    <path d="M 199.963636 88.460765 
L 203.134091 88.460765 
L 203.134091 88.396275 
L 199.963636 88.396275 
z
" clip-path="url(#p330997a9d7)" style="fill: #d3d3d3; stroke: #ffffff; stroke-linejoin: miter"/>
   </g>
   <g id="patch_60">
    <path d="M 203.134091 88.460765 
L 206.304545 88.460765 
L 206.304545 87.872427 
L 203.134091 87.872427 
z
" clip-path="url(#p330997a9d7)" style="fill: #d3d3d3; stroke: #ffffff; stroke-linejoin: miter"/>
   </g>
   <g id="patch_61">
    <path d="M 206.304545 88.460765 
L 209.475 88.460765 
L 209.475 88.291336 
L 206.304545 88.291336 
z
" clip-path="url(#p330997a9d7)" style="fill: #d3d3d3; stroke: #ffffff; stroke-linejoin: miter"/>
   </g>
   <g id="patch_62">
    <path d="M 209.475 88.460765 
L 212.645455 88.460765 
L 212.645455 87.792697 
L 209.475 87.792697 
z
" clip-path="url(#p330997a9d7)" style="fill: #d3d3d3; stroke: #ffffff; stroke-linejoin: miter"/>
   </g>
   <g id="patch_63">
    <path d="M 212.645455 88.460765 
L 215.815909 88.460765 
L 215.815909 87.481024 
L 212.645455 87.481024 
z
" clip-path="url(#p330997a9d7)" style="fill: #d3d3d3; stroke: #ffffff; stroke-linejoin: miter"/>
   </g>
   <g id="patch_64">
    <path d="M 215.815909 88.460765 
L 218.986364 88.460765 
L 218.986364 88.32237 
L 215.815909 88.32237 
z
" clip-path="url(#p330997a9d7)" style="fill: #d3d3d3; stroke: #ffffff; stroke-linejoin: miter"/>
   </g>
   <g id="patch_65">
    <path d="M 218.986364 88.460765 
L 222.156818 88.460765 
L 222.156818 88.390131 
L 218.986364 88.390131 
z
" clip-path="url(#p330997a9d7)" style="fill: #d3d3d3; stroke: #ffffff; stroke-linejoin: miter"/>
   </g>
   <g id="patch_66">
    <path d="M 222.156818 88.460765 
L 225.327273 88.460765 
L 225.327273 87.947688 
L 222.156818 87.947688 
z
" clip-path="url(#p330997a9d7)" style="fill: #d3d3d3; stroke: #ffffff; stroke-linejoin: miter"/>
   </g>
   <g id="patch_67">
    <path d="M 225.327273 88.460765 
L 228.497727 88.460765 
L 228.497727 87.499827 
L 225.327273 87.499827 
z
" clip-path="url(#p330997a9d7)" style="fill: #00ff00; stroke: #ffffff; stroke-linejoin: miter"/>
   </g>
   <g id="patch_68">
    <path d="M 228.497727 88.460765 
L 231.668182 88.460765 
L 231.668182 88.007893 
L 228.497727 88.007893 
z
" clip-path="url(#p330997a9d7)" style="fill: #00ff00; stroke: #ffffff; stroke-linejoin: miter"/>
   </g>
   <g id="patch_69">
    <path d="M 231.668182 88.460765 
L 234.838636 88.460765 
L 234.838636 87.865322 
L 231.668182 87.865322 
z
" clip-path="url(#p330997a9d7)" style="fill: #00ff00; stroke: #ffffff; stroke-linejoin: miter"/>
   </g>
   <g id="patch_70">
    <path d="M 234.838636 88.460765 
L 238.009091 88.460765 
L 238.009091 88.09903 
L 234.838636 88.09903 
z
" clip-path="url(#p330997a9d7)" style="fill: #00ff00; stroke: #ffffff; stroke-linejoin: miter"/>
   </g>
   <g id="patch_71">
    <path d="M 238.009091 88.460765 
L 241.179545 88.460765 
L 241.179545 85.927235 
L 238.009091 85.927235 
z
" clip-path="url(#p330997a9d7)" style="fill: #00ff00; stroke: #ffffff; stroke-linejoin: miter"/>
   </g>
   <g id="patch_72">
    <path d="M 241.179545 88.460765 
L 244.35 88.460765 
L 244.35 81.450193 
L 241.179545 81.450193 
z
" clip-path="url(#p330997a9d7)" style="fill: #00ff00; stroke: #ffffff; stroke-linejoin: miter"/>
   </g>
   <g id="patch_73">
    <path d="M 244.35 88.460765 
L 247.520455 88.460765 
L 247.520455 83.438059 
L 244.35 83.438059 
z
" clip-path="url(#p330997a9d7)" style="fill: #00ff00; stroke: #ffffff; stroke-linejoin: miter"/>
   </g>
   <g id="patch_74">
    <path d="M 247.520455 88.460765 
L 250.690909 88.460765 
L 250.690909 75.594337 
L 247.520455 75.594337 
z
" clip-path="url(#p330997a9d7)" style="fill: #00ff00; stroke: #ffffff; stroke-linejoin: miter"/>
   </g>
   <g id="patch_75">
    <path d="M 250.690909 88.460765 
L 253.861364 88.460765 
L 253.861364 87.648675 
L 250.690909 87.648675 
z
" clip-path="url(#p330997a9d7)" style="fill: #00ff00; stroke: #ffffff; stroke-linejoin: miter"/>
   </g>
   <g id="patch_76">
    <path d="M 253.861364 88.460765 
L 257.031818 88.460765 
L 257.031818 85.072499 
L 253.861364 85.072499 
z
" clip-path="url(#p330997a9d7)" style="fill: #00ff00; stroke: #ffffff; stroke-linejoin: miter"/>
   </g>
   <g id="patch_77">
    <path d="M 257.031818 88.460765 
L 260.202273 88.460765 
L 260.202273 86.819581 
L 257.031818 86.819581 
z
" clip-path="url(#p330997a9d7)" style="fill: #00ff00; stroke: #ffffff; stroke-linejoin: miter"/>
   </g>
   <g id="patch_78">
    <path d="M 260.202273 88.460765 
L 263.372727 88.460765 
L 263.372727 86.337268 
L 260.202273 86.337268 
z
" clip-path="url(#p330997a9d7)" style="fill: #00ff00; stroke: #ffffff; stroke-linejoin: miter"/>
   </g>
   <g id="patch_79">
    <path d="M 263.372727 88.460765 
L 266.543182 88.460765 
L 266.543182 86.386081 
L 263.372727 86.386081 
z
" clip-path="url(#p330997a9d7)" style="fill: #00ff00; stroke: #ffffff; stroke-linejoin: miter"/>
   </g>
   <g id="patch_80">
    <path d="M 266.543182 88.460765 
L 269.713636 88.460765 
L 269.713636 86.72075 
L 266.543182 86.72075 
z
" clip-path="url(#p330997a9d7)" style="fill: #00ff00; stroke: #ffffff; stroke-linejoin: miter"/>
   </g>
   <g id="patch_81">
    <path d="M 269.713636 88.460765 
L 272.884091 88.460765 
L 272.884091 87.152197 
L 269.713636 87.152197 
z
" clip-path="url(#p330997a9d7)" style="fill: #00ff00; stroke: #ffffff; stroke-linejoin: miter"/>
   </g>
   <g id="patch_82">
    <path d="M 272.884091 88.460765 
L 276.054545 88.460765 
L 276.054545 87.8123 
L 272.884091 87.8123 
z
" clip-path="url(#p330997a9d7)" style="fill: #00ff00; stroke: #ffffff; stroke-linejoin: miter"/>
   </g>
   <g id="patch_83">
    <path d="M 276.054545 88.460765 
L 279.225 88.460765 
L 279.225 87.544631 
L 276.054545 87.544631 
z
" clip-path="url(#p330997a9d7)" style="fill: #ffc0cb; stroke: #ffffff; stroke-linejoin: miter"/>
   </g>
   <g id="patch_84">
    <path d="M 279.225 88.460765 
L 282.395455 88.460765 
L 282.395455 87.178562 
L 279.225 87.178562 
z
" clip-path="url(#p330997a9d7)" style="fill: #ffc0cb; stroke: #ffffff; stroke-linejoin: miter"/>
   </g>
   <g id="patch_85">
    <path d="M 282.395455 88.460765 
L 285.565909 88.460765 
L 285.565909 87.849385 
L 282.395455 87.849385 
z
" clip-path="url(#p330997a9d7)" style="fill: #ffc0cb; stroke: #ffffff; stroke-linejoin: miter"/>
   </g>
   <g id="patch_86">
    <path d="M 285.565909 88.460765 
L 288.736364 88.460765 
L 288.736364 80.330911 
L 285.565909 80.330911 
z
" clip-path="url(#p330997a9d7)" style="fill: #ffc0cb; stroke: #ffffff; stroke-linejoin: miter"/>
   </g>
   <g id="patch_87">
    <path d="M 288.736364 88.460765 
L 291.906818 88.460765 
L 291.906818 86.924848 
L 288.736364 86.924848 
z
" clip-path="url(#p330997a9d7)" style="fill: #ffc0cb; stroke: #ffffff; stroke-linejoin: miter"/>
   </g>
   <g id="patch_88">
    <path d="M 291.906818 88.460765 
L 295.077273 88.460765 
L 295.077273 81.570044 
L 291.906818 81.570044 
z
" clip-path="url(#p330997a9d7)" style="fill: #ffc0cb; stroke: #ffffff; stroke-linejoin: miter"/>
   </g>
   <g id="patch_89">
    <path d="M 295.077273 88.460765 
L 298.247727 88.460765 
L 298.247727 85.847967 
L 295.077273 85.847967 
z
" clip-path="url(#p330997a9d7)" style="fill: #ffc0cb; stroke: #ffffff; stroke-linejoin: miter"/>
   </g>
   <g id="patch_90">
    <path d="M 298.247727 88.460765 
L 301.418182 88.460765 
L 301.418182 26.294366 
L 298.247727 26.294366 
z
" clip-path="url(#p330997a9d7)" style="fill: #ffc0cb; stroke: #ffffff; stroke-linejoin: miter"/>
   </g>
   <g id="patch_91">
    <path d="M 301.418182 88.460765 
L 304.588636 88.460765 
L 304.588636 88.104534 
L 301.418182 88.104534 
z
" clip-path="url(#p330997a9d7)" style="fill: #ffc0cb; stroke: #ffffff; stroke-linejoin: miter"/>
   </g>
   <g id="patch_92">
    <path d="M 304.588636 88.460765 
L 307.759091 88.460765 
L 307.759091 84.701271 
L 304.588636 84.701271 
z
" clip-path="url(#p330997a9d7)" style="fill: #ffc0cb; stroke: #ffffff; stroke-linejoin: miter"/>
   </g>
   <g id="patch_93">
    <path d="M 307.759091 88.460765 
L 310.929545 88.460765 
L 310.929545 87.634134 
L 307.759091 87.634134 
z
" clip-path="url(#p330997a9d7)" style="fill: #ffc0cb; stroke: #ffffff; stroke-linejoin: miter"/>
   </g>
   <g id="patch_94">
    <path d="M 310.929545 88.460765 
L 314.1 88.460765 
L 314.1 67.089782 
L 310.929545 67.089782 
z
" clip-path="url(#p330997a9d7)" style="fill: #ffc0cb; stroke: #ffffff; stroke-linejoin: miter"/>
   </g>
   <g id="patch_95">
    <path d="M 314.1 88.460765 
L 317.270455 88.460765 
L 317.270455 86.844483 
L 314.1 86.844483 
z
" clip-path="url(#p330997a9d7)" style="fill: #ffc0cb; stroke: #ffffff; stroke-linejoin: miter"/>
   </g>
   <g id="patch_96">
    <path d="M 317.270455 88.460765 
L 320.440909 88.460765 
L 320.440909 86.297111 
L 317.270455 86.297111 
z
" clip-path="url(#p330997a9d7)" style="fill: #ffc0cb; stroke: #ffffff; stroke-linejoin: miter"/>
   </g>
   <g id="patch_97">
    <path d="M 320.440909 88.460765 
L 323.611364 88.460765 
L 323.611364 86.786767 
L 320.440909 86.786767 
z
" clip-path="url(#p330997a9d7)" style="fill: #ffc0cb; stroke: #ffffff; stroke-linejoin: miter"/>
   </g>
   <g id="patch_98">
    <path d="M 323.611364 88.460765 
L 326.781818 88.460765 
L 326.781818 78.274611 
L 323.611364 78.274611 
z
" clip-path="url(#p330997a9d7)" style="fill: #ffc0cb; stroke: #ffffff; stroke-linejoin: miter"/>
   </g>
   <g id="matplotlib.axis_1"/>
   <g id="matplotlib.axis_2"/>
   <g id="LineCollection_1">
    <path d="M 24.003409 88.463575 
L 24.003409 88.443925 
" clip-path="url(#p330997a9d7)" style="fill: none; stroke: #000000; stroke-opacity: 0.5; stroke-width: 0.5"/>
    <path d="M 27.173864 88.381975 
L 27.173864 88.264411 
" clip-path="url(#p330997a9d7)" style="fill: none; stroke: #000000; stroke-opacity: 0.5; stroke-width: 0.5"/>
    <path d="M 30.344318 88.444193 
L 30.344318 88.132168 
" clip-path="url(#p330997a9d7)" style="fill: none; stroke: #000000; stroke-opacity: 0.5; stroke-width: 0.5"/>
    <path d="M 33.514773 88.463662 
L 33.514773 88.442583 
" clip-path="url(#p330997a9d7)" style="fill: none; stroke: #000000; stroke-opacity: 0.5; stroke-width: 0.5"/>
    <path d="M 36.685227 88.463064 
L 36.685227 88.442814 
" clip-path="url(#p330997a9d7)" style="fill: none; stroke: #000000; stroke-opacity: 0.5; stroke-width: 0.5"/>
    <path d="M 39.855682 88.416834 
L 39.855682 88.333732 
" clip-path="url(#p330997a9d7)" style="fill: none; stroke: #000000; stroke-opacity: 0.5; stroke-width: 0.5"/>
    <path d="M 43.026136 88.234198 
L 43.026136 87.743365 
" clip-path="url(#p330997a9d7)" style="fill: none; stroke: #000000; stroke-opacity: 0.5; stroke-width: 0.5"/>
    <path d="M 46.196591 88.45327 
L 46.196591 88.412399 
" clip-path="url(#p330997a9d7)" style="fill: none; stroke: #000000; stroke-opacity: 0.5; stroke-width: 0.5"/>
    <path d="M 49.367045 88.463082 
L 49.367045 88.44081 
" clip-path="url(#p330997a9d7)" style="fill: none; stroke: #000000; stroke-opacity: 0.5; stroke-width: 0.5"/>
    <path d="M 52.5375 88.463232 
L 52.5375 88.435795 
" clip-path="url(#p330997a9d7)" style="fill: none; stroke: #000000; stroke-opacity: 0.5; stroke-width: 0.5"/>
    <path d="M 55.707955 88.344741 
L 55.707955 87.836902 
" clip-path="url(#p330997a9d7)" style="fill: none; stroke: #000000; stroke-opacity: 0.5; stroke-width: 0.5"/>
    <path d="M 58.878409 88.431943 
L 58.878409 88.365061 
" clip-path="url(#p330997a9d7)" style="fill: none; stroke: #000000; stroke-opacity: 0.5; stroke-width: 0.5"/>
    <path d="M 62.048864 88.41764 
L 62.048864 88.34839 
" clip-path="url(#p330997a9d7)" style="fill: none; stroke: #000000; stroke-opacity: 0.5; stroke-width: 0.5"/>
    <path d="M 65.219318 88.463136 
L 65.219318 88.439958 
" clip-path="url(#p330997a9d7)" style="fill: none; stroke: #000000; stroke-opacity: 0.5; stroke-width: 0.5"/>
    <path d="M 68.389773 88.455246 
L 68.389773 88.34061 
" clip-path="url(#p330997a9d7)" style="fill: none; stroke: #000000; stroke-opacity: 0.5; stroke-width: 0.5"/>
    <path d="M 71.560227 88.338579 
L 71.560227 88.240952 
" clip-path="url(#p330997a9d7)" style="fill: none; stroke: #000000; stroke-opacity: 0.5; stroke-width: 0.5"/>
    <path d="M 74.730682 88.463458 
L 74.730682 88.44402 
" clip-path="url(#p330997a9d7)" style="fill: none; stroke: #000000; stroke-opacity: 0.5; stroke-width: 0.5"/>
    <path d="M 77.901136 88.3478 
L 77.901136 88.216388 
" clip-path="url(#p330997a9d7)" style="fill: none; stroke: #000000; stroke-opacity: 0.5; stroke-width: 0.5"/>
    <path d="M 81.071591 88.431058 
L 81.071591 88.099661 
" clip-path="url(#p330997a9d7)" style="fill: none; stroke: #000000; stroke-opacity: 0.5; stroke-width: 0.5"/>
    <path d="M 84.242045 88.463053 
L 84.242045 88.442563 
" clip-path="url(#p330997a9d7)" style="fill: none; stroke: #000000; stroke-opacity: 0.5; stroke-width: 0.5"/>
    <path d="M 87.4125 88.462569 
L 87.4125 88.441285 
" clip-path="url(#p330997a9d7)" style="fill: none; stroke: #000000; stroke-opacity: 0.5; stroke-width: 0.5"/>
    <path d="M 90.582955 88.433215 
L 90.582955 88.355731 
" clip-path="url(#p330997a9d7)" style="fill: none; stroke: #000000; stroke-opacity: 0.5; stroke-width: 0.5"/>
    <path d="M 93.753409 88.420033 
L 93.753409 88.056705 
" clip-path="url(#p330997a9d7)" style="fill: none; stroke: #000000; stroke-opacity: 0.5; stroke-width: 0.5"/>
    <path d="M 96.923864 88.455682 
L 96.923864 88.41772 
" clip-path="url(#p330997a9d7)" style="fill: none; stroke: #000000; stroke-opacity: 0.5; stroke-width: 0.5"/>
    <path d="M 100.094318 88.463254 
L 100.094318 88.442411 
" clip-path="url(#p330997a9d7)" style="fill: none; stroke: #000000; stroke-opacity: 0.5; stroke-width: 0.5"/>
    <path d="M 103.264773 88.463015 
L 103.264773 88.435113 
" clip-path="url(#p330997a9d7)" style="fill: none; stroke: #000000; stroke-opacity: 0.5; stroke-width: 0.5"/>
    <path d="M 106.435227 88.468125 
L 106.435227 88.109607 
" clip-path="url(#p330997a9d7)" style="fill: none; stroke: #000000; stroke-opacity: 0.5; stroke-width: 0.5"/>
    <path d="M 109.605682 88.437427 
L 109.605682 88.372107 
" clip-path="url(#p330997a9d7)" style="fill: none; stroke: #000000; stroke-opacity: 0.5; stroke-width: 0.5"/>
    <path d="M 112.776136 88.459391 
L 112.776136 88.427813 
" clip-path="url(#p330997a9d7)" style="fill: none; stroke: #000000; stroke-opacity: 0.5; stroke-width: 0.5"/>
    <path d="M 115.946591 88.462936 
L 115.946591 88.440704 
" clip-path="url(#p330997a9d7)" style="fill: none; stroke: #000000; stroke-opacity: 0.5; stroke-width: 0.5"/>
    <path d="M 119.117045 88.457145 
L 119.117045 88.348959 
" clip-path="url(#p330997a9d7)" style="fill: none; stroke: #000000; stroke-opacity: 0.5; stroke-width: 0.5"/>
    <path d="M 122.2875 88.433003 
L 122.2875 88.377496 
" clip-path="url(#p330997a9d7)" style="fill: none; stroke: #000000; stroke-opacity: 0.5; stroke-width: 0.5"/>
    <path d="M 125.457955 88.463391 
L 125.457955 88.443956 
" clip-path="url(#p330997a9d7)" style="fill: none; stroke: #000000; stroke-opacity: 0.5; stroke-width: 0.5"/>
    <path d="M 128.628409 88.360889 
L 128.628409 88.240129 
" clip-path="url(#p330997a9d7)" style="fill: none; stroke: #000000; stroke-opacity: 0.5; stroke-width: 0.5"/>
    <path d="M 131.798864 76.384642 
L 131.798864 75.422107 
" clip-path="url(#p330997a9d7)" style="fill: none; stroke: #000000; stroke-opacity: 0.5; stroke-width: 0.5"/>
    <path d="M 134.969318 88.463047 
L 134.969318 88.44296 
" clip-path="url(#p330997a9d7)" style="fill: none; stroke: #000000; stroke-opacity: 0.5; stroke-width: 0.5"/>
    <path d="M 138.139773 88.462978 
L 138.139773 88.442096 
" clip-path="url(#p330997a9d7)" style="fill: none; stroke: #000000; stroke-opacity: 0.5; stroke-width: 0.5"/>
    <path d="M 141.310227 88.448774 
L 141.310227 88.389636 
" clip-path="url(#p330997a9d7)" style="fill: none; stroke: #000000; stroke-opacity: 0.5; stroke-width: 0.5"/>
    <path d="M 144.480682 86.432796 
L 144.480682 85.761344 
" clip-path="url(#p330997a9d7)" style="fill: none; stroke: #000000; stroke-opacity: 0.5; stroke-width: 0.5"/>
    <path d="M 147.651136 88.457266 
L 147.651136 88.420278 
" clip-path="url(#p330997a9d7)" style="fill: none; stroke: #000000; stroke-opacity: 0.5; stroke-width: 0.5"/>
    <path d="M 150.821591 88.463024 
L 150.821591 88.441323 
" clip-path="url(#p330997a9d7)" style="fill: none; stroke: #000000; stroke-opacity: 0.5; stroke-width: 0.5"/>
    <path d="M 153.992045 88.462993 
L 153.992045 88.43373 
" clip-path="url(#p330997a9d7)" style="fill: none; stroke: #000000; stroke-opacity: 0.5; stroke-width: 0.5"/>
    <path d="M 157.1625 76.604364 
L 157.1625 75.598868 
" clip-path="url(#p330997a9d7)" style="fill: none; stroke: #000000; stroke-opacity: 0.5; stroke-width: 0.5"/>
    <path d="M 160.332955 88.445053 
L 160.332955 88.38498 
" clip-path="url(#p330997a9d7)" style="fill: none; stroke: #000000; stroke-opacity: 0.5; stroke-width: 0.5"/>
    <path d="M 163.503409 88.455263 
L 163.503409 88.413947 
" clip-path="url(#p330997a9d7)" style="fill: none; stroke: #000000; stroke-opacity: 0.5; stroke-width: 0.5"/>
    <path d="M 166.673864 88.462883 
L 166.673864 88.440123 
" clip-path="url(#p330997a9d7)" style="fill: none; stroke: #000000; stroke-opacity: 0.5; stroke-width: 0.5"/>
    <path d="M 169.844318 88.458477 
L 169.844318 88.343664 
" clip-path="url(#p330997a9d7)" style="fill: none; stroke: #000000; stroke-opacity: 0.5; stroke-width: 0.5"/>
    <path d="M 173.014773 88.257035 
L 173.014773 88.133932 
" clip-path="url(#p330997a9d7)" style="fill: none; stroke: #000000; stroke-opacity: 0.5; stroke-width: 0.5"/>
    <path d="M 176.185227 88.241222 
L 176.185227 88.124524 
" clip-path="url(#p330997a9d7)" style="fill: none; stroke: #000000; stroke-opacity: 0.5; stroke-width: 0.5"/>
    <path d="M 179.355682 88.381112 
L 179.355682 88.27077 
" clip-path="url(#p330997a9d7)" style="fill: none; stroke: #000000; stroke-opacity: 0.5; stroke-width: 0.5"/>
    <path d="M 182.526136 88.443014 
L 182.526136 88.394027 
" clip-path="url(#p330997a9d7)" style="fill: none; stroke: #000000; stroke-opacity: 0.5; stroke-width: 0.5"/>
    <path d="M 185.696591 88.044469 
L 185.696591 87.895629 
" clip-path="url(#p330997a9d7)" style="fill: none; stroke: #000000; stroke-opacity: 0.5; stroke-width: 0.5"/>
    <path d="M 188.867045 88.119328 
L 188.867045 87.920767 
" clip-path="url(#p330997a9d7)" style="fill: none; stroke: #000000; stroke-opacity: 0.5; stroke-width: 0.5"/>
    <path d="M 192.0375 86.641475 
L 192.0375 86.252829 
" clip-path="url(#p330997a9d7)" style="fill: none; stroke: #000000; stroke-opacity: 0.5; stroke-width: 0.5"/>
    <path d="M 195.207955 88.286938 
L 195.207955 88.166662 
" clip-path="url(#p330997a9d7)" style="fill: none; stroke: #000000; stroke-opacity: 0.5; stroke-width: 0.5"/>
    <path d="M 198.378409 86.528647 
L 198.378409 86.178361 
" clip-path="url(#p330997a9d7)" style="fill: none; stroke: #000000; stroke-opacity: 0.5; stroke-width: 0.5"/>
    <path d="M 201.548864 88.438364 
L 201.548864 88.354186 
" clip-path="url(#p330997a9d7)" style="fill: none; stroke: #000000; stroke-opacity: 0.5; stroke-width: 0.5"/>
    <path d="M 204.719318 88.014046 
L 204.719318 87.730809 
" clip-path="url(#p330997a9d7)" style="fill: none; stroke: #000000; stroke-opacity: 0.5; stroke-width: 0.5"/>
    <path d="M 207.889773 88.353599 
L 207.889773 88.229072 
" clip-path="url(#p330997a9d7)" style="fill: none; stroke: #000000; stroke-opacity: 0.5; stroke-width: 0.5"/>
    <path d="M 211.060227 87.910453 
L 211.060227 87.674941 
" clip-path="url(#p330997a9d7)" style="fill: none; stroke: #000000; stroke-opacity: 0.5; stroke-width: 0.5"/>
    <path d="M 214.230682 87.599631 
L 214.230682 87.362416 
" clip-path="url(#p330997a9d7)" style="fill: none; stroke: #000000; stroke-opacity: 0.5; stroke-width: 0.5"/>
    <path d="M 217.401136 88.368435 
L 217.401136 88.276305 
" clip-path="url(#p330997a9d7)" style="fill: none; stroke: #000000; stroke-opacity: 0.5; stroke-width: 0.5"/>
    <path d="M 220.571591 88.423585 
L 220.571591 88.356678 
" clip-path="url(#p330997a9d7)" style="fill: none; stroke: #000000; stroke-opacity: 0.5; stroke-width: 0.5"/>
    <path d="M 223.742045 88.012586 
L 223.742045 87.882789 
" clip-path="url(#p330997a9d7)" style="fill: none; stroke: #000000; stroke-opacity: 0.5; stroke-width: 0.5"/>
    <path d="M 226.9125 87.611862 
L 226.9125 87.387793 
" clip-path="url(#p330997a9d7)" style="fill: none; stroke: #000000; stroke-opacity: 0.5; stroke-width: 0.5"/>
    <path d="M 230.082955 88.107483 
L 230.082955 87.908303 
" clip-path="url(#p330997a9d7)" style="fill: none; stroke: #000000; stroke-opacity: 0.5; stroke-width: 0.5"/>
    <path d="M 233.253409 87.959655 
L 233.253409 87.770988 
" clip-path="url(#p330997a9d7)" style="fill: none; stroke: #000000; stroke-opacity: 0.5; stroke-width: 0.5"/>
    <path d="M 236.423864 88.16397 
L 236.423864 88.034091 
" clip-path="url(#p330997a9d7)" style="fill: none; stroke: #000000; stroke-opacity: 0.5; stroke-width: 0.5"/>
    <path d="M 239.594318 86.149418 
L 239.594318 85.705052 
" clip-path="url(#p330997a9d7)" style="fill: none; stroke: #000000; stroke-opacity: 0.5; stroke-width: 0.5"/>
    <path d="M 242.764773 81.814767 
L 242.764773 81.085619 
" clip-path="url(#p330997a9d7)" style="fill: none; stroke: #000000; stroke-opacity: 0.5; stroke-width: 0.5"/>
    <path d="M 245.935227 83.723491 
L 245.935227 83.152627 
" clip-path="url(#p330997a9d7)" style="fill: none; stroke: #000000; stroke-opacity: 0.5; stroke-width: 0.5"/>
    <path d="M 249.105682 76.023977 
L 249.105682 75.164696 
" clip-path="url(#p330997a9d7)" style="fill: none; stroke: #000000; stroke-opacity: 0.5; stroke-width: 0.5"/>
    <path d="M 252.276136 87.773805 
L 252.276136 87.523545 
" clip-path="url(#p330997a9d7)" style="fill: none; stroke: #000000; stroke-opacity: 0.5; stroke-width: 0.5"/>
    <path d="M 255.446591 85.360288 
L 255.446591 84.784709 
" clip-path="url(#p330997a9d7)" style="fill: none; stroke: #000000; stroke-opacity: 0.5; stroke-width: 0.5"/>
    <path d="M 258.617045 86.987668 
L 258.617045 86.651493 
" clip-path="url(#p330997a9d7)" style="fill: none; stroke: #000000; stroke-opacity: 0.5; stroke-width: 0.5"/>
    <path d="M 261.7875 86.547167 
L 261.7875 86.127368 
" clip-path="url(#p330997a9d7)" style="fill: none; stroke: #000000; stroke-opacity: 0.5; stroke-width: 0.5"/>
    <path d="M 264.957955 86.56424 
L 264.957955 86.207923 
" clip-path="url(#p330997a9d7)" style="fill: none; stroke: #000000; stroke-opacity: 0.5; stroke-width: 0.5"/>
    <path d="M 268.128409 86.881086 
L 268.128409 86.560413 
" clip-path="url(#p330997a9d7)" style="fill: none; stroke: #000000; stroke-opacity: 0.5; stroke-width: 0.5"/>
    <path d="M 271.298864 87.295115 
L 271.298864 87.009278 
" clip-path="url(#p330997a9d7)" style="fill: none; stroke: #000000; stroke-opacity: 0.5; stroke-width: 0.5"/>
    <path d="M 274.469318 87.887089 
L 274.469318 87.737512 
" clip-path="url(#p330997a9d7)" style="fill: none; stroke: #000000; stroke-opacity: 0.5; stroke-width: 0.5"/>
    <path d="M 277.639773 87.656672 
L 277.639773 87.43259 
" clip-path="url(#p330997a9d7)" style="fill: none; stroke: #000000; stroke-opacity: 0.5; stroke-width: 0.5"/>
    <path d="M 280.810227 87.333281 
L 280.810227 87.023843 
" clip-path="url(#p330997a9d7)" style="fill: none; stroke: #000000; stroke-opacity: 0.5; stroke-width: 0.5"/>
    <path d="M 283.980682 87.948972 
L 283.980682 87.749798 
" clip-path="url(#p330997a9d7)" style="fill: none; stroke: #000000; stroke-opacity: 0.5; stroke-width: 0.5"/>
    <path d="M 287.151136 80.669777 
L 287.151136 79.992045 
" clip-path="url(#p330997a9d7)" style="fill: none; stroke: #000000; stroke-opacity: 0.5; stroke-width: 0.5"/>
    <path d="M 290.321591 87.103822 
L 290.321591 86.745874 
" clip-path="url(#p330997a9d7)" style="fill: none; stroke: #000000; stroke-opacity: 0.5; stroke-width: 0.5"/>
    <path d="M 293.492045 81.916813 
L 293.492045 81.223276 
" clip-path="url(#p330997a9d7)" style="fill: none; stroke: #000000; stroke-opacity: 0.5; stroke-width: 0.5"/>
    <path d="M 296.6625 86.049929 
L 296.6625 85.646004 
" clip-path="url(#p330997a9d7)" style="fill: none; stroke: #000000; stroke-opacity: 0.5; stroke-width: 0.5"/>
    <path d="M 299.832955 27.120608 
L 299.832955 25.468125 
" clip-path="url(#p330997a9d7)" style="fill: none; stroke: #000000; stroke-opacity: 0.5; stroke-width: 0.5"/>
    <path d="M 303.003409 88.196209 
L 303.003409 88.01286 
" clip-path="url(#p330997a9d7)" style="fill: none; stroke: #000000; stroke-opacity: 0.5; stroke-width: 0.5"/>
    <path d="M 306.173864 85.003994 
L 306.173864 84.398549 
" clip-path="url(#p330997a9d7)" style="fill: none; stroke: #000000; stroke-opacity: 0.5; stroke-width: 0.5"/>
    <path d="M 309.344318 87.759743 
L 309.344318 87.508524 
" clip-path="url(#p330997a9d7)" style="fill: none; stroke: #000000; stroke-opacity: 0.5; stroke-width: 0.5"/>
    <path d="M 312.514773 67.640205 
L 312.514773 66.539358 
" clip-path="url(#p330997a9d7)" style="fill: none; stroke: #000000; stroke-opacity: 0.5; stroke-width: 0.5"/>
    <path d="M 315.685227 86.998099 
L 315.685227 86.690868 
" clip-path="url(#p330997a9d7)" style="fill: none; stroke: #000000; stroke-opacity: 0.5; stroke-width: 0.5"/>
    <path d="M 318.855682 86.479018 
L 318.855682 86.115204 
" clip-path="url(#p330997a9d7)" style="fill: none; stroke: #000000; stroke-opacity: 0.5; stroke-width: 0.5"/>
    <path d="M 322.026136 86.947234 
L 322.026136 86.626299 
" clip-path="url(#p330997a9d7)" style="fill: none; stroke: #000000; stroke-opacity: 0.5; stroke-width: 0.5"/>
    <path d="M 325.196591 78.645796 
L 325.196591 77.903425 
" clip-path="url(#p330997a9d7)" style="fill: none; stroke: #000000; stroke-opacity: 0.5; stroke-width: 0.5"/>
   </g>
   <g id="patch_99">
    <path d="M 7.2 91.618125 
L 342 91.618125 
" style="fill: none; stroke: #000000; stroke-width: 0.8; stroke-linejoin: miter; stroke-linecap: square"/>
   </g>
   <g id="text_1">
    <!-- Component 1 -->
    <g transform="translate(134.040937 16.318125) scale(0.12 -0.12)">
     <defs>
      <path id="DejaVuSans-43" d="M 4122 4306 
L 4122 3641 
Q 3803 3938 3442 4084 
Q 3081 4231 2675 4231 
Q 1875 4231 1450 3742 
Q 1025 3253 1025 2328 
Q 1025 1406 1450 917 
Q 1875 428 2675 428 
Q 3081 428 3442 575 
Q 3803 722 4122 1019 
L 4122 359 
Q 3791 134 3420 21 
Q 3050 -91 2638 -91 
Q 1578 -91 968 557 
Q 359 1206 359 2328 
Q 359 3453 968 4101 
Q 1578 4750 2638 4750 
Q 3056 4750 3426 4639 
Q 3797 4528 4122 4306 
z
" transform="scale(0.015625)"/>
      <path id="DejaVuSans-6f" d="M 1959 3097 
Q 1497 3097 1228 2736 
Q 959 2375 959 1747 
Q 959 1119 1226 758 
Q 1494 397 1959 397 
Q 2419 397 2687 759 
Q 2956 1122 2956 1747 
Q 2956 2369 2687 2733 
Q 2419 3097 1959 3097 
z
M 1959 3584 
Q 2709 3584 3137 3096 
Q 3566 2609 3566 1747 
Q 3566 888 3137 398 
Q 2709 -91 1959 -91 
Q 1206 -91 779 398 
Q 353 888 353 1747 
Q 353 2609 779 3096 
Q 1206 3584 1959 3584 
z
" transform="scale(0.015625)"/>
      <path id="DejaVuSans-6d" d="M 3328 2828 
Q 3544 3216 3844 3400 
Q 4144 3584 4550 3584 
Q 5097 3584 5394 3201 
Q 5691 2819 5691 2113 
L 5691 0 
L 5113 0 
L 5113 2094 
Q 5113 2597 4934 2840 
Q 4756 3084 4391 3084 
Q 3944 3084 3684 2787 
Q 3425 2491 3425 1978 
L 3425 0 
L 2847 0 
L 2847 2094 
Q 2847 2600 2669 2842 
Q 2491 3084 2119 3084 
Q 1678 3084 1418 2786 
Q 1159 2488 1159 1978 
L 1159 0 
L 581 0 
L 581 3500 
L 1159 3500 
L 1159 2956 
Q 1356 3278 1631 3431 
Q 1906 3584 2284 3584 
Q 2666 3584 2933 3390 
Q 3200 3197 3328 2828 
z
" transform="scale(0.015625)"/>
      <path id="DejaVuSans-70" d="M 1159 525 
L 1159 -1331 
L 581 -1331 
L 581 3500 
L 1159 3500 
L 1159 2969 
Q 1341 3281 1617 3432 
Q 1894 3584 2278 3584 
Q 2916 3584 3314 3078 
Q 3713 2572 3713 1747 
Q 3713 922 3314 415 
Q 2916 -91 2278 -91 
Q 1894 -91 1617 61 
Q 1341 213 1159 525 
z
M 3116 1747 
Q 3116 2381 2855 2742 
Q 2594 3103 2138 3103 
Q 1681 3103 1420 2742 
Q 1159 2381 1159 1747 
Q 1159 1113 1420 752 
Q 1681 391 2138 391 
Q 2594 391 2855 752 
Q 3116 1113 3116 1747 
z
" transform="scale(0.015625)"/>
      <path id="DejaVuSans-6e" d="M 3513 2113 
L 3513 0 
L 2938 0 
L 2938 2094 
Q 2938 2591 2744 2837 
Q 2550 3084 2163 3084 
Q 1697 3084 1428 2787 
Q 1159 2491 1159 1978 
L 1159 0 
L 581 0 
L 581 3500 
L 1159 3500 
L 1159 2956 
Q 1366 3272 1645 3428 
Q 1925 3584 2291 3584 
Q 2894 3584 3203 3211 
Q 3513 2838 3513 2113 
z
" transform="scale(0.015625)"/>
      <path id="DejaVuSans-65" d="M 3597 1894 
L 3597 1613 
L 953 1613 
Q 991 1019 1311 708 
Q 1631 397 2203 397 
Q 2534 397 2845 478 
Q 3156 559 3463 722 
L 3463 178 
Q 3153 47 2828 -22 
Q 2503 -91 2169 -91 
Q 1331 -91 842 396 
Q 353 884 353 1716 
Q 353 2575 817 3079 
Q 1281 3584 2069 3584 
Q 2775 3584 3186 3129 
Q 3597 2675 3597 1894 
z
M 3022 2063 
Q 3016 2534 2758 2815 
Q 2500 3097 2075 3097 
Q 1594 3097 1305 2825 
Q 1016 2553 972 2059 
L 3022 2063 
z
" transform="scale(0.015625)"/>
      <path id="DejaVuSans-74" d="M 1172 4494 
L 1172 3500 
L 2356 3500 
L 2356 3053 
L 1172 3053 
L 1172 1153 
Q 1172 725 1289 603 
Q 1406 481 1766 481 
L 2356 481 
L 2356 0 
L 1766 0 
Q 1100 0 847 248 
Q 594 497 594 1153 
L 594 3053 
L 172 3053 
L 172 3500 
L 594 3500 
L 594 4494 
L 1172 4494 
z
" transform="scale(0.015625)"/>
      <path id="DejaVuSans-20" transform="scale(0.015625)"/>
      <path id="DejaVuSans-31" d="M 794 531 
L 1825 531 
L 1825 4091 
L 703 3866 
L 703 4441 
L 1819 4666 
L 2450 4666 
L 2450 531 
L 3481 531 
L 3481 0 
L 794 0 
L 794 531 
z
" transform="scale(0.015625)"/>
     </defs>
     <use xlink:href="#DejaVuSans-43"/>
     <use xlink:href="#DejaVuSans-6f" x="69.824219"/>
     <use xlink:href="#DejaVuSans-6d" x="131.005859"/>
     <use xlink:href="#DejaVuSans-70" x="228.417969"/>
     <use xlink:href="#DejaVuSans-6f" x="291.894531"/>
     <use xlink:href="#DejaVuSans-6e" x="353.076172"/>
     <use xlink:href="#DejaVuSans-65" x="416.455078"/>
     <use xlink:href="#DejaVuSans-6e" x="477.978516"/>
     <use xlink:href="#DejaVuSans-74" x="541.357422"/>
     <use xlink:href="#DejaVuSans-20" x="580.566406"/>
     <use xlink:href="#DejaVuSans-31" x="612.353516"/>
    </g>
   </g>
  </g>
 </g>
 <defs>
  <clipPath id="p330997a9d7">
   <rect x="7.2" y="22.318125" width="334.8" height="69.3"/>
  </clipPath>
 </defs>
</svg>
